<svg width="88" height="31" viewBox="0 0 88 31" fill="none" xmlns="http://www.w3.org/2000/svg">
<g clip-path="url(#clip0_8_1379)">
<path d="M80.2574 0.980319H6.94812C6.68089 0.980319 6.41688 0.980319 6.15036 0.981777C5.92727 0.983234 5.70595 0.987468 5.48071 0.991032C4.99138 0.99679 4.5032 1.03984 4.02042 1.1198C3.53832 1.20151 3.07132 1.35555 2.63521 1.57671C2.19964 1.79974 1.80165 2.08955 1.45567 2.43562C1.10788 2.78072 0.817962 3.17961 0.597077 3.61695C0.375583 4.05341 0.221998 4.52113 0.141627 5.00393C0.0604918 5.48613 0.0168323 5.97389 0.0110401 6.46283C0.00427759 6.68626 0.00356344 6.91043 0 7.13388V23.9777C0.00356344 24.204 0.00427759 24.4232 0.0110401 24.6495C0.016834 25.1384 0.0604935 25.6262 0.141627 26.1083C0.221776 26.5914 0.37537 27.0594 0.597077 27.496C0.817861 27.932 1.10782 28.3292 1.45567 28.6724C1.80034 29.02 2.19859 29.31 2.63521 29.5314C3.07131 29.7531 3.53827 29.9081 4.02042 29.991C4.50329 30.0704 4.99141 30.1134 5.48071 30.1199C5.70595 30.1248 5.92727 30.1277 6.15036 30.1277C6.41687 30.1291 6.68091 30.1291 6.94812 30.1291H80.2574C80.5193 30.1291 80.7855 30.1291 81.0474 30.1277C81.2694 30.1277 81.4971 30.1248 81.7192 30.1199C82.2076 30.1138 82.6948 30.0707 83.1766 29.991C83.6603 29.9075 84.129 29.7526 84.5672 29.5314C85.0034 29.3099 85.4013 29.0199 85.7457 28.6724C86.0926 28.3279 86.3832 27.9309 86.6067 27.496C86.8268 27.0591 86.9789 26.5912 87.0579 26.1083C87.1391 25.6261 87.1843 25.1385 87.1931 24.6495C87.196 24.4232 87.196 24.204 87.196 23.9777C87.2016 23.713 87.2016 23.4497 87.2016 23.1806V7.92949C87.2016 7.66263 87.2016 7.3979 87.196 7.13388C87.196 6.91043 87.196 6.68626 87.1931 6.4628C87.1843 5.97382 87.1391 5.48617 87.0579 5.0039C86.9787 4.52138 86.8265 4.0537 86.6067 3.61692C86.1569 2.74032 85.4436 2.02678 84.5672 1.57665C84.129 1.35602 83.6603 1.20203 83.1766 1.11974C82.6948 1.03942 82.2076 0.996357 81.7192 0.99093C81.4971 0.987373 81.2694 0.983103 81.0474 0.981682C80.7855 0.980225 80.5193 0.980225 80.2574 0.980225V0.980319Z" fill="black"/>
<path d="M6.15397 29.4915C5.93194 29.4915 5.71528 29.4886 5.495 29.4837C5.03866 29.4777 4.58339 29.438 4.13292 29.3648C3.71287 29.2925 3.30597 29.1579 2.92561 28.9656C2.54875 28.7748 2.20502 28.5247 1.90759 28.2247C1.60586 27.9283 1.35465 27.5846 1.16393 27.2071C0.971099 26.8271 0.837651 26.4198 0.768231 25.9994C0.693263 25.5477 0.652703 25.091 0.646899 24.6331C0.642279 24.4794 0.63623 23.9677 0.63623 23.9677V7.13385C0.63623 7.13385 0.642672 6.63001 0.646935 6.48198C0.652492 6.02484 0.692817 5.56879 0.76756 5.11777C0.837109 4.69622 0.97066 4.28777 1.16359 3.90656C1.35362 3.52931 1.60343 3.1853 1.90334 2.88785C2.20292 2.58757 2.54775 2.33615 2.92526 2.14275C3.30474 1.95101 3.71087 1.81739 4.13007 1.74637C4.58202 1.67245 5.03887 1.63249 5.49679 1.62682L6.15433 1.61792H81.0439L81.7093 1.62717C82.163 1.63257 82.6157 1.67217 83.0635 1.74566C83.4869 1.81757 83.8973 1.95212 84.2811 2.14489C85.0374 2.53464 85.6528 3.15127 86.041 3.90834C86.2308 4.28691 86.3623 4.69203 86.431 5.10994C86.5066 5.56466 86.549 6.0243 86.5577 6.48519C86.5598 6.69156 86.5598 6.91324 86.5598 7.13385C86.5655 7.40712 86.5655 7.66722 86.5655 7.92946V23.1806C86.5655 23.4454 86.5655 23.7037 86.5598 23.9641C86.5598 24.2011 86.5598 24.4182 86.5569 24.6416C86.5484 25.0943 86.5068 25.5457 86.4324 25.9923C86.3644 26.4157 86.2317 26.8262 86.0389 27.2093C85.8468 27.5827 85.597 27.9235 85.2988 28.2191C85.0011 28.5206 84.6568 28.7722 84.279 28.9642C83.8963 29.158 83.4865 29.2931 83.0635 29.3648C82.6131 29.4384 82.1578 29.4781 81.7014 29.4837C81.4879 29.4886 81.2645 29.4915 81.0474 29.4915L80.2575 29.4929L6.15397 29.4915Z" fill="black"/>
<path d="M18.0493 15.7736C18.0572 15.1653 18.2187 14.569 18.519 14.04C18.8192 13.5109 19.2484 13.0665 19.7666 12.7479C19.4374 12.2777 19.0031 11.8908 18.4983 11.6179C17.9934 11.345 17.4318 11.1935 16.8582 11.1755C15.6345 11.0471 14.4482 11.9078 13.8246 11.9078C13.1889 11.9078 12.2289 11.1883 11.195 11.2096C10.5263 11.2312 9.87454 11.4256 9.30331 11.774C8.73208 12.1224 8.26084 12.6128 7.93549 13.1974C6.52614 15.6375 7.57739 19.2236 8.92742 21.1959C9.60287 22.1617 10.3923 23.2406 11.4252 23.2023C12.436 23.1604 12.8135 22.5578 14.0336 22.5578C15.2424 22.5578 15.5965 23.2023 16.6504 23.178C17.735 23.1604 18.4184 22.2079 19.0701 21.2329C19.5555 20.5447 19.9289 19.7842 20.1766 18.9793C19.5465 18.7128 19.0088 18.2667 18.6305 17.6966C18.2522 17.1266 18.0501 16.4578 18.0493 15.7736Z" fill="white"/>
<path d="M16.0586 9.87852C16.65 9.1686 16.9414 8.25611 16.8708 7.33484C15.9673 7.42973 15.1328 7.86154 14.5334 8.54423C14.2403 8.87774 14.0159 9.26574 13.8729 9.68604C13.7299 10.1063 13.6711 10.5507 13.6999 10.9937C14.1519 10.9984 14.5989 10.9004 15.0075 10.7073C15.4161 10.5141 15.7755 10.2307 16.0586 9.87852Z" fill="white"/>
<path d="M30.8262 20.7573H27.3769L26.5485 23.2032H25.0875L28.3547 14.1539H29.8726L33.1397 23.2032H31.6538L30.8262 20.7573ZM27.7341 19.6286H30.4683L29.1204 15.6591H29.0827L27.7341 19.6286Z" fill="white"/>
<path d="M40.1954 19.9047C40.1954 21.9549 39.0981 23.2722 37.4421 23.2722C37.0226 23.2941 36.6054 23.1975 36.2383 22.9934C35.8712 22.7892 35.5689 22.4858 35.3662 22.1179H35.3349V25.3857H33.9807V16.6055H35.2915V17.7029H35.3164C35.5284 17.3367 35.8358 17.0349 36.2057 16.8295C36.5756 16.6241 36.9943 16.5229 37.4172 16.5365C39.0916 16.5365 40.1954 17.8601 40.1954 19.9047ZM38.8035 19.9047C38.8035 18.569 38.1132 17.6908 37.0599 17.6908C36.0252 17.6908 35.3292 18.5874 35.3292 19.9047C35.3292 21.234 36.0252 22.1243 37.0599 22.1243C38.1132 22.1243 38.8035 21.2525 38.8035 19.9047Z" fill="white"/>
<path d="M47.457 19.9047C47.457 21.9549 46.3597 23.2722 44.7037 23.2722C44.2842 23.2941 43.867 23.1975 43.4999 22.9933C43.1328 22.7892 42.8305 22.4858 42.6278 22.1179H42.5965V25.3857H41.2422V16.6055H42.5531V17.7029H42.578C42.79 17.3367 43.0973 17.0349 43.4673 16.8295C43.8372 16.6241 44.2559 16.5229 44.6788 16.5365C46.3533 16.5365 47.457 17.8601 47.457 19.9047ZM46.0651 19.9047C46.0651 18.5689 45.3748 17.6908 44.3215 17.6908C43.2868 17.6908 42.5908 18.5874 42.5908 19.9047C42.5908 21.234 43.2868 22.1243 44.3215 22.1243C45.3748 22.1243 46.0651 21.2525 46.0651 19.9047H46.0651Z" fill="white"/>
<path d="M52.2565 20.6818C52.3569 21.5792 53.2287 22.1684 54.4199 22.1684C55.5614 22.1684 56.3826 21.5792 56.3826 20.7701C56.3826 20.0677 55.8873 19.6471 54.7145 19.3589L53.5418 19.0763C51.8801 18.675 51.1087 17.8979 51.1087 16.6368C51.1087 15.0755 52.4693 14.0031 54.4014 14.0031C56.3136 14.0031 57.6244 15.0755 57.6686 16.6368H56.3015C56.2197 15.7338 55.4731 15.1886 54.3822 15.1886C53.2912 15.1886 52.5447 15.7402 52.5447 16.5429C52.5447 17.1827 53.0215 17.5591 54.1879 17.8473L55.1849 18.0921C57.0416 18.5312 57.813 19.277 57.813 20.6007C57.813 22.2936 56.4644 23.354 54.3196 23.354C52.3127 23.354 50.9578 22.3186 50.8702 20.6818L52.2565 20.6818Z" fill="white"/>
<path d="M60.736 15.0442V16.6055H61.9906V17.678H60.736V21.3152C60.736 21.8802 60.9872 22.1435 61.5387 22.1435C61.6876 22.1409 61.8363 22.1305 61.9842 22.1122V23.1782C61.7362 23.2246 61.4842 23.2455 61.232 23.2408C59.8962 23.2408 59.3753 22.7391 59.3753 21.4596V17.678H58.416V16.6055H59.3753V15.0442H60.736Z" fill="white"/>
<path d="M62.7172 19.9047C62.7172 17.8289 63.9398 16.5244 65.8462 16.5244C67.7591 16.5244 68.976 17.8288 68.976 19.9047C68.976 21.9863 67.7655 23.285 65.8462 23.285C63.9276 23.285 62.7172 21.9863 62.7172 19.9047ZM67.5962 19.9047C67.5962 18.4807 66.9436 17.6403 65.8462 17.6403C64.7489 17.6403 64.097 18.4871 64.097 19.9047C64.097 21.3344 64.7489 22.1684 65.8462 22.1684C66.9436 22.1684 67.5961 21.3344 67.5961 19.9047H67.5962Z" fill="white"/>
<path d="M70.0926 16.6055H71.3842V17.7284H71.4156C71.5029 17.3777 71.7084 17.0678 71.9974 16.8507C72.2864 16.6336 72.6413 16.5226 73.0025 16.5364C73.1586 16.5359 73.3142 16.5528 73.4665 16.587V17.8537C73.2695 17.7935 73.064 17.7658 72.858 17.7718C72.6613 17.7639 72.4652 17.7985 72.2831 17.8735C72.101 17.9485 71.9373 18.062 71.8033 18.2062C71.6692 18.3504 71.5679 18.5219 71.5064 18.7089C71.4449 18.896 71.4246 19.0941 71.4468 19.2898V23.2031H70.0926L70.0926 16.6055Z" fill="white"/>
<path d="M79.7104 21.2654C79.5282 22.4631 78.3619 23.285 76.8696 23.285C74.9503 23.285 73.759 21.9991 73.759 19.936C73.759 17.8666 74.9567 16.5244 76.8126 16.5244C78.638 16.5244 79.7859 17.7783 79.7859 19.7787V20.2427H75.126V20.3246C75.1045 20.5674 75.1349 20.812 75.2152 21.0421C75.2955 21.2723 75.4238 21.4828 75.5917 21.6595C75.7596 21.8363 75.9631 21.9753 76.1888 22.0673C76.4146 22.1593 76.6573 22.2023 76.9009 22.1933C77.2209 22.2233 77.5421 22.1492 77.8166 21.982C78.0911 21.8148 78.3043 21.5635 78.4245 21.2654L79.7104 21.2654ZM75.1324 19.2963H78.4309C78.4431 19.0779 78.41 18.8595 78.3337 18.6545C78.2574 18.4496 78.1396 18.2627 77.9876 18.1054C77.8357 17.9482 77.6529 17.8241 77.4507 17.7408C77.2485 17.6576 77.0312 17.6171 76.8126 17.6218C76.5921 17.6204 76.3735 17.6628 76.1694 17.7464C75.9653 17.83 75.7798 17.9533 75.6236 18.1089C75.4674 18.2646 75.3436 18.4497 75.2593 18.6535C75.175 18.8573 75.1319 19.0757 75.1324 19.2963V19.2963Z" fill="white"/>
<path d="M27.565 7.34295C27.8489 7.32257 28.1338 7.36546 28.3991 7.46853C28.6645 7.57159 28.9036 7.73226 29.0993 7.93895C29.2951 8.14563 29.4425 8.39318 29.531 8.66373C29.6194 8.93428 29.6467 9.2211 29.6109 9.50349C29.6109 10.8926 28.8602 11.6911 27.565 11.6911H25.9944V7.34295H27.565ZM26.6697 11.0762H27.4895C27.6924 11.0883 27.8954 11.055 28.0838 10.9788C28.2723 10.9026 28.4413 10.7853 28.5786 10.6355C28.716 10.4857 28.8182 10.3071 28.8779 10.1129C28.9375 9.91857 28.9531 9.71342 28.9235 9.51235C28.951 9.31207 28.9338 9.10819 28.8732 8.91533C28.8127 8.72246 28.7102 8.54538 28.5731 8.39677C28.4361 8.24817 28.2679 8.13171 28.0805 8.05575C27.8932 7.97979 27.6914 7.94621 27.4895 7.95741H26.6697V11.0762Z" fill="white"/>
<path d="M30.3741 10.049C30.3535 9.83336 30.3781 9.61579 30.4465 9.41024C30.5149 9.20469 30.6255 9.0157 30.7712 8.85539C30.9169 8.69509 31.0945 8.56701 31.2926 8.47936C31.4907 8.39171 31.7049 8.34644 31.9215 8.34644C32.1382 8.34644 32.3524 8.39171 32.5505 8.47936C32.7486 8.56701 32.9262 8.69509 33.0719 8.85539C33.2176 9.0157 33.3282 9.20469 33.3966 9.41024C33.465 9.61579 33.4896 9.83336 33.469 10.049C33.49 10.2649 33.4657 10.4827 33.3974 10.6886C33.3292 10.8945 33.2187 11.0838 33.073 11.2445C32.9272 11.4051 32.7495 11.5334 32.5512 11.6213C32.3529 11.7091 32.1384 11.7545 31.9215 11.7545C31.7047 11.7545 31.4902 11.7091 31.2919 11.6213C31.0936 11.5334 30.9158 11.4051 30.7701 11.2445C30.6244 11.0838 30.5138 10.8945 30.4456 10.6886C30.3774 10.4827 30.3531 10.2649 30.3741 10.049ZM32.8029 10.049C32.8029 9.33772 32.4834 8.92177 31.9226 8.92177C31.3597 8.92177 31.043 9.33772 31.043 10.049C31.043 10.766 31.3597 11.1787 31.9226 11.1787C32.4834 11.1787 32.8029 10.7631 32.8029 10.049H32.8029Z" fill="white"/>
<path d="M37.5828 11.691H36.911L36.2328 9.27431H36.1816L35.5062 11.691H34.8408L33.9363 8.40967H34.5932L35.181 10.9136H35.2294L35.904 8.40967H36.5253L37.1999 10.9136H37.2512L37.8361 8.40967H38.4837L37.5828 11.691Z" fill="white"/>
<path d="M39.2442 8.40959H39.8676V8.93086H39.916C39.9981 8.74364 40.1365 8.58669 40.3121 8.4819C40.4876 8.37711 40.6915 8.32968 40.8952 8.34625C41.0549 8.33424 41.2152 8.35832 41.3643 8.41668C41.5134 8.47505 41.6474 8.56622 41.7565 8.68343C41.8656 8.80064 41.9469 8.94089 41.9944 9.09379C42.0419 9.24669 42.0544 9.40832 42.031 9.56671V11.6909H41.3834V9.72933C41.3834 9.20201 41.1543 8.93976 40.6753 8.93976C40.5669 8.93471 40.4587 8.95316 40.3581 8.99385C40.2575 9.03453 40.1669 9.09649 40.0924 9.17547C40.018 9.25445 39.9616 9.34859 39.9269 9.45144C39.8923 9.55428 39.8803 9.6634 39.8918 9.77131V11.691H39.2442L39.2442 8.40959Z" fill="white"/>
<path d="M43.0629 7.12878H43.7105V11.6911H43.0629V7.12878Z" fill="white"/>
<path d="M44.6111 10.0491C44.5905 9.83341 44.6152 9.61582 44.6836 9.41026C44.752 9.20471 44.8626 9.01571 45.0083 8.8554C45.154 8.69509 45.3316 8.56701 45.5298 8.47936C45.7279 8.39171 45.9421 8.34644 46.1588 8.34644C46.3754 8.34644 46.5897 8.39171 46.7878 8.47936C46.9859 8.56701 47.1635 8.69509 47.3092 8.8554C47.4549 9.01571 47.5655 9.20471 47.6339 9.41026C47.7023 9.61582 47.727 9.83341 47.7064 10.0491C47.7274 10.2649 47.703 10.4828 47.6348 10.6887C47.5666 10.8946 47.456 11.0839 47.3103 11.2445C47.1645 11.4051 46.9868 11.5335 46.7885 11.6213C46.5901 11.7091 46.3757 11.7545 46.1588 11.7545C45.9419 11.7545 45.7274 11.7091 45.5291 11.6213C45.3308 11.5335 45.153 11.4051 45.0073 11.2445C44.8615 11.0839 44.751 10.8946 44.6828 10.6887C44.6145 10.4828 44.5901 10.2649 44.6111 10.0491ZM47.0399 10.0491C47.0399 9.33778 46.7204 8.92183 46.1597 8.92183C45.5967 8.92183 45.2801 9.33778 45.2801 10.0491C45.2801 10.7661 45.5968 11.1788 46.1597 11.1788C46.7204 11.1788 47.04 10.7632 47.04 10.0491H47.0399Z" fill="white"/>
<path d="M48.3879 10.7632C48.3879 10.1725 48.8277 9.83198 49.6083 9.78359L50.4972 9.73235V9.44912C50.4972 9.10255 50.268 8.90685 49.8254 8.90685C49.4639 8.90685 49.2134 9.03957 49.1415 9.27157H48.5146C48.5807 8.70795 49.1109 8.34644 49.8553 8.34644C50.6779 8.34644 51.1419 8.75598 51.1419 9.44912V11.6911H50.5185V11.23H50.4673C50.3633 11.3954 50.2173 11.5303 50.0441 11.6208C49.8709 11.7113 49.6769 11.7542 49.4817 11.7452C49.3439 11.7595 49.2047 11.7448 49.073 11.7021C48.9412 11.6593 48.8199 11.5894 48.7169 11.4969C48.6138 11.4043 48.5313 11.2912 48.4746 11.1649C48.418 11.0385 48.3884 10.9017 48.3879 10.7632ZM50.4972 10.4828V10.2084L49.6959 10.2597C49.244 10.2899 49.039 10.4436 49.039 10.7329C49.039 11.0282 49.2952 11.2001 49.6475 11.2001C49.7507 11.2106 49.855 11.2001 49.9541 11.1695C50.0532 11.1388 50.1451 11.0885 50.2244 11.0216C50.3037 10.9546 50.3687 10.8724 50.4155 10.7799C50.4624 10.6873 50.4902 10.5863 50.4972 10.4828Z" fill="white"/>
<path d="M51.993 10.049C51.993 9.01215 52.5261 8.35531 53.3551 8.35531C53.5602 8.34586 53.7637 8.39498 53.9419 8.49692C54.1201 8.59886 54.2656 8.74942 54.3614 8.931H54.4098V7.12878H55.0574V11.6911H54.4368V11.1727H54.3856C54.2824 11.353 54.1318 11.5017 53.9502 11.6026C53.7686 11.7035 53.5628 11.7528 53.3551 11.7452C52.5204 11.7452 51.993 11.0884 51.993 10.049ZM52.662 10.049C52.662 10.745 52.9901 11.1638 53.5388 11.1638C54.0846 11.1638 54.4219 10.739 54.4219 10.0519C54.4219 9.36797 54.081 8.93707 53.5388 8.93707C52.9936 8.93707 52.662 9.35872 52.662 10.049H52.662Z" fill="white"/>
<path d="M57.7366 10.049C57.716 9.83336 57.7407 9.61579 57.8091 9.41024C57.8774 9.20469 57.988 9.0157 58.1337 8.85539C58.2794 8.69509 58.457 8.56701 58.6551 8.47936C58.8532 8.39171 59.0675 8.34644 59.2841 8.34644C59.5007 8.34644 59.715 8.39171 59.9131 8.47936C60.1112 8.56701 60.2888 8.69509 60.4345 8.85539C60.5802 9.0157 60.6907 9.20469 60.7591 9.41024C60.8275 9.61579 60.8522 9.83336 60.8316 10.049C60.8526 10.2649 60.8282 10.4827 60.76 10.6886C60.6918 10.8945 60.5813 11.0838 60.4355 11.2445C60.2898 11.4051 60.1121 11.5334 59.9138 11.6213C59.7155 11.7091 59.501 11.7545 59.2841 11.7545C59.0672 11.7545 58.8527 11.7091 58.6544 11.6213C58.4561 11.5334 58.2784 11.4051 58.1326 11.2445C57.9869 11.0838 57.8764 10.8945 57.8082 10.6886C57.74 10.4827 57.7156 10.2649 57.7366 10.049ZM60.1655 10.049C60.1655 9.33772 59.8459 8.92177 59.2852 8.92177C58.7223 8.92177 58.4056 9.33772 58.4056 10.049C58.4056 10.766 58.7223 11.1787 59.2852 11.1787C59.8459 11.1787 60.1655 10.7631 60.1655 10.049Z" fill="white"/>
<path d="M61.7007 8.40959H62.3241V8.93086H62.3725C62.4546 8.74364 62.5931 8.58669 62.7686 8.4819C62.9441 8.37711 63.148 8.32968 63.3518 8.34625C63.5114 8.33424 63.6717 8.35832 63.8208 8.41668C63.9699 8.47505 64.104 8.56622 64.2131 8.68343C64.3221 8.80064 64.4034 8.94089 64.451 9.09379C64.4985 9.24669 64.511 9.40832 64.4875 9.56671V11.6909H63.8399V9.72933C63.8399 9.20201 63.6108 8.93976 63.1319 8.93976C63.0235 8.93471 62.9152 8.95316 62.8146 8.99385C62.714 9.03453 62.6234 9.09649 62.549 9.17547C62.4746 9.25445 62.4181 9.34859 62.3835 9.45144C62.3488 9.55428 62.3369 9.6634 62.3483 9.77131V11.691H61.7007V8.40959Z" fill="white"/>
<path d="M68.1466 7.59277V8.42468H68.8575V8.97016H68.1466V10.6575C68.1466 11.0012 68.2882 11.1517 68.6106 11.1517C68.6931 11.1514 68.7756 11.1464 68.8575 11.1367V11.6762C68.7412 11.697 68.6234 11.708 68.5053 11.7093C67.7851 11.7093 67.4983 11.4559 67.4983 10.8233V8.97013H66.9774V8.42465H67.4983V7.59277H68.1466Z" fill="white"/>
<path d="M69.7423 7.12878H70.3842V8.93707H70.4354C70.5215 8.74809 70.6638 8.59026 70.8428 8.48507C71.0219 8.37988 71.229 8.33246 71.436 8.34925C71.5948 8.34061 71.7536 8.36713 71.901 8.42691C72.0484 8.4867 72.1808 8.57828 72.2887 8.69512C72.3967 8.81196 72.4775 8.95118 72.5254 9.10286C72.5734 9.25453 72.5872 9.41491 72.5661 9.57256V11.6911H71.9178V9.73232C71.9178 9.20819 71.6737 8.94275 71.2161 8.94275C71.1048 8.93362 70.9929 8.94892 70.8881 8.98759C70.7833 9.02625 70.6883 9.08733 70.6096 9.16657C70.5309 9.24581 70.4705 9.34129 70.4325 9.44633C70.3946 9.55136 70.38 9.66342 70.3899 9.77466V11.6911H69.7423L69.7423 7.12878Z" fill="white"/>
<path d="M76.3418 10.8052C76.2538 11.1051 76.0632 11.3645 75.8032 11.5381C75.5433 11.7116 75.2306 11.7882 74.9199 11.7545C74.7037 11.7602 74.4889 11.7188 74.2903 11.6332C74.0917 11.5475 73.9142 11.4197 73.77 11.2586C73.6257 11.0974 73.5183 10.9068 73.4551 10.7C73.392 10.4932 73.3746 10.2751 73.4041 10.0608C73.3753 9.84595 73.3931 9.62738 73.4561 9.41993C73.5191 9.21249 73.626 9.021 73.7694 8.85844C73.9129 8.69589 74.0896 8.56605 74.2876 8.47772C74.4856 8.3894 74.7003 8.34464 74.9171 8.34649C75.8301 8.34649 76.3809 8.97027 76.3809 10.0007V10.2267H74.0638V10.2629C74.0537 10.3834 74.0688 10.5046 74.1083 10.6188C74.1477 10.733 74.2106 10.8377 74.2928 10.9263C74.3751 11.0148 74.475 11.0851 74.586 11.1328C74.6971 11.1804 74.8169 11.2043 74.9377 11.203C75.0926 11.2216 75.2496 11.1937 75.3886 11.1229C75.5276 11.052 75.6424 10.9414 75.7184 10.8052L76.3418 10.8052ZM74.0638 9.74771H75.7212C75.7294 9.63758 75.7144 9.52696 75.6773 9.42296C75.6401 9.31896 75.5817 9.22387 75.5056 9.14382C75.4295 9.06376 75.3376 9.00051 75.2356 8.95811C75.1336 8.91572 75.0239 8.89513 74.9135 8.89766C74.8015 8.89625 74.6903 8.91728 74.5866 8.95951C74.4828 9.00173 74.3886 9.0643 74.3094 9.14352C74.2302 9.22274 74.1677 9.31701 74.1255 9.42078C74.0833 9.52455 74.0624 9.63571 74.0638 9.74771H74.0638Z" fill="white"/>
</g>
<defs>
<clipPath id="clip0_8_1379">
<rect width="87.2016" height="29.1488" fill="white" transform="translate(0 0.980347)"/>
</clipPath>
</defs>
</svg>
