<svg width="13" height="12" viewBox="0 0 13 12" fill="none" xmlns="http://www.w3.org/2000/svg">
<g clip-path="url(#clip0_13_76)">
<path d="M2.4377 4.67226C2.58284 4.85368 2.6917 5.07139 2.76427 5.28911C2.83684 5.50682 2.87312 5.76081 2.87312 6.01481C2.87312 6.26881 2.83684 6.5228 2.76427 6.74051C2.6917 6.95823 2.58284 7.17594 2.4377 7.35736C2.25628 7.61136 2.29256 7.97421 2.54656 8.15564C2.80055 8.33707 3.16341 8.30078 3.34483 8.04678C3.56254 7.7565 3.70769 7.46622 3.85283 7.10337C3.99797 6.74051 4.03425 6.37766 4.03425 6.01481C4.03425 5.65196 3.96168 5.28911 3.85283 4.92625C3.74397 4.59969 3.56254 4.27312 3.34483 3.98284C3.16341 3.72884 2.80055 3.69255 2.54656 3.87398C2.29256 4.05541 2.25628 4.41826 2.4377 4.67226Z" fill="#FAFAFA"/>
<path d="M4.43339 3.61998C4.86881 4.3094 5.12281 5.14396 5.12281 6.01481C5.12281 6.88565 4.86881 7.72021 4.43339 8.40963C4.25196 8.66363 4.36082 9.02648 4.61482 9.20791C4.9051 9.38934 5.23167 9.28048 5.41309 9.02648C5.95737 8.15564 6.28394 7.13965 6.28394 6.01481C6.28394 4.92625 5.95737 3.87398 5.41309 3.00313C5.23167 2.74914 4.86881 2.64028 4.61482 2.82171C4.36082 3.00313 4.25196 3.3297 4.43339 3.61998Z" fill="#FAFAFA"/>
<path d="M6.53793 2.53143C7.15478 3.54741 7.48135 4.74483 7.48135 6.01481C7.48135 7.28479 7.11849 8.48221 6.53793 9.49819C6.39279 9.78848 6.46536 10.115 6.75564 10.2965C7.04592 10.4416 7.37249 10.369 7.55392 10.0788C8.27962 8.88134 8.67876 7.5025 8.67876 6.01481C8.67876 4.52711 8.27962 3.14827 7.55392 1.95086C7.40878 1.66058 7.04592 1.58801 6.75564 1.73315C6.46536 1.91458 6.39279 2.24114 6.53793 2.53143Z" fill="#FAFAFA"/>
<path d="M8.64246 1.44287C9.40445 2.78542 9.87616 4.34569 9.87616 6.01481C9.87616 7.68393 9.44074 9.2442 8.64246 10.5868C8.49732 10.877 8.56989 11.2036 8.86017 11.385C9.15045 11.5302 9.47702 11.4576 9.65845 11.1673C10.5293 9.64333 11.0373 7.90164 11.0373 6.01481C11.0373 4.12798 10.5293 2.38628 9.65845 0.862303C9.51331 0.572021 9.15045 0.499451 8.86017 0.644592C8.56989 0.789733 8.49732 1.15259 8.64246 1.44287Z" fill="#FAFAFA"/>
</g>
<defs>
<clipPath id="clip0_13_76">
<rect width="11.6113" height="11.6113" fill="white" transform="translate(0.87738 0.209229)"/>
</clipPath>
</defs>
</svg>
