<svg width="152" height="10" viewBox="0 0 152 10" fill="none" xmlns="http://www.w3.org/2000/svg">
<path d="M3.84562 8.16346V0.574341H1.08085C0.789821 0.574341 0.521179 0.731048 0.521179 1.13401C0.521179 1.53697 0.789821 1.69368 1.08085 1.69368H2.72628V8.16346H1.08085C0.789821 8.16346 0.521179 8.32017 0.521179 8.72313C0.521179 9.12609 0.789821 9.2828 1.08085 9.2828H5.49104C5.78207 9.2828 6.05071 9.12609 6.05071 8.72313V5.9024C6.05071 5.57779 5.9052 5.34273 5.49104 5.34273C5.07689 5.34273 4.93138 5.57779 4.93138 5.9024V8.16346H3.84562Z" fill="#FAFAFA"/>
<path d="M9.6967 5.48824H12.8532C13.2226 5.48824 13.4801 5.43227 13.7599 5.17483C14.0733 4.8838 14.1069 4.58158 14.1069 4.17861V1.88397C14.1069 1.48101 14.0733 1.17878 13.7599 0.887756C13.4801 0.630308 13.2226 0.574341 12.8532 0.574341H9.13703C8.846 0.574341 8.57736 0.731048 8.57736 1.13401C8.57736 1.53697 8.846 1.69368 9.13703 1.69368H12.9876V4.3689H9.84221C9.00271 4.3689 8.57736 4.79425 8.57736 5.63375V9.2828H13.5472C13.8383 9.2828 14.1069 9.12609 14.1069 8.72313C14.1069 8.32017 13.8383 8.16346 13.5472 8.16346H9.6967V5.48824Z" fill="#FAFAFA"/>
<path d="M21.0437 1.69368V3.55178C21.0437 4.17861 20.7975 4.3689 20.4841 4.3689H18.2902C17.9991 4.3689 17.7305 4.52561 17.7305 4.92857C17.7305 5.33153 17.9991 5.48824 18.2902 5.48824H20.4841C20.7975 5.48824 21.0437 5.67853 21.0437 6.30536V8.16346H17.1932C16.9022 8.16346 16.6335 8.32017 16.6335 8.72313C16.6335 9.12609 16.9022 9.2828 17.1932 9.2828H21.0437C21.6818 9.2828 22.1631 8.80148 22.1631 8.16346V6.01433C22.1631 5.56659 22.0735 5.24199 21.7265 4.92857C22.0735 4.61516 22.1631 4.29055 22.1631 3.84281V1.69368C22.1631 1.05566 21.6818 0.574341 21.0437 0.574341H17.1932C16.9022 0.574341 16.6335 0.731048 16.6335 1.13401C16.6335 1.53697 16.9022 1.69368 17.1932 1.69368H21.0437Z" fill="#FAFAFA"/>
<path d="M26.3687 5.32034V1.13401C26.3687 0.854176 26.2344 0.574341 25.8091 0.574341C25.3837 0.574341 25.2494 0.854176 25.2494 1.13401V6.43968H28.5402V8.72313C28.5402 9.08132 28.697 9.2828 29.0999 9.2828C29.5029 9.2828 29.6596 9.08132 29.6596 8.72313V6.43968C29.9506 6.43968 30.2193 6.28297 30.2193 5.88001C30.2193 5.47705 29.9506 5.32034 29.6596 5.32034V2.08545C29.6596 1.80561 29.5253 1.52578 29.0999 1.52578C28.6746 1.52578 28.5402 1.80561 28.5402 2.08545V5.32034H26.3687Z" fill="#FAFAFA"/>
<path d="M43.0296 1.69368H45.7719C46.063 1.69368 46.3316 1.53697 46.3316 1.13401C46.3316 0.731048 46.063 0.574341 45.7719 0.574341H41.9102V5.48824H45.2123V8.16346H42.6266C42.4475 8.16346 42.1901 8.00675 42.0334 7.93959L41.6976 7.79408C41.5744 7.73811 41.4737 7.70453 41.3394 7.70453C41.0483 7.70453 40.8021 7.97317 40.8021 8.2642C40.8021 8.65597 41.1379 8.75671 41.4401 8.89103L41.8655 9.08132C42.1453 9.20445 42.3132 9.2828 42.6042 9.2828H45.0891C45.4921 9.2828 45.7831 9.23803 46.063 8.90222C46.298 8.62239 46.3316 8.37614 46.3316 8.02914V5.63375C46.3316 5.24199 46.298 4.97334 45.9846 4.68232C45.716 4.42487 45.4473 4.3689 45.0891 4.3689H43.0296V1.69368Z" fill="#FAFAFA"/>
<path d="M49.9776 1.69368C50.3022 1.69368 50.5373 1.46981 50.5373 1.13401C50.5373 0.842983 50.3022 0.574341 50.0112 0.574341H49.3396C48.9478 0.574341 48.8583 0.876563 48.8583 1.13401V8.57762C48.8583 9.09251 49.0597 9.2828 49.5858 9.2828H53.6602C54.1639 9.2828 54.3878 9.10371 54.3878 8.57762V6.0703C54.3878 5.5554 54.2759 5.32034 53.7162 5.32034H49.9776V1.69368ZM53.2685 6.43968V8.16346H49.9776V6.43968H53.2685Z" fill="#FAFAFA"/>
<path d="M61.3246 1.69368V3.23837C61.3246 3.73088 61.347 3.71968 60.9776 4.04429L59.433 5.37631C59.1531 5.62256 59.1419 5.65614 59.1419 6.02552V8.72313C59.1419 9.08132 59.2986 9.2828 59.7016 9.2828C60.1046 9.2828 60.2613 9.08132 60.2613 8.72313V6.55161C60.2613 6.15984 60.2837 6.13746 60.5747 5.88001L62.1418 4.52561C62.4552 4.25697 62.444 4.21219 62.444 3.82043V0.574341H57.4741C57.1159 0.574341 56.9144 0.887756 56.9144 1.13401V1.69368C56.9144 1.93994 57.1159 2.25335 57.4741 2.25335C57.8323 2.25335 58.0338 1.93994 58.0338 1.69368H61.3246Z" fill="#FAFAFA"/>
<path d="M67.2093 4.3689V1.69368H68.2615V4.3689H67.2093ZM66.6496 0.574341C66.2691 0.574341 66.09 0.842983 66.09 1.13401V4.3689C65.743 4.3689 65.4743 4.49203 65.2728 4.68232C65.0714 4.8726 64.9706 5.15244 64.9706 5.49943V8.16346C64.9706 8.84626 65.396 9.2828 66.09 9.2828H69.3808C70.0748 9.2828 70.5002 8.84626 70.5002 8.16346V5.49943C70.5002 5.15244 70.3994 4.8726 70.1979 4.68232C69.9965 4.49203 69.7278 4.3689 69.3808 4.3689V1.13401C69.3808 0.842983 69.2017 0.574341 68.8212 0.574341H66.6496ZM66.09 8.16346V5.48824H69.3808V8.16346H66.09Z" fill="#FAFAFA"/>
<path d="M85.4932 8.16346C85.1686 8.16346 84.9335 8.38733 84.9335 8.72313C84.9335 9.02535 85.1574 9.2828 85.4932 9.2828H86.0528C86.3886 9.2828 86.6125 9.02535 86.6125 8.72313V1.13401C86.6125 0.842983 86.3663 0.574341 86.0528 0.574341H81.6427C81.3292 0.574341 81.083 0.842983 81.083 1.13401V3.99952C81.083 4.29055 81.3292 4.55919 81.6427 4.55919H85.4932V8.16346ZM82.2023 3.43985V1.69368H85.4932V3.43985H82.2023Z" fill="#FAFAFA"/>
<path d="M90.2585 0.574341C89.6429 0.574341 89.1392 1.07804 89.1392 1.69368V8.16346C89.1392 8.79029 89.6205 9.2828 90.2585 9.2828H93.5494C94.1874 9.2828 94.6687 8.79029 94.6687 8.16346V1.69368C94.6687 1.07804 94.165 0.574341 93.5494 0.574341H90.2585ZM90.2585 8.16346V1.69368H93.5494V8.16346H90.2585Z" fill="#FAFAFA"/>
<path d="M98.3147 0.574341C97.699 0.574341 97.1953 1.07804 97.1953 1.69368V8.16346C97.1953 8.79029 97.6767 9.2828 98.3147 9.2828H101.606C102.244 9.2828 102.725 8.79029 102.725 8.16346V1.69368C102.725 1.07804 102.221 0.574341 101.606 0.574341H98.3147ZM98.3147 8.16346V1.69368H101.606V8.16346H98.3147Z" fill="#FAFAFA"/>
<path d="M106.371 0.574341C105.755 0.574341 105.252 1.07804 105.252 1.69368V8.16346C105.252 8.79029 105.733 9.2828 106.371 9.2828H109.662C110.3 9.2828 110.781 8.79029 110.781 8.16346V1.69368C110.781 1.07804 110.277 0.574341 109.662 0.574341H106.371ZM106.371 8.16346V1.69368H109.662V8.16346H106.371Z" fill="#FAFAFA"/>
<path d="M122.483 0.574341C121.868 0.574341 121.364 1.07804 121.364 1.69368V8.16346C121.364 8.79029 121.845 9.2828 122.483 9.2828H125.774C126.412 9.2828 126.893 8.79029 126.893 8.16346V1.69368C126.893 1.07804 126.39 0.574341 125.774 0.574341H122.483ZM122.483 8.16346V1.69368H125.774V8.16346H122.483Z" fill="#FAFAFA"/>
<path d="M130.539 0.574341C129.924 0.574341 129.42 1.07804 129.42 1.69368V8.16346C129.42 8.79029 129.901 9.2828 130.539 9.2828H133.83C134.468 9.2828 134.95 8.79029 134.95 8.16346V1.69368C134.95 1.07804 134.446 0.574341 133.83 0.574341H130.539ZM130.539 8.16346V1.69368H133.83V8.16346H130.539Z" fill="#FAFAFA"/>
<path d="M138.596 0.574341C137.98 0.574341 137.476 1.07804 137.476 1.69368V8.16346C137.476 8.79029 137.958 9.2828 138.596 9.2828H141.886C142.524 9.2828 143.006 8.79029 143.006 8.16346V1.69368C143.006 1.07804 142.502 0.574341 141.886 0.574341H138.596ZM138.596 8.16346V1.69368H141.886V8.16346H138.596Z" fill="#FAFAFA"/>
<path d="M146.652 0.574341C146.036 0.574341 145.532 1.07804 145.532 1.69368V8.16346C145.532 8.79029 146.014 9.2828 146.652 9.2828H149.943C150.581 9.2828 151.062 8.79029 151.062 8.16346V1.69368C151.062 1.07804 150.558 0.574341 149.943 0.574341H146.652ZM146.652 8.16346V1.69368H149.943V8.16346H146.652Z" fill="#FAFAFA"/>
</svg>
