<svg width="30" height="10" viewBox="0 0 30 10" fill="none" xmlns="http://www.w3.org/2000/svg">
<path d="M27.8854 0.559204H26.0279C25.4663 0.559204 25.0344 0.731991 24.7752 1.29355L21.2331 9.37134H23.7385C23.7385 9.37134 24.1704 8.29142 24.2568 8.03224C24.516 8.03224 26.9782 8.03224 27.3238 8.03224C27.4102 8.33462 27.6262 9.32814 27.6262 9.32814H29.8724L27.8854 0.559204ZM24.948 6.21798C25.164 5.69962 25.8983 3.75576 25.8983 3.75576C25.8983 3.79896 26.1143 3.2374 26.2007 2.93502L26.3735 3.71257C26.3735 3.71257 26.8486 5.82921 26.935 6.26117H24.948V6.21798Z" fill="#FAFAFA"/>
<path d="M21.4057 6.47723C21.4057 8.29149 19.7642 9.501 17.2156 9.501C16.1357 9.501 15.099 9.28502 14.5374 9.02584L14.883 7.03879L15.1854 7.16838C15.9629 7.51395 16.4813 7.64354 17.4316 7.64354C18.1228 7.64354 18.8571 7.38436 18.8571 6.77961C18.8571 6.39084 18.5547 6.13166 17.6044 5.69969C16.6973 5.26772 15.4878 4.57657 15.4878 3.32387C15.4878 1.596 17.1724 0.429688 19.5483 0.429688C20.4554 0.429688 21.2329 0.602474 21.7081 0.818458L21.3625 2.71911L21.1897 2.54633C20.7578 2.37354 20.1962 2.20075 19.3755 2.20075C18.4683 2.24395 18.0364 2.63272 18.0364 2.97829C18.0364 3.36707 18.5547 3.66944 19.3755 4.05821C20.7578 4.70616 21.4057 5.44051 21.4057 6.47723Z" fill="#FAFAFA"/>
<path d="M0.325439 0.645809L0.368636 0.473022H4.08355C4.60192 0.473022 4.99069 0.645809 5.12028 1.20737L5.94101 5.09507C5.12028 3.02163 3.21962 1.33696 0.325439 0.645809Z" fill="#FAFAFA" fill-opacity="0.7"/>
<path d="M11.1679 0.559188L7.4098 9.32812H4.86119L2.70135 1.98468C4.25644 2.9782 5.55234 4.53329 6.0275 5.6132L6.28668 6.52034L8.61931 0.515991H11.1679V0.559188Z" fill="#FAFAFA"/>
<path d="M12.1616 0.515991H14.5375L13.0256 9.32812H10.6497L12.1616 0.515991Z" fill="#FAFAFA"/>
</svg>
