<svg width="100" height="31" viewBox="0 0 100 31" fill="none" xmlns="http://www.w3.org/2000/svg">
<g clip-path="url(#clip0_8_1414)">
<path fill-rule="evenodd" clip-rule="evenodd" d="M95.6667 30.2426H4.22475C2.20804 30.2426 0.565613 28.5934 0.565613 26.5849V4.63813C0.565613 2.62225 2.20804 0.980347 4.22475 0.980347H95.6667C97.6816 0.980347 99.3259 2.62225 99.3259 4.63813V26.5849C99.3259 28.5934 97.6816 30.2426 95.6667 30.2426Z" fill="black"/>
<path fill-rule="evenodd" clip-rule="evenodd" d="M95.6667 1.56596C97.3582 1.56596 98.7427 2.94698 98.7427 4.63813V26.5849C98.7427 28.276 97.3673 29.657 95.6667 29.657H4.22475C2.53326 29.657 1.14882 28.276 1.14882 26.5849V4.63813C1.14882 2.94698 2.52418 1.56596 4.22475 1.56596H95.6667ZM95.6667 0.980347H4.22475C2.20804 0.980347 0.565613 2.62954 0.565613 4.63813V26.5849C0.565613 28.6007 2.20804 30.2426 4.22475 30.2426H95.6667C97.6816 30.2426 99.3259 28.6007 99.3259 26.5849V4.63813C99.3259 2.62954 97.6816 0.980347 95.6667 0.980347Z" fill="black"/>
<path d="M52.5928 10.6603C51.9333 10.6603 51.3774 10.4286 50.9377 9.97253C50.5017 9.52922 50.2582 8.91807 50.2691 8.29414C50.2691 7.62826 50.4944 7.06454 50.9377 6.61758C51.3756 6.1615 51.9315 5.92981 52.591 5.92981C53.2433 5.92981 53.7992 6.1615 54.2462 6.61758C54.6895 7.07914 54.9148 7.64286 54.9148 8.29414C54.9075 8.96185 54.6822 9.52557 54.2462 9.97071C53.8083 10.4304 53.2524 10.6603 52.5928 10.6603ZM32.9692 10.6603C32.3242 10.6603 31.7646 10.4323 31.3068 9.98165C30.8526 9.53287 30.6218 8.9655 30.6218 8.29597C30.6218 7.62644 30.8526 7.05907 31.3068 6.61029C31.7555 6.15968 32.3151 5.93163 32.9692 5.93163C33.2889 5.93163 33.5996 5.99549 33.8976 6.12501C34.1901 6.25089 34.4281 6.42238 34.6043 6.63218L34.6479 6.68508L34.1556 7.17036L34.1047 7.11015C33.8267 6.77812 33.4543 6.61576 32.9619 6.61576C32.5222 6.61576 32.1389 6.77265 31.8228 7.08279C31.5048 7.39475 31.3431 7.8034 31.3431 8.29779C31.3431 8.79219 31.5048 9.20084 31.8228 9.5128C32.1389 9.82294 32.5222 9.97983 32.9619 9.97983C33.4307 9.97983 33.8249 9.82294 34.132 9.5128C34.3136 9.33037 34.4263 9.07496 34.4663 8.75205H32.8874V8.06975H35.1439L35.153 8.13178C35.1694 8.24671 35.1857 8.36529 35.1857 8.47475C35.1857 9.10415 34.9968 9.61314 34.6225 9.98895C34.1974 10.4341 33.6414 10.6603 32.9692 10.6603ZM59.0608 10.5636H58.3649L56.2338 7.13934L56.252 7.75597V10.5618H55.5561V6.02832H56.3501L56.3719 6.06299L58.3758 9.28841L58.3577 8.67361V6.02832H59.0608V10.5636ZM47.364 10.5636H46.659V6.71062H45.4363V6.02832H48.5849V6.71062H47.3622V10.5636H47.364ZM44.8622 10.5636H44.1591V6.02832H44.8622V10.5636ZM40.9106 10.5636H40.2075V6.71062H38.9847V6.02832H42.1333V6.71062H40.9106V10.5636ZM38.5396 10.5563H35.8434V6.02832H38.5396V6.71062H36.5483V7.95482H38.3452V8.62982H36.5483V9.87402H38.5396V10.5563ZM51.4537 9.50368C51.768 9.81929 52.1495 9.978 52.5928 9.978C53.0489 9.978 53.4213 9.82294 53.732 9.50368C54.0409 9.19354 54.1971 8.78671 54.1971 8.29597C54.1971 7.80522 54.0409 7.39657 53.7338 7.08826C53.4195 6.77265 53.0361 6.61393 52.5947 6.61393C52.1386 6.61393 51.7662 6.769 51.4573 7.08826C51.1485 7.3984 50.9922 7.80522 50.9922 8.29597C50.9922 8.78671 51.1466 9.19536 51.4537 9.50368Z" fill="white"/>
<path fill-rule="evenodd" clip-rule="evenodd" d="M50.2038 16.896C48.4869 16.896 47.0952 18.204 47.0952 20.0083C47.0952 21.7961 48.496 23.1206 50.2038 23.1206C51.9207 23.1206 53.3124 21.8034 53.3124 20.0083C53.3124 18.204 51.9207 16.896 50.2038 16.896ZM50.2038 21.8873C49.2645 21.8873 48.456 21.1065 48.456 20.001C48.456 18.879 49.2663 18.1146 50.2038 18.1146C51.1431 18.1146 51.9516 18.879 51.9516 20.001C51.9534 21.1138 51.1431 21.8873 50.2038 21.8873ZM43.4215 16.896C41.7046 16.896 40.3129 18.204 40.3129 20.0083C40.3129 21.7961 41.7137 23.1206 43.4215 23.1206C45.1384 23.1206 46.5301 21.8034 46.5301 20.0083C46.5301 18.204 45.1366 16.896 43.4215 16.896ZM43.4215 21.8873C42.4822 21.8873 41.6737 21.1065 41.6737 20.001C41.6737 18.879 42.484 18.1146 43.4215 18.1146C44.3608 18.1146 45.1693 18.879 45.1693 20.001C45.1693 21.1138 44.3608 21.8873 43.4215 21.8873ZM35.351 17.8464V19.1636H38.4996C38.4034 19.9025 38.1599 20.4479 37.7874 20.8219C37.326 21.2853 36.6138 21.7888 35.3583 21.7888C33.4234 21.7888 31.9099 20.2199 31.9099 18.277C31.9099 16.3341 33.4234 14.7651 35.3583 14.7651C36.403 14.7651 37.1643 15.1793 37.7293 15.7083L38.6595 14.7743C37.8747 14.019 36.83 13.4407 35.3656 13.4407C32.7112 13.4407 30.4837 15.6116 30.4837 18.2697C30.4837 20.935 32.7093 23.0987 35.3656 23.0987C36.7991 23.0987 37.8747 22.628 38.7249 21.7414C39.5916 20.8712 39.8659 19.6434 39.8659 18.6528C39.8659 18.3445 39.8423 18.0672 39.7933 17.8318H35.3492C35.351 17.83 35.351 17.8464 35.351 17.8464ZM68.3614 18.8717C68.1016 18.173 67.3167 16.8887 65.707 16.8887C64.1118 16.8887 62.7855 18.1493 62.7855 20.001C62.7855 21.7487 64.0973 23.1133 65.8614 23.1133C67.2786 23.1133 68.1034 22.2431 68.4432 21.7323L67.3912 21.0244C67.0424 21.5444 66.5573 21.8855 65.8687 21.8855C65.1728 21.8855 64.6859 21.5681 64.3625 20.9423L68.5068 19.2183C68.5068 19.2202 68.3614 18.8717 68.3614 18.8717ZM64.1354 19.9116C64.1027 18.7093 65.0656 18.0982 65.7542 18.0982C66.2975 18.0982 66.7499 18.3664 66.9043 18.7568L64.1354 19.9116ZM60.7688 22.9272H62.1296V13.7836H60.7688V22.9272ZM58.5341 17.5874H58.485C58.178 17.2207 57.5948 16.8887 56.8498 16.8887C55.3037 16.8887 53.8793 18.2551 53.8793 20.0101C53.8793 21.7578 55.2964 23.1078 56.8498 23.1078C57.5857 23.1078 58.178 22.774 58.485 22.4H58.5341V22.8469C58.5341 24.0346 57.9018 24.6749 56.8825 24.6749C56.0486 24.6749 55.5308 24.0729 55.3201 23.5694L54.1373 24.0656C54.477 24.8865 55.3836 25.9027 56.8807 25.9027C58.4759 25.9027 59.8277 24.9595 59.8277 22.659V17.0747H58.5413V17.5874C58.5431 17.5874 58.5341 17.5874 58.5341 17.5874ZM56.9716 21.8873C56.0323 21.8873 55.2474 21.0992 55.2474 20.0101C55.2474 18.9118 56.0323 18.1164 56.9716 18.1164C57.9018 18.1164 58.6231 18.921 58.6231 20.0101C58.6322 21.0992 57.9036 21.8873 56.9716 21.8873ZM74.7331 13.7836H71.4791V22.9272H72.84V19.4646H74.7349C76.2411 19.4646 77.7218 18.3682 77.7218 16.6278C77.7218 14.8874 76.2465 13.7836 74.7331 13.7836ZM74.7731 18.1876H72.8381V15.0497H74.7731C75.7923 15.0497 76.3683 15.8944 76.3683 16.6187C76.3683 17.3356 75.7851 18.1876 74.7731 18.1876ZM83.176 16.8795C82.1876 16.8795 81.1684 17.3192 80.7469 18.277L81.9533 18.7805C82.2131 18.277 82.6891 18.1055 83.1924 18.1055C83.8973 18.1055 84.6095 18.5287 84.6259 19.284V19.3807C84.3824 19.242 83.8483 19.0304 83.2087 19.0304C81.906 19.0304 80.5852 19.7456 80.5852 21.0864C80.5852 22.3142 81.6535 23.1023 82.8435 23.1023C83.7574 23.1023 84.2607 22.6882 84.575 22.2084H84.624V22.9163H85.9358V19.4135C85.9358 17.7826 84.7294 16.8795 83.176 16.8795ZM83.0052 21.8873C82.5601 21.8873 81.9369 21.6684 81.9369 21.1065C81.9369 20.3987 82.7145 20.1305 83.3777 20.1305C83.9772 20.1305 84.2607 20.26 84.6168 20.4388C84.5187 21.2598 83.8283 21.88 83.0052 21.8873ZM90.7214 17.0747L89.1589 21.0408H89.1098L87.491 17.0747H86.0266L88.4558 22.6189L87.0713 25.7002H88.4885L92.2257 17.0747H90.7214ZM78.4722 22.9272H79.833V13.7836H78.4722V22.9272Z" fill="white"/>
<path fill-rule="evenodd" clip-rule="evenodd" d="M8.16744 6.49152C7.95669 6.71956 7.83496 7.06801 7.83496 7.52409V23.7004C7.83496 24.1565 7.95669 24.505 8.17471 24.7239L8.23103 24.7732L17.2571 15.7099V15.5074L8.22377 6.44226L8.16744 6.49152Z" fill="url(#paint0_linear_8_1414)"/>
<path fill-rule="evenodd" clip-rule="evenodd" d="M20.26 18.7404L17.2495 15.7175V15.5058L20.26 12.4829L20.3254 12.523L23.8864 14.5554C24.9057 15.1318 24.9057 16.0841 23.8864 16.6679L20.3254 18.7002L20.26 18.7404Z" fill="url(#paint1_linear_8_1414)"/>
<path fill-rule="evenodd" clip-rule="evenodd" d="M20.3258 18.7L17.2498 15.6115L8.16742 24.7313C8.4999 25.0889 9.05768 25.129 9.68085 24.7805L20.3258 18.7Z" fill="url(#paint2_linear_8_1414)"/>
<path fill-rule="evenodd" clip-rule="evenodd" d="M20.3258 12.523L9.68085 6.4516C9.05768 6.09403 8.49809 6.14329 8.16742 6.50086L17.2498 15.6116L20.3258 12.523Z" fill="url(#paint3_linear_8_1414)"/>
<path opacity="0.2" fill-rule="evenodd" clip-rule="evenodd" d="M20.2603 18.6344L9.688 24.6656C9.09752 25.0068 8.57064 24.9831 8.23088 24.6729L8.17456 24.7295L8.23088 24.7787C8.57064 25.087 9.09752 25.1126 9.688 24.7714L20.333 18.7001L20.2603 18.6344Z" fill="black"/>
<path opacity="0.12" fill-rule="evenodd" clip-rule="evenodd" d="M23.8865 16.5619L20.251 18.6344L20.3164 18.7L23.8774 16.6677C24.3879 16.3758 24.6387 15.9927 24.6387 15.6115C24.6078 15.9617 24.348 16.2937 23.8865 16.5619Z" fill="black"/>
<path opacity="0.25" fill-rule="evenodd" clip-rule="evenodd" d="M9.68088 6.55743L23.8868 14.6611C24.3483 14.922 24.6081 15.2631 24.6481 15.6116C24.6481 15.2303 24.3974 14.8472 23.8868 14.5553L9.68088 6.45162C8.66163 5.86601 7.83496 6.35493 7.83496 7.52432V7.63014C7.83496 6.45891 8.66163 5.97911 9.68088 6.55743Z" fill="white"/>
</g>
<defs>
<linearGradient id="paint0_linear_8_1414" x1="16.4475" y1="7.34956" x2="1.9814" y2="11.1883" gradientUnits="userSpaceOnUse">
<stop stop-color="#00A0FF"/>
<stop offset="0.00657" stop-color="#00A1FF"/>
<stop offset="0.2601" stop-color="#00BEFF"/>
<stop offset="0.5122" stop-color="#00D2FF"/>
<stop offset="0.7604" stop-color="#00DFFF"/>
<stop offset="1" stop-color="#00E3FF"/>
</linearGradient>
<linearGradient id="paint1_linear_8_1414" x1="25.2156" y1="15.6117" x2="7.58676" y2="15.6117" gradientUnits="userSpaceOnUse">
<stop stop-color="#FFE000"/>
<stop offset="0.4087" stop-color="#FFBD00"/>
<stop offset="0.7754" stop-color="#FFA500"/>
<stop offset="1" stop-color="#FF9C00"/>
</linearGradient>
<linearGradient id="paint2_linear_8_1414" x1="18.6532" y1="17.2921" x2="6.97552" y2="36.866" gradientUnits="userSpaceOnUse">
<stop stop-color="#FF3A44"/>
<stop offset="1" stop-color="#C31162"/>
</linearGradient>
<linearGradient id="paint3_linear_8_1414" x1="5.88036" y1="1.11123" x2="11.0903" y2="9.85326" gradientUnits="userSpaceOnUse">
<stop stop-color="#32A071"/>
<stop offset="0.0685" stop-color="#2DA771"/>
<stop offset="0.4762" stop-color="#15CF74"/>
<stop offset="0.8009" stop-color="#06E775"/>
<stop offset="1" stop-color="#00F076"/>
</linearGradient>
<clipPath id="clip0_8_1414">
<rect width="98.7602" height="29.2623" fill="white" transform="translate(0.565613 0.980347)"/>
</clipPath>
</defs>
</svg>
