<svg width="344" height="277" viewBox="0 0 344 277" fill="none" xmlns="http://www.w3.org/2000/svg">
<g opacity="0.85">
<g filter="url(#filter0_d_1_604)">
<path d="M232.658 76.7619C274.259 97.3207 270.405 140.611 229.975 158.144C188.374 178.703 120.926 178.703 79.3248 158.144C36.8467 138.281 34.9888 97.7869 76.5896 77.228C118.191 56.6692 191.057 56.203 232.658 76.7619Z" fill="#1864F8"/>
</g>
<circle cx="84.0212" cy="84.0212" r="83.1669" transform="matrix(0.8965 -0.443043 0.8965 0.443043 4 112.219)" fill="#3383FF" stroke="url(#paint0_linear_1_604)" stroke-width="1.70855"/>
<g filter="url(#filter1_d_1_604)">
<path d="M131.375 121.013C66.0978 95.3226 88.2101 58.541 107.426 43.3615C126.359 44.6314 173.932 47.6069 212.76 49.3486C261.294 51.5257 263.413 117.021 241.371 124.46C219.33 131.899 222.933 134.076 131.375 121.013Z" fill="#337EFF"/>
</g>
<g filter="url(#filter2_b_1_604)">
<path d="M267.937 119.765L267.922 119.771L267.907 119.779C247.223 130.001 220.068 135.129 192.877 135.129C165.686 135.129 138.531 130.001 117.847 119.779L117.84 119.775L117.834 119.772C96.7333 109.906 85.8809 94.9966 85.3193 80.1526C84.7583 65.3217 94.4607 50.2607 115.111 40.0553C135.793 29.8348 164.301 24.5882 192.854 24.4719C221.407 24.3556 249.912 29.3702 270.59 39.5891C291.215 49.7815 300.441 65.5277 299.641 80.7836C298.84 96.0555 287.981 111.072 267.937 119.765Z" fill="white" fill-opacity="0.5" stroke="url(#paint1_linear_1_604)" stroke-width="1.33024"/>
</g>
<g filter="url(#filter3_b_1_604)">
<circle cx="84.0212" cy="84.0212" r="83.1669" transform="matrix(0.8965 -0.443043 0.8965 0.443043 42.2273 74.4501)" fill="white" fill-opacity="0.5" stroke="url(#paint2_linear_1_604)" stroke-width="1.70855"/>
</g>
<g filter="url(#filter4_i_1_604)">
<path d="M188.589 88.7711C195.776 92.3228 207.112 92.4326 213.928 89.0639L227.857 82.1802C233.785 79.251 233.563 74.381 227.265 71.2687C220.522 67.9366 215.114 68.1929 209.186 69.5843L179.105 76.761C173.177 78.1524 167.843 78.4453 161.026 75.0767C154.803 72.0009 154.506 67.0945 160.433 64.1652L174.363 57.2814C181.179 53.9127 192.516 54.0225 199.703 57.5743" stroke="#337EFF" stroke-width="16.5276" stroke-linecap="round" stroke-linejoin="round"/>
<path d="M160.805 56.7322L227.488 89.6865" stroke="#337EFF" stroke-width="16.5276" stroke-linecap="round" stroke-linejoin="round"/>
</g>
</g>
<defs>
<filter id="filter0_d_1_604" x="0.842743" y="61.5739" width="306.845" height="214.502" filterUnits="userSpaceOnUse" color-interpolation-filters="sRGB">
<feFlood flood-opacity="0" result="BackgroundImageFix"/>
<feColorMatrix in="SourceAlpha" type="matrix" values="0 0 0 0 0 0 0 0 0 0 0 0 0 0 0 0 0 0 127 0" result="hardAlpha"/>
<feOffset dy="56.9517"/>
<feGaussianBlur stdDeviation="22.7807"/>
<feComposite in2="hardAlpha" operator="out"/>
<feColorMatrix type="matrix" values="0 0 0 0 0.343982 0 0 0 0 0.567028 0 0 0 0 1 0 0 0 0.5 0"/>
<feBlend mode="normal" in2="BackgroundImageFix" result="effect1_dropShadow_1_604"/>
<feBlend mode="normal" in="SourceGraphic" in2="effect1_dropShadow_1_604" result="shape"/>
</filter>
<filter id="filter1_d_1_604" x="31.8416" y="23.4078" width="278.845" height="198.811" filterUnits="userSpaceOnUse" color-interpolation-filters="sRGB">
<feFlood flood-opacity="0" result="BackgroundImageFix"/>
<feColorMatrix in="SourceAlpha" type="matrix" values="0 0 0 0 0 0 0 0 0 0 0 0 0 0 0 0 0 0 127 0" result="hardAlpha"/>
<feOffset dy="35.9166"/>
<feGaussianBlur stdDeviation="27.9351"/>
<feComposite in2="hardAlpha" operator="out"/>
<feColorMatrix type="matrix" values="0 0 0 0 0.188235 0 0 0 0 0.220706 0 0 0 0 1 0 0 0 0.7 0"/>
<feBlend mode="normal" in2="BackgroundImageFix" result="effect1_dropShadow_1_604"/>
<feBlend mode="normal" in="SourceGraphic" in2="effect1_dropShadow_1_604" result="shape"/>
</filter>
<filter id="filter2_b_1_604" x="39.0698" y="-21.7565" width="306.845" height="203.112" filterUnits="userSpaceOnUse" color-interpolation-filters="sRGB">
<feFlood flood-opacity="0" result="BackgroundImageFix"/>
<feGaussianBlur in="BackgroundImageFix" stdDeviation="22.7807"/>
<feComposite in2="SourceAlpha" operator="in" result="effect1_backgroundBlur_1_604"/>
<feBlend mode="normal" in="SourceGraphic" in2="effect1_backgroundBlur_1_604" result="shape"/>
</filter>
<filter id="filter3_b_1_604" x="40.7903" y="-23.7554" width="304.174" height="196.411" filterUnits="userSpaceOnUse" color-interpolation-filters="sRGB">
<feFlood flood-opacity="0" result="BackgroundImageFix"/>
<feGaussianBlur in="BackgroundImageFix" stdDeviation="22.7807"/>
<feComposite in2="SourceAlpha" operator="in" result="effect1_backgroundBlur_1_604"/>
<feBlend mode="normal" in="SourceGraphic" in2="effect1_backgroundBlur_1_604" result="shape"/>
</filter>
<filter id="filter4_i_1_604" x="145.687" y="49.6519" width="96.9428" height="48.3717" filterUnits="userSpaceOnUse" color-interpolation-filters="sRGB">
<feFlood flood-opacity="0" result="BackgroundImageFix"/>
<feBlend mode="normal" in="SourceGraphic" in2="BackgroundImageFix" result="shape"/>
<feColorMatrix in="SourceAlpha" type="matrix" values="0 0 0 0 0 0 0 0 0 0 0 0 0 0 0 0 0 0 127 0" result="hardAlpha"/>
<feOffset dy="3.09244"/>
<feGaussianBlur stdDeviation="0.665122"/>
<feComposite in2="hardAlpha" operator="arithmetic" k2="-1" k3="1"/>
<feColorMatrix type="matrix" values="0 0 0 0 1 0 0 0 0 1 0 0 0 0 1 0 0 0 1 0"/>
<feBlend mode="normal" in2="shape" result="effect1_innerShadow_1_604"/>
</filter>
<linearGradient id="paint0_linear_1_604" x1="14.5603" y1="68.3524" x2="88.3344" y2="137.545" gradientUnits="userSpaceOnUse">
<stop stop-color="white" stop-opacity="0.43"/>
<stop offset="0.846595" stop-color="white" stop-opacity="0.44"/>
<stop offset="1" stop-color="white" stop-opacity="0"/>
</linearGradient>
<linearGradient id="paint1_linear_1_604" x1="103.323" y1="69.3572" x2="145.071" y2="144.782" gradientUnits="userSpaceOnUse">
<stop stop-color="white" stop-opacity="0"/>
<stop offset="0.846595" stop-color="white" stop-opacity="0.06"/>
<stop offset="1" stop-color="white" stop-opacity="0.23"/>
</linearGradient>
<linearGradient id="paint2_linear_1_604" x1="14.5603" y1="68.3524" x2="88.3344" y2="137.545" gradientUnits="userSpaceOnUse">
<stop stop-color="white" stop-opacity="0.43"/>
<stop offset="0.846595" stop-color="white" stop-opacity="0.44"/>
<stop offset="1" stop-color="white" stop-opacity="0"/>
</linearGradient>
</defs>
</svg>
