<svg width="332" height="336" viewBox="0 0 332 336" fill="none" xmlns="http://www.w3.org/2000/svg">
<g filter="url(#filter0_bd_1_619)">
<path d="M259.318 224.087C258.278 224.688 256.999 225.15 255.574 225.412L209.674 233.842C196.645 236.231 184.941 237.228 173.886 236.9C149.7 236.187 126.999 230.455 109.973 220.742L53.9118 188.789C42.2748 182.426 44.5177 166.795 48.552 161.957L86.05 131.295C88.1711 128.711 91.8335 126.578 96.327 125.295L170.78 103.899C179.104 101.498 189.053 102.369 195.508 106.057L251.61 138.034C268.62 147.727 280.077 148.834 281.628 162.775C283.812 176.421 279.504 187.845 275.533 195.366L261.555 221.912C261.127 222.739 260.35 223.482 259.318 224.087Z" fill="#05D536" shape-rendering="crispEdges"/>
<path d="M259.556 224.222L259.554 224.224C258.478 224.845 257.154 225.324 255.676 225.596L209.776 234.026L209.775 234.026C196.716 236.42 184.972 237.422 173.869 237.092C149.602 236.378 126.823 230.626 109.738 220.88C109.738 220.88 109.738 220.88 109.738 220.88L53.682 188.929C53.6811 188.928 53.6803 188.928 53.6794 188.927C47.7653 185.693 45.4117 180.13 45.0212 174.809C44.6303 169.485 46.2006 164.332 48.2508 161.873C48.2588 161.864 48.2682 161.854 48.2789 161.846L85.7603 131.197C87.916 128.58 91.6274 126.422 96.178 125.123C96.1783 125.123 96.1786 125.123 96.1788 125.122L170.63 103.726C179.078 101.29 189.183 102.172 195.743 105.919L259.556 224.222ZM259.556 224.222C260.625 223.595 261.431 222.825 261.875 221.967L275.852 195.422L259.556 224.222ZM251.845 137.897L195.743 105.919L275.852 195.422C279.832 187.887 284.149 176.438 281.962 162.76C281.181 155.753 277.904 151.947 272.662 148.68C270.066 147.063 266.992 145.579 263.529 143.908L263.473 143.881C259.982 142.196 256.087 140.314 251.845 137.897Z" stroke="url(#paint0_linear_1_619)" stroke-width="0.545846" stroke-linecap="round" stroke-linejoin="round" shape-rendering="crispEdges"/>
</g>
<g filter="url(#filter1_b_1_619)">
<mask id="path-3-outside-1_1_619" maskUnits="userSpaceOnUse" x="15.8245" y="70.5469" width="317.838" height="183.488" fill="black">
<rect fill="white" x="15.8245" y="70.5469" width="317.838" height="183.488"/>
<path d="M259.318 210.327C258.278 210.928 256.999 211.391 255.574 211.652L209.674 220.082C196.645 222.471 184.941 223.468 173.886 223.14C149.7 222.428 126.999 216.695 109.972 206.983L53.9117 175.029C47.4403 171.342 45.8221 165.613 49.8565 160.775L86.0499 117.535C88.171 114.951 91.8334 112.818 96.3269 111.536L170.78 90.139C179.104 87.7382 189.053 88.6095 195.508 92.2968L251.61 124.274C268.62 133.967 278.836 146.984 280.388 160.925C281.098 167.32 279.504 174.085 275.533 181.606L261.555 208.152C261.127 208.979 260.35 209.722 259.318 210.327Z"/>
</mask>
<path d="M259.318 210.327C258.278 210.928 256.999 211.391 255.574 211.652L209.674 220.082C196.645 222.471 184.941 223.468 173.886 223.14C149.7 222.428 126.999 216.695 109.972 206.983L53.9117 175.029C47.4403 171.342 45.8221 165.613 49.8565 160.775L86.0499 117.535C88.171 114.951 91.8334 112.818 96.3269 111.536L170.78 90.139C179.104 87.7382 189.053 88.6095 195.508 92.2968L251.61 124.274C268.62 133.967 278.836 146.984 280.388 160.925C281.098 167.32 279.504 174.085 275.533 181.606L261.555 208.152C261.127 208.979 260.35 209.722 259.318 210.327Z" fill="url(#paint1_linear_1_619)"/>
<path d="M260.581 211.056C261.278 210.654 261.278 210.001 260.581 209.598C259.883 209.196 258.753 209.196 258.055 209.598L260.581 211.056ZM255.574 211.652L255.033 210.67L255.033 210.67L255.574 211.652ZM209.674 220.082L210.215 221.064L210.215 221.064L209.674 220.082ZM173.886 223.14L173.978 222.111L173.977 222.11L173.886 223.14ZM109.972 206.983L111.227 206.249L111.227 206.249L109.972 206.983ZM53.9117 175.029L55.1662 174.295L55.1659 174.295L53.9117 175.029ZM49.8565 160.775L48.2488 160.326L48.2476 160.328L49.8565 160.775ZM86.0499 117.535L87.6576 117.984L87.6634 117.977L86.0499 117.535ZM96.3269 111.536L97.1182 112.46L97.1226 112.458L96.3269 111.536ZM170.78 90.139L171.575 91.0618L171.578 91.0611L170.78 90.139ZM195.508 92.2968L194.252 93.0295L194.254 93.0303L195.508 92.2968ZM251.61 124.274L250.356 125.008L250.356 125.008L251.61 124.274ZM280.388 160.925L282.17 160.859L282.17 160.859L280.388 160.925ZM275.533 181.606L273.825 181.305L273.824 181.306L275.533 181.606ZM261.555 208.152L259.846 207.852L259.844 207.857L261.555 208.152ZM258.045 209.604C257.354 210.01 257.363 210.663 258.065 211.062C258.768 211.461 259.899 211.456 260.591 211.05L258.045 209.604ZM258.055 209.598C257.207 210.088 256.172 210.461 255.033 210.67L256.116 212.634C257.825 212.32 259.349 211.767 260.581 211.056L258.055 209.598ZM255.033 210.67L209.133 219.1L210.215 221.064L256.116 212.634L255.033 210.67ZM209.134 219.1C196.263 221.46 184.776 222.431 173.978 222.111L173.794 224.169C185.106 224.505 197.027 223.483 210.215 221.064L209.134 219.1ZM173.977 222.11C150.222 221.411 127.937 215.781 111.227 206.249L108.717 207.716C126.06 217.609 149.177 223.444 173.795 224.169L173.977 222.11ZM111.227 206.249L55.1662 174.295L52.6572 175.762L108.718 207.716L111.227 206.249ZM55.1659 174.295C49.2566 170.928 47.7502 165.677 51.4653 161.222L48.2476 160.328C43.8941 165.549 45.6239 171.755 52.6575 175.763L55.1659 174.295ZM51.4642 161.223L87.6576 117.984L84.4422 117.087L48.2488 160.326L51.4642 161.223ZM87.6634 117.977C89.6091 115.607 92.9783 113.641 97.1182 112.46L95.5356 110.612C90.6885 111.995 86.7329 114.296 84.4364 117.094L87.6634 117.977ZM97.1226 112.458L171.575 91.0618L169.984 89.2162L95.5312 110.613L97.1226 112.458ZM171.578 91.0611C179.239 88.8514 188.358 89.6625 194.252 93.0295L196.764 91.564C189.749 87.5565 178.968 86.625 169.982 89.2169L171.578 91.0611ZM194.254 93.0303L250.356 125.008L252.865 123.541L196.763 91.5633L194.254 93.0303ZM250.356 125.008C267.05 134.521 277.082 147.298 278.606 160.991L282.17 160.859C280.591 146.669 270.191 133.414 252.864 123.541L250.356 125.008ZM278.606 160.991C279.299 167.237 277.748 173.877 273.825 181.305L277.24 181.906C281.261 174.294 282.896 167.403 282.17 160.859L278.606 160.991ZM273.824 181.306L259.846 207.852L263.263 208.452L277.241 181.906L273.824 181.306ZM259.844 207.857C259.502 208.518 258.879 209.115 258.045 209.604L260.591 211.05C261.821 210.329 262.751 209.44 263.266 208.447L259.844 207.857Z" fill="url(#paint2_linear_1_619)" mask="url(#path-3-outside-1_1_619)"/>
</g>
<g filter="url(#filter2_d_1_619)">
<path d="M56.483 113.12L59.8381 111.183C117.248 78.0404 212.821 83.4818 257.911 122.46L247.256 142.22C245.495 145.486 241.997 148.349 237.258 150.403L177.873 159.354C173.494 160.014 168.88 159.94 164.571 159.14L107.022 148.459L56.483 113.12Z" fill="#27F171"/>
</g>
<g filter="url(#filter3_b_1_619)">
<path d="M244.272 151.625L244.271 151.626C243.194 152.247 241.87 152.727 240.392 152.998L194.492 161.428L194.492 161.428C181.433 163.823 169.689 164.824 158.585 164.495C134.318 163.78 111.539 158.028 94.4539 148.282C94.4539 148.282 94.4538 148.282 94.4538 148.282L38.3981 116.331C38.3973 116.331 38.3965 116.33 38.3956 116.33C32.4815 113.095 30.1279 107.533 29.7374 102.212C29.3465 96.8872 30.9168 91.7344 32.967 89.2757C32.975 89.2661 32.9844 89.2568 32.9951 89.2481L70.4765 58.5997C72.6322 55.9829 76.3436 53.8241 80.8942 52.5252C80.8945 52.5251 80.8948 52.5251 80.895 52.525L155.347 31.1287C163.795 28.6921 173.899 29.5746 180.459 33.3217L244.272 151.625ZM244.272 151.625C245.342 150.998 246.147 150.228 246.591 149.37L260.568 122.824L244.272 151.625ZM236.561 65.2993L180.459 33.3219L260.569 122.824C264.548 115.289 268.866 103.84 266.678 90.1625C265.897 83.155 262.62 79.3499 257.378 76.0829C254.782 74.4654 251.709 72.9818 248.245 71.3102L248.189 71.2831C244.699 69.5984 240.803 67.7163 236.561 65.2993Z" fill="white" fill-opacity="0.5" stroke="url(#paint3_linear_1_619)" stroke-width="0.545846" stroke-linecap="round" stroke-linejoin="round"/>
</g>
<g filter="url(#filter4_b_1_619)">
<mask id="path-7-outside-2_1_619" maskUnits="userSpaceOnUse" x="0.540462" y="-2.05056" width="317.838" height="183.488" fill="black">
<rect fill="white" x="0.540462" y="-2.05056" width="317.838" height="183.488"/>
<path d="M244.034 137.73C242.994 138.33 241.715 138.793 240.29 139.055L194.39 147.485C181.361 149.874 169.657 150.871 158.602 150.543C134.416 149.83 111.715 144.097 94.6884 134.385L38.6277 102.431C32.1563 98.7443 30.5381 93.0158 34.5725 88.1775L70.7659 44.9377C72.887 42.3541 76.5494 40.2207 81.0429 38.9383L155.496 17.5416C163.82 15.1408 173.769 16.0121 180.224 19.6993L236.326 51.6769C253.336 61.3699 263.552 74.3862 265.104 88.3273C265.814 94.7228 264.22 101.488 260.249 109.008L246.271 135.555C245.843 136.382 245.066 137.125 244.034 137.73Z"/>
</mask>
<path d="M244.034 137.73C242.994 138.33 241.715 138.793 240.29 139.055L194.39 147.485C181.361 149.874 169.657 150.871 158.602 150.543C134.416 149.83 111.715 144.097 94.6884 134.385L38.6277 102.431C32.1563 98.7443 30.5381 93.0158 34.5725 88.1775L70.7659 44.9377C72.887 42.3541 76.5494 40.2207 81.0429 38.9383L155.496 17.5416C163.82 15.1408 173.769 16.0121 180.224 19.6993L236.326 51.6769C253.336 61.3699 263.552 74.3862 265.104 88.3273C265.814 94.7228 264.22 101.488 260.249 109.008L246.271 135.555C245.843 136.382 245.066 137.125 244.034 137.73Z" fill="white" fill-opacity="0.5"/>
<path d="M245.297 138.459C245.994 138.056 245.994 137.404 245.297 137.001C244.599 136.598 243.469 136.598 242.771 137.001L245.297 138.459ZM240.29 139.055L239.749 138.072L239.749 138.072L240.29 139.055ZM194.39 147.485L194.931 148.467L194.931 148.467L194.39 147.485ZM158.602 150.543L158.694 149.513L158.693 149.513L158.602 150.543ZM94.6884 134.385L95.9434 133.652L95.9429 133.652L94.6884 134.385ZM38.6277 102.431L39.8822 101.698L39.8819 101.698L38.6277 102.431ZM34.5725 88.1775L32.9648 87.729L32.9636 87.7304L34.5725 88.1775ZM70.7659 44.9377L72.3736 45.3862L72.3794 45.3792L70.7659 44.9377ZM81.0429 38.9383L81.8342 39.8623L81.8386 39.8611L81.0429 38.9383ZM155.496 17.5416L156.291 18.4644L156.294 18.4637L155.496 17.5416ZM180.224 19.6993L178.968 20.432L178.97 20.4329L180.224 19.6993ZM236.326 51.6769L235.072 52.4104L235.072 52.4105L236.326 51.6769ZM265.104 88.3273L266.886 88.2614L266.886 88.2612L265.104 88.3273ZM260.249 109.008L258.541 108.708L258.54 108.709L260.249 109.008ZM246.271 135.555L244.562 135.255L244.56 135.26L246.271 135.555ZM242.761 137.007C242.07 137.413 242.079 138.065 242.781 138.465C243.484 138.864 244.615 138.859 245.307 138.453L242.761 137.007ZM242.771 137.001C241.923 137.491 240.888 137.863 239.749 138.072L240.832 140.037C242.541 139.723 244.065 139.17 245.297 138.459L242.771 137.001ZM239.749 138.072L193.849 146.502L194.931 148.467L240.832 140.037L239.749 138.072ZM193.85 146.502C180.979 148.862 169.492 149.834 158.694 149.513L158.51 151.572C169.822 151.908 181.743 150.885 194.931 148.467L193.85 146.502ZM158.693 149.513C134.938 148.814 112.653 143.184 95.9434 133.652L93.4335 135.118C110.776 145.011 133.893 150.847 158.511 151.572L158.693 149.513ZM95.9429 133.652L39.8822 101.698L37.3732 103.165L93.4339 135.119L95.9429 133.652ZM39.8819 101.698C33.9726 98.331 32.4662 93.0801 36.1813 88.6246L32.9636 87.7304C28.6101 92.9515 30.3399 99.1577 37.3735 103.165L39.8819 101.698ZM36.1802 88.626L72.3736 45.3862L69.1582 44.4893L32.9648 87.729L36.1802 88.626ZM72.3794 45.3792C74.3251 43.0091 77.6943 41.0439 81.8342 39.8623L80.2516 38.0142C75.4045 39.3976 71.4489 41.699 69.1524 44.4963L72.3794 45.3792ZM81.8386 39.8611L156.291 18.4644L154.7 16.6188L80.2472 38.0155L81.8386 39.8611ZM156.294 18.4637C163.955 16.254 173.074 17.0651 178.968 20.432L181.48 18.9666C174.465 14.959 163.684 14.0275 154.698 16.6195L156.294 18.4637ZM178.97 20.4329L235.072 52.4104L237.581 50.9434L181.479 18.9658L178.97 20.4329ZM235.072 52.4105C251.766 61.9233 261.798 74.7009 263.322 88.3934L266.886 88.2612C265.307 74.0714 254.907 60.8164 237.58 50.9433L235.072 52.4105ZM263.322 88.3932C264.015 94.6401 262.464 101.279 258.541 108.708L261.956 109.309C265.977 101.696 267.612 94.8055 266.886 88.2614L263.322 88.3932ZM258.54 108.709L244.562 135.255L247.979 135.854L261.957 109.308L258.54 108.709ZM244.56 135.26C244.218 135.92 243.595 136.518 242.761 137.007L245.307 138.453C246.537 137.731 247.467 136.843 247.982 135.85L244.56 135.26Z" fill="url(#paint4_linear_1_619)" mask="url(#path-7-outside-2_1_619)"/>
</g>
<g filter="url(#filter5_i_1_619)">
<path d="M136.311 101.451L136.311 101.451C136.274 104.115 139.986 106.231 144.611 106.187L175.749 105.837C175.749 105.837 175.749 105.837 175.749 105.837C178.071 105.81 180.163 105.242 181.695 104.349C183.227 103.456 184.178 102.239 184.193 100.899L184.193 100.899L184.642 63.8782L184.642 63.8777C184.687 61.2188 180.968 59.0982 176.334 59.1471C171.711 59.1959 167.928 61.4063 167.89 64.0849L136.311 101.451ZM136.311 101.451C136.34 98.7776 140.123 96.5667 144.755 96.5132C144.755 96.5132 144.755 96.5132 144.755 96.5132L167.155 96.2576L167.497 96.2537L167.499 96.0563L167.89 64.0851L136.311 101.451Z" fill="#26F172" stroke="url(#paint5_linear_1_619)" stroke-width="0.573596"/>
</g>
<defs>
<filter id="filter0_bd_1_619" x="0.959267" y="89.0681" width="325.594" height="246.531" filterUnits="userSpaceOnUse" color-interpolation-filters="sRGB">
<feFlood flood-opacity="0" result="BackgroundImageFix"/>
<feGaussianBlur in="BackgroundImageFix" stdDeviation="6.55015"/>
<feComposite in2="SourceAlpha" operator="in" result="effect1_backgroundBlur_1_619"/>
<feColorMatrix in="SourceAlpha" type="matrix" values="0 0 0 0 0 0 0 0 0 0 0 0 0 0 0 0 0 0 127 0" result="hardAlpha"/>
<feOffset dy="54.5846"/>
<feGaussianBlur stdDeviation="21.8338"/>
<feComposite in2="hardAlpha" operator="out"/>
<feColorMatrix type="matrix" values="0 0 0 0 0.343982 0 0 0 0 1 0 0 0 0 0.448945 0 0 0 0.5 0"/>
<feBlend mode="normal" in2="effect1_backgroundBlur_1_619" result="effect2_dropShadow_1_619"/>
<feBlend mode="normal" in="SourceGraphic" in2="effect2_dropShadow_1_619" result="shape"/>
</filter>
<filter id="filter1_b_1_619" x="32.7736" y="74.6635" width="262.664" height="162.668" filterUnits="userSpaceOnUse" color-interpolation-filters="sRGB">
<feFlood flood-opacity="0" result="BackgroundImageFix"/>
<feGaussianBlur in="BackgroundImageFix" stdDeviation="6.55015"/>
<feComposite in2="SourceAlpha" operator="in" result="effect1_backgroundBlur_1_619"/>
<feBlend mode="normal" in="SourceGraphic" in2="effect1_backgroundBlur_1_619" result="shape"/>
</filter>
<filter id="filter2_d_1_619" x="35.101" y="84.5544" width="244.192" height="113.15" filterUnits="userSpaceOnUse" color-interpolation-filters="sRGB">
<feFlood flood-opacity="0" result="BackgroundImageFix"/>
<feColorMatrix in="SourceAlpha" type="matrix" values="0 0 0 0 0 0 0 0 0 0 0 0 0 0 0 0 0 0 127 0" result="hardAlpha"/>
<feOffset dy="16.5224"/>
<feGaussianBlur stdDeviation="10.691"/>
<feComposite in2="hardAlpha" operator="out"/>
<feColorMatrix type="matrix" values="0 0 0 0 0 0 0 0 0 0.824769 0 0 0 0 0.300654 0 0 0 1 0"/>
<feBlend mode="normal" in2="BackgroundImageFix" result="effect1_dropShadow_1_619"/>
<feBlend mode="normal" in="SourceGraphic" in2="effect1_dropShadow_1_619" result="shape"/>
</filter>
<filter id="filter3_b_1_619" x="19.6241" y="19.8518" width="257.697" height="154.616" filterUnits="userSpaceOnUse" color-interpolation-filters="sRGB">
<feFlood flood-opacity="0" result="BackgroundImageFix"/>
<feGaussianBlur in="BackgroundImageFix" stdDeviation="4.85954"/>
<feComposite in2="SourceAlpha" operator="in" result="effect1_backgroundBlur_1_619"/>
<feBlend mode="normal" in="SourceGraphic" in2="effect1_backgroundBlur_1_619" result="shape"/>
</filter>
<filter id="filter4_b_1_619" x="11.1518" y="-4.27176" width="275.339" height="175.344" filterUnits="userSpaceOnUse" color-interpolation-filters="sRGB">
<feFlood flood-opacity="0" result="BackgroundImageFix"/>
<feGaussianBlur in="BackgroundImageFix" stdDeviation="9.71907"/>
<feComposite in2="SourceAlpha" operator="in" result="effect1_backgroundBlur_1_619"/>
<feBlend mode="normal" in="SourceGraphic" in2="effect1_backgroundBlur_1_619" result="shape"/>
</filter>
<filter id="filter5_i_1_619" x="135.96" y="58.9435" width="49.0341" height="48.5465" filterUnits="userSpaceOnUse" color-interpolation-filters="sRGB">
<feFlood flood-opacity="0" result="BackgroundImageFix"/>
<feBlend mode="normal" in="SourceGraphic" in2="BackgroundImageFix" result="shape"/>
<feColorMatrix in="SourceAlpha" type="matrix" values="0 0 0 0 0 0 0 0 0 0 0 0 0 0 0 0 0 0 127 0" result="hardAlpha"/>
<feOffset dy="2.55611"/>
<feGaussianBlur stdDeviation="0.54977"/>
<feComposite in2="hardAlpha" operator="arithmetic" k2="-1" k3="1"/>
<feColorMatrix type="matrix" values="0 0 0 0 1 0 0 0 0 1 0 0 0 0 1 0 0 0 1 0"/>
<feBlend mode="normal" in2="shape" result="effect1_innerShadow_1_619"/>
</filter>
<linearGradient id="paint0_linear_1_619" x1="61.7519" y1="166.871" x2="286.813" y2="178.508" gradientUnits="userSpaceOnUse">
<stop stop-color="white" stop-opacity="0.25"/>
<stop offset="1" stop-color="white" stop-opacity="0"/>
</linearGradient>
<linearGradient id="paint1_linear_1_619" x1="90.6934" y1="113.819" x2="174.631" y2="259.217" gradientUnits="userSpaceOnUse">
<stop stop-color="#24EF7F"/>
<stop offset="1" stop-color="#26F16D"/>
</linearGradient>
<linearGradient id="paint2_linear_1_619" x1="163.879" y1="145.3" x2="170.986" y2="230.404" gradientUnits="userSpaceOnUse">
<stop stop-color="white" stop-opacity="0.43"/>
<stop offset="0.846595" stop-color="white"/>
<stop offset="1" stop-color="white" stop-opacity="0"/>
</linearGradient>
<linearGradient id="paint3_linear_1_619" x1="46.4681" y1="94.274" x2="271.529" y2="105.911" gradientUnits="userSpaceOnUse">
<stop stop-color="white" stop-opacity="0.25"/>
<stop offset="1" stop-color="white" stop-opacity="0"/>
</linearGradient>
<linearGradient id="paint4_linear_1_619" x1="189.149" y1="155.505" x2="203.171" y2="37.9483" gradientUnits="userSpaceOnUse">
<stop stop-color="white" stop-opacity="0.79"/>
<stop offset="1" stop-color="white" stop-opacity="0"/>
</linearGradient>
<linearGradient id="paint5_linear_1_619" x1="130.554" y1="89.2622" x2="190.689" y2="116.469" gradientUnits="userSpaceOnUse">
<stop stop-color="white" stop-opacity="0.25"/>
<stop offset="1" stop-color="white" stop-opacity="0"/>
</linearGradient>
</defs>
</svg>
