<svg width="275" height="275" viewBox="0 0 275 275" fill="none" xmlns="http://www.w3.org/2000/svg">
<path d="M59.5595 131.169C56.6491 135.082 52.6439 138.044 48.0502 139.681C43.4566 141.317 38.4808 141.555 33.7521 140.363C29.0235 139.172 24.7542 136.605 21.4843 132.988C18.2144 129.37 16.0905 124.864 15.3814 120.039C14.6723 115.215 15.4097 110.288 17.5004 105.883C19.5912 101.477 22.9413 97.7905 27.1272 95.2889C31.3131 92.7874 36.1467 91.5832 41.017 91.8286C45.8872 92.0741 50.5754 93.7582 54.4885 96.668L54.538 96.7065C59.7734 100.611 63.2435 106.435 64.1852 112.898C65.1269 119.361 63.463 125.933 59.5595 131.169Z" fill="#EBEBEB"/>
<path d="M54.8625 127.655C52.6472 130.638 49.5969 132.898 46.0975 134.148C42.598 135.398 38.8065 135.582 35.2025 134.677C31.5984 133.772 28.3437 131.818 25.8498 129.063C23.356 126.309 21.735 122.876 21.192 119.2C20.6489 115.524 21.2081 111.769 22.7989 108.411C24.3897 105.053 26.9406 102.242 30.129 100.334C33.3174 98.4251 37.0002 97.5049 40.7115 97.6895C44.4229 97.8741 47.9961 99.1551 50.9795 101.371H51.0125C55.0047 104.342 57.6531 108.778 58.3751 113.702C59.0971 118.626 57.8336 123.635 54.8625 127.628V127.655Z" fill="#F5F5F5"/>
<path d="M55.209 127.182C55.1155 127.116 55.5445 126.412 56.166 125.076C57.0403 123.208 57.6174 121.215 57.8765 119.169C58.2602 116.152 57.8995 113.087 56.826 110.242C56.1901 108.583 55.3256 107.02 54.2575 105.6C53.6904 104.852 53.0651 104.149 52.3875 103.499C50.9939 102.155 49.3954 101.041 47.652 100.199C45.9882 99.3882 44.2121 98.832 42.383 98.549C41.522 98.4164 40.6526 98.3465 39.7815 98.34C38.1659 98.3189 36.5543 98.5038 34.9855 98.89C33.6188 99.2439 32.2947 99.7456 31.0365 100.386C29.2074 101.333 27.5374 102.56 26.0865 104.022C25.047 105.061 24.53 105.71 24.4365 105.672C24.343 105.633 24.728 104.863 25.6685 103.675C27.0277 102.008 28.6859 100.609 30.558 99.55C32.796 98.2728 35.27 97.4631 37.8301 97.1701C40.3902 96.877 42.9832 97.1066 45.452 97.845C46.4237 98.1365 47.3708 98.5043 48.2845 98.945C49.2238 99.4011 50.1266 99.9288 50.985 100.524C51.8367 101.128 52.642 101.795 53.394 102.52C54.1204 103.229 54.7899 103.994 55.396 104.808C56.929 106.871 58.0292 109.223 58.6303 111.722C59.2314 114.221 59.3211 116.815 58.894 119.35C58.5413 121.477 57.7952 123.519 56.694 125.372C55.869 126.632 55.2805 127.232 55.209 127.182Z" fill="#E0E0E0"/>
<path d="M34.804 126.66L32.8845 129.305L30.5195 127.6L32.3895 125.026C30.151 123.184 28.435 120.824 27.874 118.861L31.2675 116.919C31.9371 118.852 33.0991 120.577 34.639 121.924L37.5045 117.975C35.3375 115.434 33.0385 112.431 35.4915 109.049C37.312 106.541 40.6945 105.71 44.7425 107.993L46.6455 105.369L49.0105 107.085L47.1405 109.659C48.7675 110.988 50.0551 112.684 50.897 114.609L47.597 116.661C46.9466 115.206 46.0115 113.897 44.847 112.811L41.932 116.831C44.132 119.35 46.365 122.331 43.945 125.631C42.1905 128.079 38.8465 128.904 34.804 126.66ZM40.0235 114.488L42.46 111.128C41.0025 110.501 40.007 110.831 39.4405 111.612C38.874 112.393 39.2205 113.399 40.0235 114.488ZM39.9575 123.14C40.557 122.309 40.1995 121.363 39.4405 120.269L37.07 123.536C38.445 124.135 39.4075 123.893 39.9575 123.14Z" fill="#E0E0E0"/>
<path d="M207.614 201.201C205.089 204.596 201.613 207.167 197.627 208.587C193.641 210.007 189.324 210.213 185.22 209.179C181.117 208.146 177.412 205.919 174.575 202.779C171.737 199.64 169.895 195.73 169.279 191.544C168.664 187.357 169.304 183.082 171.118 179.26C172.932 175.437 175.839 172.238 179.472 170.067C183.104 167.896 187.298 166.852 191.524 167.065C195.751 167.278 199.819 168.739 203.214 171.265L203.258 171.298C207.8 174.686 210.81 179.74 211.627 185.347C212.444 190.955 211.001 196.657 207.614 201.201Z" fill="#EBEBEB"/>
<path d="M203.539 198.154C201.613 200.74 198.963 202.696 195.925 203.776C192.888 204.856 189.598 205.011 186.472 204.221C183.346 203.432 180.524 201.733 178.364 199.34C176.204 196.947 174.801 193.966 174.335 190.776C173.868 187.586 174.357 184.329 175.741 181.417C177.125 178.506 179.342 176.07 182.11 174.417C184.879 172.765 188.075 171.971 191.295 172.135C194.515 172.299 197.614 173.415 200.2 175.34H200.228C201.945 176.619 203.393 178.225 204.488 180.064C205.584 181.904 206.307 183.941 206.614 186.06C206.922 188.179 206.808 190.338 206.281 192.414C205.753 194.489 204.821 196.439 203.539 198.154Z" fill="#F5F5F5"/>
<path d="M203.841 197.742C203.759 197.681 204.133 197.071 204.666 195.91C205.425 194.289 205.926 192.56 206.151 190.784C206.301 189.568 206.315 188.34 206.195 187.121C206.053 185.725 205.732 184.353 205.238 183.04C204.976 182.331 204.659 181.644 204.292 180.983C203.917 180.291 203.489 179.628 203.011 179.003C202.517 178.354 201.975 177.743 201.388 177.177C200.778 176.6 200.129 176.066 199.447 175.577C198.756 175.1 198.032 174.673 197.28 174.301C195.837 173.598 194.296 173.117 192.709 172.876C191.961 172.761 191.206 172.7 190.449 172.695C187.811 172.662 185.206 173.28 182.864 174.493C181.274 175.315 179.822 176.378 178.558 177.645C177.656 178.547 177.205 179.108 177.128 179.047C177.051 178.987 177.381 178.349 178.195 177.32C179.373 175.865 180.813 174.643 182.441 173.718C183.567 173.069 184.767 172.557 186.016 172.194C187.457 171.778 188.948 171.56 190.449 171.545C191.26 171.533 192.071 171.584 192.874 171.699C193.716 171.816 194.547 172 195.36 172.249C197.951 173.023 200.316 174.414 202.252 176.303C202.88 176.92 203.461 177.584 203.99 178.288C204.497 178.968 204.95 179.687 205.343 180.439C205.724 181.146 206.051 181.882 206.322 182.639C206.821 184.058 207.126 185.538 207.229 187.039C207.316 188.336 207.247 189.64 207.026 190.922C206.713 192.768 206.058 194.54 205.095 196.147C204.408 197.263 203.896 197.78 203.841 197.742Z" fill="#E0E0E0"/>
<path d="M186.136 197.285L184.486 199.584L182.429 198.094L184.052 195.855C182.111 194.26 180.625 192.209 180.136 190.509L183.078 188.826C183.661 190.503 184.669 192.001 186.004 193.171L188.49 189.739C186.615 187.539 184.64 184.932 186.747 181.995C188.325 179.795 191.262 179.096 194.771 181.082L196.421 178.799L198.473 180.29L196.85 182.529C198.262 183.673 199.38 185.138 200.112 186.802L197.252 188.579C196.696 187.317 195.892 186.179 194.887 185.235L192.357 188.727C194.249 190.927 196.207 193.484 194.106 196.378C192.538 198.517 189.64 199.232 186.136 197.285ZM190.663 186.725L192.775 183.81C191.51 183.26 190.646 183.551 190.151 184.228C189.656 184.904 189.964 185.785 190.663 186.725ZM190.602 194.233C191.125 193.512 190.811 192.693 190.151 191.741L188.1 194.574C189.288 195.124 190.129 194.887 190.602 194.233Z" fill="#E0E0E0"/>
<path d="M78.265 54.197C77.7648 56.9311 76.4651 59.4554 74.5302 61.4507C72.5953 63.4461 70.1121 64.8228 67.3947 65.4069C64.6774 65.9909 61.8478 65.756 59.264 64.7318C56.6801 63.7077 54.458 61.9403 52.8786 59.6532C51.2992 57.3661 50.4336 54.662 50.3911 51.8828C50.3486 49.1037 51.1313 46.3744 52.64 44.0401C54.1487 41.7058 56.3158 39.8714 58.8672 38.7687C61.4185 37.6661 64.2396 37.3448 66.9735 37.8455H67.0065C68.8195 38.1797 70.549 38.8678 72.096 39.8704C73.6431 40.8731 74.9774 42.1707 76.0229 43.6891C77.0684 45.2076 77.8045 46.9171 78.1892 48.72C78.5739 50.523 78.5997 52.3841 78.265 54.197Z" fill="#EBEBEB"/>
<path d="M74.976 53.5865C74.5943 55.6698 73.6033 57.5931 72.1285 59.1132C70.6536 60.6333 68.7611 61.6819 66.6903 62.1265C64.6195 62.571 62.4634 62.3914 60.4946 61.6105C58.5258 60.8296 56.8329 59.4824 55.6298 57.7393C54.4267 55.9962 53.7675 53.9354 53.7356 51.8177C53.7037 49.7 54.3005 47.6203 55.4506 45.8418C56.6006 44.0632 58.2523 42.6656 60.1966 41.8258C62.141 40.986 64.2907 40.7416 66.374 41.1235C69.1621 41.6381 71.6317 43.2389 73.2396 45.574C74.8476 47.9091 75.4623 50.7873 74.9485 53.5755L74.976 53.5865Z" fill="#F5F5F5"/>
<path d="M75.0366 53.2565C74.9724 52.8196 74.9577 52.3768 74.9926 51.9365C74.9674 50.762 74.7596 49.5986 74.3766 48.488C74.1135 47.7181 73.7648 46.9802 73.3371 46.288C72.8484 45.5077 72.2604 44.7941 71.5881 44.165C70.8487 43.4689 70.0111 42.8852 69.1021 42.4325C68.6226 42.1947 68.1262 41.9925 67.6171 41.8275C67.0915 41.6629 66.5548 41.5361 66.0111 41.448C65.4646 41.3693 64.9132 41.3288 64.3611 41.327C63.8251 41.3325 63.2902 41.3766 62.7606 41.459C62.2499 41.5397 61.7461 41.6592 61.2536 41.8165C60.7799 41.964 60.3184 42.1479 59.8731 42.3665C58.3052 43.1248 56.9488 44.2583 55.9241 45.6665C55.2155 46.6101 54.6588 47.6586 54.2741 48.774C54.174 49.2027 54.0283 49.6194 53.8396 50.017C53.785 49.5694 53.8282 49.1153 53.9661 48.686C54.2411 47.4875 54.7352 46.35 55.4236 45.331C56.4474 43.7957 57.8541 42.554 59.5046 41.7285C59.9813 41.4858 60.4759 41.2799 60.9841 41.1125C61.5118 40.9357 62.0524 40.7996 62.6011 40.7055C63.1792 40.6065 63.7637 40.5495 64.3501 40.535C64.9445 40.5332 65.5383 40.5754 66.1266 40.6615C66.7137 40.7547 67.2929 40.8926 67.8591 41.074C68.4088 41.2545 68.9439 41.477 69.4596 41.7395C69.9575 41.9915 70.434 42.284 70.8841 42.614C71.3181 42.9234 71.7264 43.2674 72.1051 43.6425C72.8091 44.33 73.4177 45.1087 73.9146 45.958C74.339 46.7004 74.6785 47.4882 74.9266 48.3065C75.2776 49.4843 75.4063 50.7171 75.3061 51.942C75.3054 52.3938 75.2137 52.8409 75.0366 53.2565Z" fill="#E0E0E0"/>
<path d="M64.471 58.1295L64.1575 59.972L62.5075 59.6915L62.81 57.8985C61.3642 57.6024 60.0304 56.907 58.96 55.891L60.203 54.043C61.0324 54.8625 62.0621 55.4504 63.1895 55.748L63.657 52.998C61.9135 52.2445 59.983 51.2875 60.3845 48.939C60.6815 47.201 62.1995 45.925 64.845 46.0735L65.153 44.2475L66.803 44.528L66.495 46.321C67.6579 46.5871 68.7415 47.1242 69.6575 47.8885L68.4915 49.7695C67.7955 49.1891 66.9919 48.7517 66.1265 48.4825L65.648 51.2765C67.397 52.0135 69.2945 52.965 68.8985 55.275C68.6015 56.9965 67.1 58.2615 64.471 58.1295ZM64.0695 50.6L64.471 48.268C63.5635 48.3175 63.14 48.7355 63.0465 49.28C62.953 49.8245 63.3875 50.2425 64.0695 50.6ZM66.22 55.0385C66.319 54.4885 65.8955 54.0705 65.23 53.7075L64.845 55.968C65.6975 55.924 66.132 55.55 66.22 55.033V55.0385Z" fill="#E0E0E0"/>
<path d="M259.941 243.584C259.941 243.666 209.071 243.732 146.338 243.732C83.6055 243.732 32.7305 243.65 32.7305 243.584C32.7305 243.518 83.5835 243.441 146.338 243.441C209.093 243.441 259.941 243.507 259.941 243.584Z" fill="#263238"/>
<path d="M99.8855 70.433C99.8855 70.433 100.364 45.7875 79.9755 33.2695H144.595C144.595 33.2695 163.069 48.2405 163.223 70.433H99.8855Z" fill="#EBEBEB"/>
<path d="M139.667 42.2565C139.667 42.339 132.286 42.405 123.167 42.405C114.048 42.405 106.667 42.339 106.667 42.2565C106.667 42.174 114.048 42.1135 123.167 42.1135C132.286 42.1135 139.667 42.1795 139.667 42.2565Z" fill="#455A64"/>
<path d="M146.718 46.717C146.718 46.794 136.939 46.86 124.877 46.86C112.816 46.86 103.037 46.794 103.037 46.717C103.037 46.64 112.816 46.5685 124.877 46.5685C136.939 46.5685 146.718 46.6345 146.718 46.717Z" fill="#263238"/>
<path d="M150.392 57.9919C150.392 58.0689 140.613 58.1349 128.551 58.1349C116.49 58.1349 106.705 58.0689 106.705 57.9919C106.705 57.9149 116.484 57.8489 128.551 57.8489C140.618 57.8489 150.392 57.9149 150.392 57.9919Z" fill="#263238"/>
<path d="M127.567 51.8484C127.272 51.8932 126.974 51.9135 126.676 51.9089L124.234 51.9529C122.172 51.9804 119.328 51.9969 116.182 51.9969C113.036 51.9969 110.193 51.9969 108.13 51.9529L105.688 51.9089C105.39 51.9135 105.092 51.8932 104.797 51.8484C105.092 51.8055 105.39 51.7871 105.688 51.7934L108.13 51.7494C110.193 51.7494 113.036 51.7054 116.182 51.7054C119.328 51.7054 122.172 51.7054 124.234 51.7494L126.676 51.7934C126.974 51.7871 127.272 51.8055 127.567 51.8484Z" fill="#263238"/>
<path d="M146.718 51.8484C146.501 51.8934 146.28 51.9136 146.058 51.9089L144.254 51.9529C142.736 51.9804 140.63 51.9969 138.309 51.9969C135.988 51.9969 133.881 51.9969 132.363 51.9529L130.559 51.9089C130.337 51.9136 130.116 51.8934 129.899 51.8484C130.117 51.8083 130.338 51.7899 130.559 51.7934L132.363 51.7494C133.881 51.7494 135.988 51.7054 138.309 51.7054C140.63 51.7054 142.709 51.7054 144.254 51.7494L146.058 51.7934C146.279 51.7872 146.501 51.8056 146.718 51.8484Z" fill="#263238"/>
<path d="M131.62 64.0364C131.324 64.0814 131.024 64.1016 130.724 64.0969L128.287 64.1409C126.225 64.1409 123.376 64.1849 120.235 64.1849C117.095 64.1849 114.24 64.1849 112.178 64.1409L109.741 64.0969C109.441 64.1016 109.142 64.0814 108.845 64.0364C109.142 63.9933 109.442 63.9749 109.741 63.9814L112.178 63.9374C114.24 63.9374 117.089 63.8934 120.235 63.8934C123.381 63.8934 126.225 63.8934 128.287 63.9374L130.724 63.9814C131.024 63.9749 131.324 63.9933 131.62 64.0364Z" fill="#263238"/>
<path d="M150.772 64.0364C150.554 64.0813 150.333 64.1016 150.111 64.0969L148.307 64.1409C146.784 64.1409 144.683 64.1849 142.362 64.1849C140.041 64.1849 137.962 64.1849 136.411 64.1409L134.607 64.0969C134.385 64.1016 134.164 64.0813 133.947 64.0364C134.165 63.9963 134.386 63.9779 134.607 63.9814L136.411 63.9374C137.934 63.9374 140.035 63.8934 142.362 63.8934C144.688 63.8934 146.762 63.8934 148.307 63.9374L150.111 63.9814C150.333 63.9779 150.554 63.9963 150.772 64.0364Z" fill="#263238"/>
<path d="M86.6744 69.7345H182.011L187.203 234.9C187.239 236.008 187.055 237.112 186.663 238.149C186.272 239.186 185.679 240.136 184.92 240.944C184.161 241.752 183.25 242.403 182.24 242.858C181.229 243.314 180.139 243.566 179.03 243.601H79.629C78.2284 243.601 76.8813 243.062 75.8667 242.097C74.8521 241.132 74.2476 239.813 74.1784 238.414L69.597 145.151C69.597 145.151 41.3215 134.888 41.8 103.576C41.8 103.576 43.0869 69.7345 86.6744 69.7345Z" fill="#263238"/>
<path d="M91.85 243.353L87.692 69.7345H185.471L187.236 236.049C187.297 237.985 186.587 239.865 185.262 241.277C183.936 242.689 182.104 243.517 180.169 243.578H179.916L91.85 243.353Z" fill="#455A64"/>
<path d="M95.7715 79.7939L97.7514 160.633H177.386L176.313 79.7939H95.7715Z" fill="#263238"/>
<path d="M104.582 90.255C108.471 91.3055 113.382 90.86 117.375 90.6675C117.667 90.6675 117.947 90.5516 118.153 90.3453C118.36 90.139 118.475 89.8592 118.475 89.5675C118.475 89.2757 118.36 88.9959 118.153 88.7896C117.947 88.5833 117.667 88.4675 117.375 88.4675C113.382 88.2695 108.465 87.8239 104.582 88.88C104.397 88.9348 104.24 89.0611 104.147 89.2313C104.054 89.4014 104.033 89.6015 104.087 89.7874C104.123 89.9043 104.187 90.0106 104.273 90.0969C104.359 90.1833 104.466 90.247 104.582 90.2824V90.255Z" fill="#E0E0E0"/>
<path d="M124.173 90.0955C127.99 91.069 132.924 90.893 136.823 90.519C137.115 90.519 137.395 90.4031 137.601 90.1968C137.808 89.9905 137.923 89.7107 137.923 89.419C137.923 89.1272 137.808 88.8474 137.601 88.6411C137.395 88.4349 137.115 88.319 136.823 88.319C132.924 87.9395 127.99 87.769 124.173 88.7425C124.084 88.7695 124.001 88.8139 123.929 88.873C123.857 88.9322 123.797 89.0049 123.753 89.0872C123.71 89.1694 123.682 89.2595 123.673 89.3523C123.664 89.4451 123.673 89.5388 123.7 89.628C123.734 89.7398 123.795 89.8417 123.877 89.9242C123.96 90.0068 124.062 90.0675 124.173 90.101V90.0955Z" fill="#E0E0E0"/>
<path d="M143.5 89.7489C145.42 90.3319 147.493 90.2329 149.484 90.2659C151.518 90.387 153.557 90.3484 155.584 90.1504C156.579 90.0074 156.579 88.2749 155.584 88.1374C153.557 87.9349 151.518 87.8944 149.484 88.0164C147.493 88.0494 145.42 87.9504 143.5 88.5334C143.369 88.5714 143.253 88.6513 143.17 88.7609C143.088 88.8705 143.043 89.004 143.043 89.1412C143.043 89.2784 143.088 89.4119 143.17 89.5215C143.253 89.6311 143.369 89.7109 143.5 89.7489Z" fill="#E0E0E0"/>
<path d="M161.408 89.859C162.857 90.0697 164.318 90.1818 165.781 90.1945C167.233 90.2275 168.8 90.464 170.208 90.0625C170.406 90.0026 170.579 89.8808 170.703 89.7149C170.826 89.5489 170.892 89.3478 170.892 89.1412C170.892 88.9346 170.826 88.7335 170.703 88.5676C170.579 88.4017 170.406 88.2798 170.208 88.22C168.8 87.8185 167.233 88.055 165.781 88.088C164.317 88.0997 162.856 88.2137 161.408 88.429C161.255 88.476 161.122 88.5708 161.027 88.6995C160.931 88.8282 160.88 88.984 160.88 89.144C160.88 89.304 160.931 89.4598 161.027 89.5885C161.122 89.7172 161.255 89.812 161.408 89.859Z" fill="#E0E0E0"/>
<path d="M120.857 170.247H97.7789V186.741H120.857V170.247Z" fill="#8EDFEB"/>
<path d="M101.953 170.247H97.7789V186.741H101.953V170.247Z" fill="#263238"/>
<path d="M149.116 170.247H126.038V186.741H149.116V170.247Z" fill="#8EDFEB"/>
<path d="M129.976 170.247H125.801V186.741H129.976V170.247Z" fill="#263238"/>
<path d="M177.38 170.247H154.302V186.741H177.38V170.247Z" fill="#8EDFEB"/>
<path d="M157.817 170.247H153.642V186.741H157.817V170.247Z" fill="#263238"/>
<path d="M177.38 192.192H154.302V208.686H177.38V192.192Z" fill="#8EDFEB"/>
<path d="M158.603 192.192H154.302V208.686H158.603V192.192Z" fill="#263238"/>
<path d="M120.857 192.192H97.7789V208.686H120.857V192.192Z" fill="#8EDFEB"/>
<path d="M101.953 192.159H97.7789V208.653H101.953V192.159Z" fill="#263238"/>
<path d="M120.857 213.917H97.7789V230.411H120.857V213.917Z" fill="#8EDFEB"/>
<path opacity="0.3" d="M120.857 213.917H97.7789V230.411H120.857V213.917Z" fill="black"/>
<path d="M101.953 213.917H97.7789V230.411H101.953V213.917Z" fill="#263238"/>
<path d="M148.99 192.192H125.911V208.686H148.99V192.192Z" fill="#8EDFEB"/>
<path d="M130.086 192.159H125.911V208.653H130.086V192.159Z" fill="#263238"/>
<path d="M149.116 213.917H126.038V230.411H149.116V213.917Z" fill="#8EDFEB"/>
<path opacity="0.3" d="M149.116 213.917H126.038V230.411H149.116V213.917Z" fill="black"/>
<path d="M130.212 213.917H126.038V230.411H130.212V213.917Z" fill="#263238"/>
<path d="M177.38 213.917H154.302V230.411H177.38V213.917Z" fill="#E0E0E0"/>
<path d="M158.477 213.917H154.302V230.411H158.477V213.917Z" fill="#263238"/>
<path d="M84.2325 243.606C83.8365 243.606 82.39 204.699 80.9985 156.706C79.607 108.713 78.7985 69.7565 79.1945 69.7455C79.5905 69.7345 81.037 108.641 82.4285 156.645C83.82 204.649 84.6285 243.595 84.2325 243.606Z" fill="#455A64"/>
<path d="M177.265 151.426V154.39L186.395 156.662L186.345 152.091L177.265 151.426Z" fill="#455A64"/>
<path d="M66.4345 145.48C65.9348 145.282 65.3983 145.194 64.8615 145.222C64.3211 145.273 63.7911 145.402 63.2885 145.607L57.0405 147.697L44.8305 151.8L21.7305 159.5C20.819 159.76 20.0357 160.348 19.5305 161.15C19.0299 161.935 18.8433 162.879 19.008 163.795C19.109 164.25 19.2413 164.696 19.404 165.132L19.8495 166.463C20.1465 167.348 20.438 168.223 20.735 169.097C21.8936 172.577 23.023 175.956 24.123 179.234C26.323 185.779 28.347 191.884 30.2115 197.433C33.9185 208.56 36.927 217.569 39.0115 223.795C40.0455 226.908 40.843 229.322 41.393 230.945C41.657 231.764 41.866 232.386 42.0035 232.809C42.141 233.233 42.2015 233.448 42.2015 233.448C42.2752 233.658 42.3691 233.86 42.482 234.052C42.7991 234.626 43.2572 235.108 43.813 235.455C44.2633 235.734 44.7663 235.917 45.2906 235.993C45.8149 236.069 46.3491 236.035 46.86 235.895C48.059 235.51 49.434 235.026 50.9905 234.509L73.9585 226.765L49.4615 150.26L61.7155 146.151L83.842 213.95L82.874 190.366C78.419 177.094 73.6065 162.745 68.574 147.768C68.4033 147.255 68.1238 146.785 67.7545 146.39C67.3852 145.996 66.9349 145.685 66.4345 145.48ZM38.1975 180.334L32.7305 163.031L34.584 162.442L40.051 179.745L38.1975 180.334ZM41.9925 170.802L38.8025 160.715L40.656 160.132L43.846 170.214L41.9925 170.802ZM46.2715 183.595L43.087 173.508L44.9405 172.925L48.125 183.007L46.2715 183.595ZM47.3715 186.301L49.225 185.713L58.025 213.642L56.1715 214.225L47.3715 186.301ZM58.9215 222.843L57.035 216.876L58.8885 216.287L60.775 222.26L58.9215 222.843ZM66.55 219.675L64.6965 220.258L53.053 183.408L54.9065 182.825L66.55 219.675ZM53.955 179.3L52.1015 179.883L45.3475 158.526L47.201 157.938L53.955 179.3Z" fill="#8EDFEB"/>
<path opacity="0.3" d="M66.4345 145.48C65.9348 145.282 65.3983 145.194 64.8615 145.222C64.3211 145.273 63.7911 145.402 63.2885 145.607L57.0405 147.697L44.8305 151.8L21.7305 159.5C20.819 159.76 20.0357 160.348 19.5305 161.15C19.0299 161.935 18.8433 162.879 19.008 163.795C19.109 164.25 19.2413 164.696 19.404 165.132L19.8495 166.463C20.1465 167.348 20.438 168.223 20.735 169.097C21.8936 172.577 23.023 175.956 24.123 179.234C26.323 185.779 28.347 191.884 30.2115 197.433C33.9185 208.56 36.927 217.569 39.0115 223.795C40.0455 226.908 40.843 229.322 41.393 230.945C41.657 231.764 41.866 232.386 42.0035 232.809C42.141 233.233 42.2015 233.448 42.2015 233.448C42.2752 233.658 42.3691 233.86 42.482 234.052C42.7991 234.626 43.2572 235.108 43.813 235.455C44.2633 235.734 44.7663 235.917 45.2906 235.993C45.8149 236.069 46.3491 236.035 46.86 235.895C48.059 235.51 49.434 235.026 50.9905 234.509L73.9585 226.765L49.4615 150.26L61.7155 146.151L83.842 213.95L82.874 190.366C78.419 177.094 73.6065 162.745 68.574 147.768C68.4033 147.255 68.1238 146.785 67.7545 146.39C67.3852 145.996 66.9349 145.685 66.4345 145.48ZM38.1975 180.334L32.7305 163.031L34.584 162.442L40.051 179.745L38.1975 180.334ZM41.9925 170.802L38.8025 160.715L40.656 160.132L43.846 170.214L41.9925 170.802ZM46.2715 183.595L43.087 173.508L44.9405 172.925L48.125 183.007L46.2715 183.595ZM47.3715 186.301L49.225 185.713L58.025 213.642L56.1715 214.225L47.3715 186.301ZM58.9215 222.843L57.035 216.876L58.8885 216.287L60.775 222.26L58.9215 222.843ZM66.55 219.675L64.6965 220.258L53.053 183.408L54.9065 182.825L66.55 219.675ZM53.955 179.3L52.1015 179.883L45.3475 158.526L47.201 157.938L53.955 179.3Z" fill="black"/>
<path d="M73.975 226.869L73.9475 226.781L50.9795 234.525C49.423 235.042 48.048 235.526 46.849 235.911C46.3382 236.052 45.8039 236.085 45.2796 236.009C44.7553 235.934 44.2523 235.75 43.802 235.471C43.2462 235.125 42.7881 234.642 42.471 234.069C42.2565 233.684 42.207 233.458 42.1905 233.464L42.2455 233.623C42.5337 234.405 43.071 235.07 43.7745 235.515C44.228 235.806 44.7374 235.998 45.2698 236.08C45.8022 236.161 46.3458 236.13 46.8655 235.988C48.0755 235.609 49.4505 235.136 51.0125 234.619L77.374 225.819L83.6275 223.729L84.2325 223.421L73.975 226.869Z" fill="#263238"/>
<path d="M41.9925 232.82C41.8549 232.397 41.646 231.776 41.382 230.956C40.8319 229.306 40.0345 226.897 39.0005 223.806C36.927 217.58 33.9185 208.571 30.2005 197.444C28.336 191.884 26.301 185.79 24.112 179.245C23.012 175.974 21.8826 172.595 20.724 169.108C20.427 168.234 20.1355 167.359 19.8385 166.474L19.393 165.143C19.2303 164.707 19.098 164.261 18.997 163.806C18.8404 162.887 19.0368 161.942 19.547 161.161C20.0522 160.359 20.8355 159.771 21.747 159.511L44.847 151.811L57.0569 147.719L63.3049 145.629C63.8076 145.424 64.3376 145.295 64.8779 145.244C65.6905 145.201 66.4948 145.426 67.1674 145.884C67.84 146.342 68.3438 147.008 68.6014 147.779C73.6229 162.756 78.4354 177.105 82.9014 190.377L82.8629 189.486C78.4959 176.44 73.7769 162.371 68.8654 147.686C68.6804 147.137 68.3785 146.634 67.9807 146.213C67.5829 145.791 67.0986 145.461 66.5609 145.244C66.0252 145.029 65.4487 144.935 64.8724 144.969C64.3062 145.02 63.7504 145.154 63.2224 145.365L56.9799 147.46L44.77 151.552L21.67 159.296C20.7036 159.562 19.8694 160.175 19.327 161.018C18.7982 161.857 18.602 162.863 18.777 163.839C18.8817 164.305 19.0176 164.762 19.184 165.209C19.3325 165.654 19.4865 166.094 19.635 166.54C19.9265 167.42 20.2235 168.3 20.515 169.169C21.6883 172.652 22.8231 176.031 23.9195 179.305L30.03 197.483L38.9015 223.817C39.9575 226.919 40.7715 229.317 41.327 230.967C41.6075 231.781 41.822 232.403 41.965 232.826L42.1905 233.459C42.1905 233.459 42.1299 233.244 41.9925 232.82Z" fill="#263238"/>
<path d="M54.8871 182.834L53.0358 183.42L64.6817 220.266L66.533 219.681L54.8871 182.834Z" fill="#FAFAFA"/>
<path d="M47.1988 157.938L45.3475 158.523L52.102 179.894L53.9533 179.309L47.1988 157.938Z" fill="#FAFAFA"/>
<path d="M40.6577 160.129L38.8065 160.714L41.9939 170.799L43.8451 170.214L40.6577 160.129Z" fill="#FAFAFA"/>
<path d="M34.2399 161.923L32.3938 162.506L37.8408 179.75L39.6869 179.167L34.2399 161.923Z" fill="#FAFAFA"/>
<path d="M58.91 216.283L57.0587 216.868L58.945 222.836L60.7962 222.251L58.91 216.283Z" fill="#FAFAFA"/>
<path d="M44.9357 172.925L43.0845 173.51L46.2719 183.594L48.1232 183.009L44.9357 172.925Z" fill="#FAFAFA"/>
<path d="M49.2029 185.728L47.3516 186.313L56.178 214.239L58.0293 213.654L49.2029 185.728Z" fill="#FAFAFA"/>
<path d="M49.4615 150.26L73.9475 226.781L73.975 226.869L84.2325 223.432L83.842 213.939L61.7155 146.151L49.4615 150.26Z" fill="#FAFAFA"/>
<path d="M73.8374 231.44L83.7814 227.942L83.5669 223.58L73.9749 226.869L73.8374 231.44Z" fill="#263238"/>
<path d="M199.216 104.836C199.216 104.912 198.908 104.962 198.523 104.945C198.138 104.929 197.841 104.852 197.846 104.77C197.852 104.687 198.16 104.643 198.539 104.659C198.919 104.676 199.221 104.753 199.216 104.836Z" fill="#263238"/>
<path d="M204.6 104.605C204.177 104.782 203.722 104.867 203.264 104.852C202.813 104.936 202.35 104.922 201.905 104.814C202.779 104.555 203.697 104.484 204.6 104.605Z" fill="#263238"/>
<path d="M209.935 103.653C209.539 103.883 209.098 104.028 208.643 104.076C208.206 104.215 207.746 104.263 207.29 104.219C208.123 103.851 209.024 103.663 209.935 103.67V103.653Z" fill="#263238"/>
<path d="M215.077 102.009C214.716 102.288 214.3 102.488 213.856 102.597C213.444 102.796 212.994 102.904 212.536 102.916C212.897 102.635 213.313 102.434 213.757 102.328C214.172 102.134 214.621 102.026 215.077 102.009Z" fill="#263238"/>
<path d="M219.956 99.682C219.251 100.259 218.435 100.684 217.558 100.931C217.881 100.606 218.267 100.349 218.691 100.177C219.074 99.9261 219.505 99.7575 219.956 99.682Z" fill="#263238"/>
<path d="M224.45 96.6845C224.499 96.745 224.048 97.152 223.438 97.592C223.096 97.8966 222.696 98.127 222.261 98.2685C222.217 98.2025 222.668 97.7955 223.273 97.3555C223.878 96.9155 224.4 96.6185 224.45 96.6845Z" fill="#263238"/>
<path d="M228.421 93.0215C228.481 93.0765 228.096 93.5715 227.568 94.0775C227.04 94.5835 226.562 94.9905 226.512 94.93C226.463 94.8695 226.837 94.38 227.365 93.874C227.893 93.368 228.36 92.95 228.421 93.0215Z" fill="#263238"/>
<path d="M231.704 88.737C231.776 88.7755 231.479 89.287 231.05 89.925C230.621 90.563 230.219 91.025 230.159 90.9535C230.295 90.5159 230.517 90.1101 230.813 89.76C231.242 89.155 231.638 88.693 231.704 88.737Z" fill="#263238"/>
<path d="M234.124 83.908C233.937 84.8017 233.562 85.6454 233.024 86.383C233.199 85.4855 233.575 84.6393 234.124 83.908Z" fill="#263238"/>
<path d="M235.554 78.705C235.595 79.1604 235.541 79.6192 235.395 80.0525C235.341 80.5079 235.191 80.9466 234.955 81.3395C234.965 80.4287 235.169 79.5306 235.554 78.705Z" fill="#263238"/>
<path d="M236.104 73.3315C236.243 74.2316 236.185 75.1511 235.933 76.0265C235.822 75.5841 235.803 75.1234 235.878 74.6735C235.862 74.2155 235.939 73.759 236.104 73.3315Z" fill="#263238"/>
<path d="M235.835 67.9415C236.108 68.8102 236.188 69.728 236.071 70.631C235.895 70.2096 235.807 69.7567 235.813 69.3C235.729 68.8503 235.736 68.3883 235.835 67.9415Z" fill="#263238"/>
<path d="M234.74 62.6505C234.982 63.0394 235.141 63.4737 235.208 63.9265C235.363 64.3578 235.426 64.8167 235.394 65.274C235.153 64.8852 234.994 64.4509 234.927 63.998C234.775 63.566 234.711 63.1077 234.74 62.6505Z" fill="#263238"/>
<path d="M232.782 57.618C233.087 57.9593 233.317 58.3601 233.459 58.795C233.688 59.1929 233.829 59.6357 233.871 60.093C233.569 59.748 233.339 59.346 233.195 58.9105C232.97 58.5125 232.829 58.0726 232.782 57.618Z" fill="#263238"/>
<path d="M229.9 53.0475C229.961 52.998 230.357 53.4545 230.791 54.0705C231.089 54.4169 231.312 54.8215 231.446 55.2585C231.38 55.3025 230.978 54.8405 230.555 54.2355C230.257 53.8891 230.034 53.4845 229.9 53.0475Z" fill="#263238"/>
<path d="M226.155 49.1755C226.204 49.115 226.705 49.445 227.255 49.9565C227.805 50.468 228.179 50.952 228.124 51.007C228.069 51.062 227.607 50.6715 227.062 50.1655C226.518 49.6595 226.105 49.236 226.155 49.1755Z" fill="#263238"/>
<path d="M222.794 46.8545C222.833 46.7885 223.13 46.893 223.454 47.091C223.779 47.289 224.004 47.5035 223.966 47.5695C223.927 47.6355 223.625 47.531 223.306 47.3385C222.987 47.146 222.75 46.926 222.794 46.8545Z" fill="#263238"/>
<path d="M207.878 60.4395C218.4 60.4395 226.93 51.9096 226.93 41.3875C226.93 30.8654 218.4 22.3355 207.878 22.3355C197.356 22.3355 188.826 30.8654 188.826 41.3875C188.826 51.9096 197.356 60.4395 207.878 60.4395Z" fill="#5064BF"/>
<path d="M196.609 42.779L199.557 39.831L205.244 44.8855L216.409 34.144L219.148 37.092L204.826 50.5725L196.609 42.779Z" fill="#FAFAFA"/>
<path d="M218.994 124.454L216.189 114.174C216.189 114.174 202.989 117.612 202.147 116.545C197.357 110.621 194.937 102.481 194.183 99.561C194.288 99.143 194.431 98.6535 194.623 98.0815C194.79 97.5919 195.039 97.1344 195.36 96.7285C195.739 96.2114 196.187 95.7488 196.691 95.3535C196.828 95.2761 196.929 95.1475 196.971 94.9959C197.013 94.8443 196.994 94.6821 196.917 94.545C196.877 94.4683 196.82 94.402 196.751 94.3514C196.681 94.3008 196.6 94.2672 196.515 94.2535C195.965 94.215 194.579 95.051 193.54 96.6405C192.5 98.23 192.187 95.26 192.055 94.182C191.923 93.104 191.345 89.782 190.982 89.5455C190.432 89.221 189.998 89.7325 190.157 90.8105C190.317 91.8885 190.564 95.1555 189.992 95.2105C189.42 95.2655 188.815 89.7105 188.815 89.7105C188.815 89.7105 188.876 88.5115 188.21 88.539C187.006 88.5885 188.089 94.4075 188.21 94.963C188.293 95.3425 187.66 95.414 187.605 94.996C187.55 94.578 187.121 89.496 185.9 89.496C184.96 89.529 186.742 94.292 186.241 95.3975C185.741 96.503 185.257 91.6465 184.36 91.7125C184.03 91.7125 183.783 91.8005 184.465 94.5505C185.038 96.5108 185.718 98.4386 186.5 100.325H186.45C186.45 100.325 191.345 129.046 204.05 127.44C217.575 125.768 218.994 124.454 218.994 124.454Z" fill="#FFBE9D"/>
<path d="M199.826 152.95L119.213 147.081C118.12 147.005 117.102 146.499 116.38 145.675C115.659 144.851 115.293 143.774 115.363 142.681L118.971 93.1535C119.047 92.0608 119.552 91.0426 120.377 90.3212C121.201 89.5999 122.277 89.234 123.371 89.3035L204.05 95.15C205.148 95.2275 206.171 95.7381 206.893 96.5694C207.615 97.4007 207.977 98.4847 207.9 99.583L204.292 149.111C204.254 149.654 204.11 150.185 203.867 150.673C203.624 151.16 203.287 151.595 202.876 151.953C202.465 152.311 201.987 152.584 201.471 152.756C200.954 152.929 200.408 152.999 199.865 152.961L199.826 152.95Z" fill="#8EDFEB"/>
<path d="M199.826 152.95C200.074 152.95 200.316 152.95 200.563 152.95C201.285 152.872 201.972 152.602 202.554 152.169C203.024 151.82 203.414 151.375 203.698 150.864C203.983 150.353 204.155 149.787 204.204 149.204C204.303 147.807 204.419 146.196 204.545 144.386L206.745 113.713C206.976 110.475 207.22 107.085 207.477 103.543C207.543 102.663 207.603 101.767 207.669 100.87C207.824 99.9815 207.801 99.0713 207.603 98.1915C207.354 97.3151 206.81 96.5516 206.063 96.03C205.688 95.7648 205.272 95.564 204.831 95.436C204.376 95.3317 203.912 95.2709 203.445 95.2545L179.13 93.5L123.42 89.4245C122.824 89.3809 122.225 89.4714 121.668 89.6893C121.112 89.9073 120.611 90.2472 120.203 90.684C119.795 91.1182 119.49 91.639 119.312 92.2075C119.157 92.7892 119.076 93.3878 119.07 93.9895C118.886 96.4315 118.703 98.8552 118.52 101.261C118.153 106.075 117.808 110.812 117.486 115.473C116.804 124.79 116.144 133.782 115.517 142.34C115.373 143.379 115.633 144.434 116.243 145.288C116.843 146.129 117.746 146.704 118.762 146.894C120.813 147.098 122.892 147.208 124.916 147.373L136.714 148.236L157.9 149.798L188.568 152.075L196.9 152.713L199.1 152.9L199.837 152.966C199.837 152.966 199.59 152.966 199.1 152.928L196.9 152.785L188.562 152.207L157.883 150.007L136.714 148.5L124.911 147.648C122.881 147.488 120.841 147.384 118.729 147.175C117.647 146.974 116.685 146.363 116.045 145.47C115.402 144.565 115.125 143.451 115.269 142.351C115.891 133.788 116.545 124.801 117.222 115.478C117.559 110.818 117.902 106.08 118.25 101.266C118.426 98.857 118.609 96.4333 118.8 93.995C118.81 93.3711 118.895 92.7507 119.053 92.147C119.345 91.2279 119.938 90.4339 120.736 89.8931C121.534 89.3523 122.491 89.0961 123.453 89.166L179.163 93.236L203.473 95.018C203.954 95.035 204.433 95.0995 204.903 95.2105C205.599 95.4115 206.234 95.7835 206.75 96.2926C207.266 96.8018 207.646 97.4319 207.856 98.1255C207.989 98.5786 208.043 99.0512 208.016 99.5225C208.016 99.9845 207.955 100.43 207.922 100.887C207.856 101.783 207.79 102.68 207.724 103.56C207.464 107.098 207.214 110.486 206.976 113.724C206.014 126.671 205.233 137.148 204.694 144.397C204.556 146.207 204.435 147.807 204.331 149.21C204.276 149.804 204.095 150.38 203.799 150.898C203.503 151.416 203.099 151.864 202.615 152.213C202.024 152.647 201.326 152.912 200.596 152.977C200.413 152.994 200.229 152.994 200.046 152.977L199.826 152.95Z" fill="#263238"/>
<path d="M124.482 126.5L124.124 131.45L123.618 131.412L123.943 126.929L122.782 126.847L122.815 126.396L124.482 126.5Z" fill="#FAFAFA"/>
<path d="M129.25 131.368L129.212 131.819L125.752 131.566V131.208L127.952 129.349C128.546 128.838 128.678 128.519 128.7 128.178C128.744 127.628 128.365 127.226 127.6 127.171C127.35 127.135 127.095 127.157 126.855 127.235C126.614 127.313 126.395 127.446 126.214 127.622L125.879 127.287C126.117 127.063 126.402 126.895 126.713 126.795C127.024 126.695 127.353 126.666 127.677 126.709C128.678 126.781 129.278 127.336 129.217 128.161C129.181 128.461 129.08 128.75 128.92 129.006C128.761 129.263 128.546 129.481 128.293 129.646L126.5 131.17L129.25 131.368Z" fill="#FAFAFA"/>
<path d="M134.486 130.9L133.502 130.828L133.403 132.126L132.897 132.088L132.99 130.79L130.207 130.592V130.223L133.062 127.143L133.612 127.182L130.862 130.185L133.007 130.344L133.089 129.2L133.584 129.233L133.502 130.377L134.486 130.449V130.9Z" fill="#FAFAFA"/>
<path d="M142.049 131.45L141.064 131.378L140.965 132.676L140.459 132.638L140.553 131.345L137.77 131.142V130.773L140.624 127.693L141.174 127.737L138.424 130.735L140.569 130.894L140.652 129.75L141.147 129.789L141.059 130.927L142.049 130.999V131.45Z" fill="#FAFAFA"/>
<path d="M146.372 131.609C146.311 132.451 145.679 133.061 144.474 132.973C143.823 132.951 143.206 132.677 142.753 132.209L143.028 131.829C143.411 132.24 143.94 132.485 144.502 132.511C145.338 132.572 145.811 132.192 145.855 131.593C145.899 130.993 145.536 130.537 144.282 130.444L143.231 130.367L143.666 127.914L146.366 128.112L146.333 128.563L144.078 128.398L143.792 129.954L144.43 130.003C145.915 130.108 146.438 130.735 146.372 131.609Z" fill="#FAFAFA"/>
<path d="M151.25 131.945C151.216 132.35 151.024 132.725 150.715 132.989C150.406 133.253 150.005 133.383 149.6 133.353H149.468C148.154 133.26 147.51 132.297 147.626 130.741C147.747 129.063 148.726 128.255 150.068 128.354C150.476 128.365 150.873 128.486 151.217 128.706L150.981 129.102C150.703 128.912 150.376 128.807 150.04 128.799C148.973 128.722 148.242 129.349 148.143 130.691V131.098C148.304 130.836 148.538 130.626 148.816 130.495C149.095 130.364 149.405 130.318 149.71 130.361C150.102 130.348 150.483 130.489 150.771 130.754C151.059 131.02 151.232 131.389 151.25 131.78C151.256 131.835 151.256 131.89 151.25 131.945ZM150.75 131.945C150.799 131.296 150.348 130.845 149.589 130.79C149.441 130.762 149.29 130.764 149.142 130.794C148.995 130.825 148.856 130.885 148.732 130.97C148.608 131.054 148.501 131.163 148.419 131.289C148.337 131.414 148.28 131.555 148.253 131.703C148.253 131.703 148.253 131.752 148.253 131.774C148.209 132.324 148.627 132.874 149.479 132.929C149.622 132.954 149.768 132.95 149.909 132.918C150.05 132.886 150.184 132.826 150.302 132.742C150.42 132.658 150.52 132.552 150.597 132.43C150.674 132.307 150.726 132.17 150.75 132.028C150.752 131.993 150.752 131.958 150.75 131.923V131.945Z" fill="#FAFAFA"/>
<path d="M157.999 132.495C157.938 133.32 157.295 133.908 156.101 133.82C155.448 133.798 154.829 133.524 154.374 133.056L154.649 132.676C155.038 133.086 155.57 133.33 156.134 133.358C156.954 133.413 157.432 133.067 157.476 132.456C157.52 131.846 157.13 131.444 156.217 131.356L155.865 131.329L155.892 130.955L157.383 129.343L154.858 129.162L154.891 128.711L158.065 128.942L158.037 129.299L156.514 130.949C157.57 131.109 158.054 131.703 157.999 132.495Z" fill="#FAFAFA"/>
<path d="M162.949 132.797C162.918 133.204 162.726 133.582 162.417 133.848C162.108 134.114 161.705 134.247 161.299 134.216C161.249 134.222 161.199 134.222 161.15 134.216C159.841 134.123 159.192 133.16 159.308 131.604C159.429 129.954 160.408 129.118 161.75 129.217C162.157 129.228 162.555 129.35 162.899 129.569L162.663 129.965C162.386 129.773 162.059 129.668 161.722 129.662C160.655 129.585 159.924 130.212 159.825 131.554V131.961C159.986 131.699 160.22 131.49 160.498 131.359C160.777 131.228 161.087 131.181 161.392 131.224C161.788 131.208 162.174 131.349 162.466 131.618C162.758 131.886 162.931 132.259 162.949 132.654C162.953 132.702 162.953 132.75 162.949 132.797ZM162.448 132.797C162.498 132.148 162.047 131.697 161.288 131.642C161.14 131.615 160.988 131.616 160.841 131.647C160.694 131.678 160.554 131.737 160.43 131.822C160.306 131.907 160.2 132.015 160.118 132.141C160.035 132.267 159.979 132.408 159.951 132.555C159.951 132.555 159.951 132.605 159.951 132.627C159.907 133.177 160.325 133.727 161.178 133.782C161.32 133.806 161.466 133.802 161.607 133.77C161.749 133.738 161.882 133.678 162 133.595C162.118 133.511 162.218 133.405 162.295 133.282C162.372 133.159 162.424 133.023 162.448 132.88C162.451 132.845 162.451 132.81 162.448 132.775V132.797Z" fill="#FAFAFA"/>
<path d="M167.75 129.668L167.723 130.026L165.325 134.426L164.775 134.387L167.134 130.053L164.599 129.866L164.527 130.79L164.027 130.757L164.131 129.382L167.75 129.668Z" fill="#FAFAFA"/>
<path d="M174.796 130.179L174.768 130.542L172.37 134.942L171.82 134.904L174.174 130.57L171.639 130.383L171.573 131.307L171.072 131.268L171.171 129.893L174.796 130.179Z" fill="#FAFAFA"/>
<path d="M179.388 134.095C179.328 134.97 178.547 135.454 177.37 135.371C176.193 135.289 175.505 134.689 175.571 133.815C175.59 133.535 175.703 133.269 175.891 133.062C176.08 132.854 176.334 132.716 176.611 132.671C176.385 132.584 176.195 132.426 176.069 132.22C175.942 132.014 175.887 131.773 175.912 131.532C175.973 130.729 176.693 130.278 177.738 130.35C178.783 130.421 179.443 130.982 179.388 131.785C179.376 132.028 179.285 132.26 179.128 132.445C178.97 132.63 178.756 132.758 178.519 132.808C178.788 132.893 179.02 133.067 179.178 133.3C179.336 133.534 179.41 133.814 179.388 134.095ZM178.871 134.051C178.915 133.441 178.42 133.023 177.546 132.951C176.671 132.88 176.132 133.226 176.088 133.837C176.044 134.447 176.528 134.865 177.403 134.937C178.277 135.008 178.827 134.662 178.871 134.051ZM177.573 132.55C178.343 132.605 178.827 132.291 178.866 131.758C178.904 131.224 178.442 130.823 177.705 130.773C176.968 130.724 176.462 131.021 176.424 131.571C176.385 132.121 176.809 132.5 177.573 132.55Z" fill="#FAFAFA"/>
<path d="M184.25 133.309C184.129 134.987 183.15 135.795 181.808 135.696C181.401 135.68 181.005 135.558 180.659 135.344L180.89 134.948C181.17 135.137 181.498 135.242 181.836 135.251C182.897 135.328 183.629 134.701 183.728 133.353V132.952C183.566 133.215 183.331 133.425 183.052 133.556C182.772 133.687 182.46 133.733 182.155 133.689C181.759 133.705 181.372 133.564 181.081 133.295C180.789 133.027 180.615 132.654 180.598 132.259C180.593 132.202 180.593 132.145 180.598 132.088C180.633 131.684 180.826 131.309 181.135 131.046C181.443 130.782 181.843 130.651 182.248 130.68H182.375C183.733 130.79 184.377 131.753 184.25 133.309ZM183.623 132.275C183.662 131.725 183.249 131.175 182.397 131.126C182.109 131.076 181.814 131.143 181.576 131.311C181.338 131.479 181.176 131.735 181.126 132.022C181.124 132.051 181.124 132.081 181.126 132.11C181.077 132.759 181.528 133.21 182.287 133.265C182.583 133.325 182.892 133.265 183.144 133.098C183.397 132.931 183.573 132.671 183.634 132.374V132.275H183.623Z" fill="#FAFAFA"/>
<path d="M160.4 137.774L160.244 139.918L199.767 142.793L199.923 140.648L160.4 137.774Z" fill="#FAFAFA"/>
<path d="M179.347 143.458L179.191 145.603L199.46 147.077L199.616 144.932L179.347 143.458Z" fill="#FAFAFA"/>
<path d="M122.465 112.401L121.959 119.345C121.849 120.848 122.979 122.155 124.481 122.265L135.622 123.077C137.125 123.186 138.432 122.057 138.541 120.554L139.048 113.61C139.157 112.107 138.028 110.8 136.525 110.691L125.384 109.878C123.882 109.769 122.575 110.898 122.465 112.401Z" fill="#455A64"/>
<path d="M122.018 118.63L122.078 117.838L130.614 118.459C130.848 118.483 131.085 118.461 131.311 118.394C131.537 118.326 131.747 118.215 131.93 118.067C132.113 117.918 132.265 117.735 132.377 117.528C132.489 117.32 132.559 117.093 132.583 116.859C132.607 116.624 132.585 116.387 132.518 116.162C132.45 115.936 132.339 115.725 132.191 115.543C132.042 115.36 131.859 115.208 131.652 115.096C131.444 114.984 131.217 114.914 130.983 114.89H130.9L122.364 114.268L122.419 113.471L130.961 114.092C131.629 114.163 132.243 114.491 132.674 115.007C133.105 115.522 133.318 116.185 133.27 116.855C133.221 117.525 132.914 118.15 132.414 118.598C131.913 119.046 131.258 119.282 130.587 119.257L122.018 118.63Z" fill="#8EDFEB"/>
<path d="M132.956 116.423L132.897 117.218L138.755 117.65L138.814 116.855L132.956 116.423Z" fill="#8EDFEB"/>
<path d="M125.365 99.6134L125.098 103.272L167.748 106.382L168.014 102.723L125.365 99.6134Z" fill="#FAFAFA"/>
<path d="M224.114 89.98C222.976 91.8775 223.091 94.259 223.41 96.4535C223.729 98.648 224.224 100.886 223.735 103.053C223.41 104.478 222.635 105.902 223.009 107.316C223.256 108.322 224.01 109.114 224.384 110.066C224.934 111.441 224.62 112.97 224.439 114.433C224.257 115.896 224.268 117.529 225.236 118.635C226.441 120.01 228.657 119.949 230.307 119.185C231.957 118.42 233.266 117.062 234.795 116.066C236.324 115.071 238.315 114.416 239.96 115.208C240.719 115.571 241.373 116.22 242.209 116.308C243.381 116.396 244.305 115.324 245.438 115.01C246.411 114.746 247.451 115.071 248.452 114.955C250.492 114.73 251.999 112.53 251.713 110.5C251.522 109.487 251.022 108.557 250.281 107.839C249.541 107.121 248.596 106.65 247.577 106.491C246.714 106.348 245.674 106.326 245.201 105.589C244.497 104.489 245.751 103.108 245.515 101.838C245.361 100.925 244.492 100.314 243.639 99.9405C242.787 99.5665 241.846 99.319 241.186 98.67C240.004 97.515 240.136 95.623 239.773 94.006C239.173 91.344 236.682 85.8935 231.259 85.36" fill="#263238"/>
<path d="M221.601 241.45L221.705 237.567L228.982 237.715L228.888 243.397H228.437C226.43 243.468 218.213 243.617 216.887 243.182C215.391 242.715 221.601 241.45 221.601 241.45Z" fill="#8EDFEB"/>
<path d="M226.254 243.281C226.374 242.672 226.715 242.128 227.211 241.752C227.699 241.379 228.309 241.202 228.921 241.257L228.883 243.287L226.254 243.281Z" fill="#8EDFEB"/>
<path d="M218.565 242.17C218.565 242.17 216.365 242.753 216.651 243.116C216.937 243.479 225.22 243.666 228.888 243.391V243.232L219.203 243.122C219.203 243.122 218.988 242.198 218.565 242.17Z" fill="#8EDFEB"/>
<path d="M228.993 243.226H228.509L227.189 243.259H222.822C221.117 243.259 219.571 243.166 218.455 243.105L217.135 243.023L216.777 242.995H217.135L218.46 243.045C219.56 243.089 221.117 243.144 222.822 243.177C224.527 243.21 226.067 243.215 227.183 243.21H228.993V243.226Z" fill="#263238"/>
<path d="M219.192 243.238C219.137 243.016 219.058 242.802 218.955 242.599C218.828 242.411 218.681 242.238 218.515 242.082C218.731 242.184 218.912 242.349 219.032 242.555C219.153 242.761 219.209 242.999 219.192 243.238Z" fill="#263238"/>
<path d="M221.358 242.187C221.273 242.102 221.198 242.008 221.133 241.906C221.029 241.742 220.963 241.588 220.985 241.577C221.007 241.566 221.106 241.692 221.21 241.857C221.315 242.022 221.38 242.176 221.358 242.187Z" fill="#263238"/>
<path d="M221.953 241.89C221.861 241.843 221.776 241.784 221.7 241.714C221.573 241.599 221.491 241.489 221.507 241.472C221.524 241.456 221.639 241.533 221.76 241.648C221.881 241.764 221.969 241.874 221.953 241.89Z" fill="#263238"/>
<path d="M222.338 241.208C222.338 241.236 222.167 241.252 221.958 241.252C221.749 241.252 221.579 241.252 221.579 241.203C221.7 241.16 221.83 241.146 221.958 241.164C222.086 241.151 222.216 241.166 222.338 241.208Z" fill="#263238"/>
<path d="M222.475 240.73C222.349 240.811 222.201 240.851 222.052 240.845C221.903 240.869 221.75 240.844 221.617 240.773C221.76 240.763 221.903 240.763 222.046 240.773C222.186 240.74 222.331 240.725 222.475 240.73Z" fill="#263238"/>
<path d="M221.1 241.549C220.945 241.576 220.787 241.576 220.633 241.549C220.464 241.523 220.299 241.482 220.138 241.428C220.04 241.397 219.946 241.356 219.857 241.307C219.803 241.272 219.762 241.22 219.742 241.158C219.736 241.123 219.74 241.087 219.754 241.054C219.767 241.021 219.79 240.992 219.819 240.971C219.999 240.889 220.203 240.871 220.395 240.921C220.588 240.971 220.757 241.086 220.875 241.246C220.946 241.338 220.995 241.446 221.018 241.56V241.686C220.974 241.542 220.905 241.406 220.814 241.285C220.711 241.159 220.573 241.066 220.418 241.015C220.329 240.983 220.235 240.969 220.14 240.974C220.046 240.978 219.953 241.002 219.868 241.043C219.791 241.098 219.819 241.186 219.901 241.235C219.985 241.279 220.071 241.318 220.16 241.351C220.315 241.411 220.475 241.457 220.638 241.488C220.793 241.5 220.947 241.52 221.1 241.549Z" fill="#263238"/>
<path d="M221.001 241.571C220.946 241.472 220.93 241.356 220.957 241.247C220.973 241.12 221.022 241.001 221.1 240.9C221.14 240.83 221.197 240.772 221.267 240.731C221.337 240.691 221.416 240.669 221.496 240.669C221.542 240.683 221.581 240.713 221.606 240.753C221.631 240.794 221.641 240.842 221.634 240.889C221.62 240.962 221.592 241.031 221.551 241.093C221.488 241.195 221.413 241.29 221.326 241.373C221.25 241.456 221.156 241.52 221.051 241.56C221.133 241.488 221.21 241.411 221.282 241.329C221.359 241.246 221.425 241.153 221.48 241.054C221.546 240.955 221.595 240.779 221.48 240.757C221.364 240.735 221.238 240.856 221.166 240.95C221.096 241.038 221.049 241.141 221.029 241.252C221.011 241.357 221.002 241.464 221.001 241.571Z" fill="#263238"/>
<path d="M228.883 241.235C228.7 241.218 228.515 241.218 228.333 241.235C227.902 241.274 227.492 241.434 227.149 241.697C226.806 241.96 226.545 242.315 226.397 242.721C226.281 243.029 226.265 243.238 226.248 243.238C226.243 243.188 226.243 243.138 226.248 243.089C226.315 242.577 226.559 242.104 226.94 241.754C227.32 241.404 227.811 241.199 228.327 241.175C228.459 241.164 228.591 241.164 228.723 241.175C228.778 241.189 228.832 241.209 228.883 241.235Z" fill="#263238"/>
<path d="M228.19 238.194C228.234 238.691 228.245 239.191 228.223 239.69C228.234 240.187 228.216 240.685 228.168 241.18C228.109 240.186 228.109 239.189 228.168 238.194H228.19Z" fill="#263238"/>
<path d="M225.352 242.55C225.001 242.627 224.642 242.655 224.285 242.632C223.928 242.642 223.571 242.607 223.223 242.528C223.223 242.528 223.702 242.528 224.29 242.528C224.879 242.528 225.346 242.55 225.352 242.55Z" fill="#263238"/>
<path d="M226.776 242.583C226.748 242.652 226.717 242.72 226.683 242.786C226.628 242.891 226.606 242.995 226.578 242.99C226.551 242.984 226.545 242.874 226.606 242.753C226.666 242.632 226.76 242.55 226.776 242.583Z" fill="#263238"/>
<path d="M227.326 241.923C227.302 241.985 227.264 242.042 227.216 242.088C227.139 242.16 227.068 242.209 227.051 242.193C227.035 242.176 227.079 242.099 227.156 242.027C227.233 241.956 227.31 241.906 227.326 241.923Z" fill="#263238"/>
<path d="M228.102 241.631C228.102 241.659 227.997 241.632 227.893 241.692C227.788 241.752 227.706 241.78 227.689 241.763C227.673 241.747 227.733 241.648 227.865 241.604C227.997 241.56 228.107 241.609 228.102 241.631Z" fill="#263238"/>
<path d="M228.652 241.5C228.63 241.536 228.597 241.565 228.558 241.582C228.517 241.594 228.473 241.594 228.432 241.582C228.451 241.544 228.485 241.514 228.525 241.5C228.586 241.478 228.641 241.478 228.652 241.5Z" fill="#263238"/>
<path d="M242.242 241.45L242.347 237.567L249.618 237.715L249.524 243.397H249.073C247.066 243.468 238.854 243.617 237.523 243.182C236.033 242.715 242.242 241.45 242.242 241.45Z" fill="#8EDFEB"/>
<path d="M246.89 243.281C247.01 242.67 247.353 242.126 247.852 241.752C248.339 241.377 248.95 241.2 249.563 241.257L249.519 243.287L246.89 243.281Z" fill="#8EDFEB"/>
<path d="M239.206 242.17C239.206 242.17 237.006 242.753 237.287 243.116C237.567 243.479 245.856 243.666 249.524 243.391V243.232L239.833 243.122C239.833 243.122 239.63 242.198 239.206 242.17Z" fill="#8EDFEB"/>
<path d="M249.634 243.226H249.15L247.825 243.259H243.458C241.753 243.259 240.207 243.166 239.096 243.105L237.771 243.023L237.413 242.995H237.776L239.096 243.045C240.196 243.089 241.753 243.144 243.458 243.177C245.163 243.21 246.708 243.215 247.825 243.21H249.634V243.226Z" fill="#263238"/>
<path d="M239.828 243.238C239.775 243.017 239.698 242.803 239.597 242.599C239.47 242.411 239.322 242.238 239.157 242.082C239.372 242.184 239.552 242.349 239.672 242.556C239.792 242.762 239.846 243 239.828 243.238Z" fill="#263238"/>
<path d="M242 242.187C241.916 242.103 241.842 242.008 241.78 241.906C241.681 241.742 241.609 241.588 241.631 241.577C241.654 241.566 241.753 241.692 241.852 241.857C241.915 241.96 241.965 242.071 242 242.187Z" fill="#263238"/>
<path d="M242.594 241.89C242.501 241.844 242.416 241.785 242.341 241.714C242.22 241.599 242.132 241.489 242.149 241.472C242.165 241.456 242.275 241.533 242.402 241.648C242.528 241.764 242.61 241.874 242.594 241.89Z" fill="#263238"/>
<path d="M242.979 241.208C242.979 241.236 242.809 241.252 242.6 241.252C242.391 241.252 242.22 241.252 242.22 241.203C242.342 241.16 242.472 241.146 242.6 241.164C242.728 241.151 242.857 241.166 242.979 241.208Z" fill="#263238"/>
<path d="M243.1 240.729C242.971 240.808 242.822 240.849 242.671 240.845C242.522 240.869 242.37 240.844 242.237 240.773C242.379 240.762 242.523 240.762 242.666 240.773C242.808 240.74 242.954 240.725 243.1 240.729Z" fill="#263238"/>
<path d="M241.764 241.549C241.609 241.576 241.451 241.576 241.296 241.549C241.128 241.523 240.962 241.482 240.801 241.428C240.701 241.399 240.605 241.358 240.515 241.307C240.461 241.274 240.421 241.22 240.405 241.158C240.399 241.124 240.403 241.088 240.415 241.055C240.428 241.022 240.449 240.993 240.477 240.971C240.657 240.889 240.861 240.871 241.054 240.921C241.246 240.971 241.415 241.086 241.533 241.246C241.604 241.339 241.654 241.446 241.681 241.56C241.692 241.601 241.692 241.645 241.681 241.686C241.636 241.541 241.565 241.405 241.472 241.285C241.372 241.158 241.236 241.064 241.082 241.015C240.902 240.953 240.704 240.962 240.532 241.043C240.46 241.098 240.488 241.186 240.565 241.235C240.647 241.285 240.736 241.324 240.829 241.351C240.984 241.411 241.144 241.457 241.307 241.488C241.582 241.532 241.764 241.532 241.764 241.549Z" fill="#263238"/>
<path d="M241.643 241.571C241.585 241.473 241.568 241.357 241.593 241.247C241.611 241.123 241.658 241.006 241.731 240.906C241.771 240.838 241.829 240.781 241.897 240.741C241.965 240.701 242.042 240.678 242.121 240.675C242.168 240.686 242.209 240.716 242.236 240.756C242.262 240.797 242.272 240.847 242.264 240.895C242.251 240.968 242.221 241.038 242.176 241.098C242.115 241.202 242.039 241.297 241.951 241.379C241.878 241.462 241.785 241.527 241.681 241.566C241.76 241.493 241.836 241.416 241.907 241.335C241.984 241.25 242.052 241.158 242.11 241.06C242.176 240.961 242.22 240.785 242.11 240.763C242 240.741 241.874 240.862 241.797 240.955C241.732 241.046 241.685 241.149 241.659 241.258C241.643 241.361 241.637 241.466 241.643 241.571Z" fill="#263238"/>
<path d="M249.524 241.235C249.341 241.218 249.157 241.218 248.974 241.235C248.544 241.274 248.134 241.435 247.791 241.698C247.448 241.96 247.187 242.315 247.038 242.721C246.923 243.029 246.906 243.238 246.89 243.238C246.879 243.189 246.879 243.138 246.89 243.089C246.905 242.956 246.935 242.825 246.978 242.699C247.115 242.273 247.378 241.899 247.733 241.627C248.087 241.355 248.517 241.197 248.963 241.175C249.097 241.164 249.231 241.164 249.365 241.175C249.421 241.184 249.475 241.205 249.524 241.235Z" fill="#263238"/>
<path d="M248.831 238.194C248.89 239.189 248.89 240.186 248.831 241.18C248.787 240.685 248.776 240.187 248.798 239.69C248.779 239.191 248.79 238.692 248.831 238.194Z" fill="#263238"/>
<path d="M245.988 242.55C245.639 242.627 245.282 242.655 244.926 242.632C244.569 242.645 244.212 242.609 243.865 242.528C243.865 242.528 244.343 242.528 244.926 242.528C245.509 242.528 245.988 242.55 245.988 242.55Z" fill="#263238"/>
<path d="M247.412 242.583C247.412 242.583 247.374 242.682 247.324 242.786C247.275 242.891 247.242 242.995 247.22 242.99C247.198 242.984 247.187 242.874 247.22 242.753C247.253 242.632 247.401 242.55 247.412 242.583Z" fill="#263238"/>
<path d="M247.968 241.923C247.943 241.985 247.906 242.042 247.858 242.088C247.781 242.16 247.704 242.209 247.687 242.193C247.671 242.176 247.72 242.099 247.797 242.027C247.874 241.956 247.946 241.906 247.968 241.923Z" fill="#263238"/>
<path d="M248.738 241.631C248.738 241.659 248.639 241.632 248.529 241.692C248.419 241.752 248.347 241.78 248.325 241.763C248.303 241.747 248.369 241.648 248.501 241.604C248.633 241.56 248.749 241.609 248.738 241.631Z" fill="#263238"/>
<path d="M249.287 241.5C249.266 241.536 249.233 241.565 249.194 241.582C249.153 241.594 249.109 241.594 249.068 241.582C249.068 241.582 249.106 241.522 249.166 241.5C249.227 241.478 249.282 241.478 249.287 241.5Z" fill="#263238"/>
<path d="M220.132 141.653L216.645 193.633V240.51H230.582C230.582 240.51 231.171 200.085 230.802 197.439C230.802 197.439 233.079 156.948 233.338 157.526C233.888 158.708 233.855 193.127 234.636 197.39C235.417 201.652 239.036 240.51 239.036 240.51H252.45L247.94 195.96C247.847 190.592 246.466 143.451 246.466 143.451L220.132 141.653Z" fill="#263238"/>
<path d="M252.148 237.848C251.996 237.956 251.817 238.019 251.631 238.029C251.127 238.074 250.62 237.99 250.157 237.787C249.514 237.469 248.836 237.225 248.138 237.061C247.352 236.946 246.532 237.358 245.751 237.881C245.033 238.447 244.19 238.836 243.293 239.014C242.548 239.084 241.798 238.992 241.093 238.744C240.624 238.588 240.164 238.405 239.718 238.194C239.549 238.129 239.391 238.038 239.25 237.925C239.25 237.875 239.971 238.211 241.148 238.563C241.831 238.771 242.549 238.838 243.26 238.761C244.114 238.58 244.914 238.204 245.597 237.661C245.988 237.396 246.405 237.172 246.84 236.99C247.263 236.823 247.721 236.766 248.171 236.825C248.894 236.993 249.593 237.254 250.25 237.6C250.683 237.807 251.156 237.915 251.636 237.914C251.961 237.903 252.137 237.82 252.148 237.848Z" fill="#455A64"/>
<path d="M230.698 237.523C230.56 237.393 230.413 237.274 230.258 237.165C229.811 236.916 229.289 236.838 228.789 236.945C228.048 237.155 227.353 237.504 226.743 237.974C226.352 238.238 225.936 238.463 225.5 238.645C225.015 238.845 224.484 238.907 223.966 238.826C222.91 238.645 222.074 238.095 221.216 237.908C220.468 237.748 219.691 237.782 218.961 238.007C217.696 238.386 216.953 238.777 216.931 238.722C217.086 238.601 217.256 238.501 217.437 238.425C217.91 238.181 218.401 237.975 218.906 237.809C219.667 237.545 220.486 237.49 221.276 237.649C222.173 237.842 223.02 238.386 223.988 238.546C224.956 238.705 225.841 238.205 226.573 237.748C227.215 237.273 227.946 236.933 228.723 236.747C229.27 236.648 229.833 236.765 230.296 237.072C230.476 237.174 230.617 237.333 230.698 237.523Z" fill="#455A64"/>
<path d="M245.526 152.433C245.282 152.592 245.002 152.687 244.712 152.708C244.019 152.811 243.312 152.767 242.638 152.577C241.964 152.388 241.338 152.057 240.801 151.607C240.394 151.261 240.213 150.98 240.251 150.958C240.964 151.586 241.81 152.043 242.726 152.296C243.642 152.548 244.603 152.589 245.537 152.416L245.526 152.433Z" fill="#455A64"/>
<path d="M222.387 150.403C222.42 150.403 222.42 150.684 222.277 151.091C222.083 151.623 221.76 152.1 221.337 152.477C220.911 152.852 220.402 153.12 219.852 153.258C219.428 153.351 219.159 153.318 219.159 153.285C219.897 153.118 220.581 152.765 221.145 152.261C221.71 151.757 222.137 151.118 222.387 150.403Z" fill="#455A64"/>
<path d="M189.448 131.247L189.085 136.197L188.579 136.164L188.903 131.681L187.743 131.593L187.776 131.142L189.448 131.247Z" fill="#FAFAFA"/>
<path d="M194.194 136.097L194.161 136.548L190.702 136.301V135.938L192.902 134.079C193.496 133.573 193.628 133.249 193.655 132.908C193.694 132.358 193.32 131.956 192.555 131.901C192.305 131.868 192.051 131.892 191.811 131.97C191.571 132.048 191.352 132.178 191.169 132.352L190.85 132C191.088 131.776 191.373 131.608 191.684 131.508C191.995 131.409 192.325 131.379 192.649 131.423C193.65 131.494 194.249 132.05 194.189 132.875C194.156 133.348 193.974 133.76 193.265 134.359L191.472 135.889L194.194 136.097Z" fill="#FAFAFA"/>
<path d="M198.688 135.459C198.627 136.279 197.984 136.873 196.796 136.785C196.141 136.763 195.521 136.489 195.063 136.02L195.338 135.635C195.53 135.842 195.76 136.008 196.015 136.125C196.271 136.242 196.548 136.307 196.829 136.318C197.643 136.378 198.121 136.031 198.171 135.421C198.22 134.81 197.824 134.409 196.906 134.321H196.554L196.581 133.947L198.077 132.335L195.553 132.154L195.586 131.703L198.754 131.934V132.291L197.23 133.941C198.259 134.073 198.748 134.667 198.688 135.459Z" fill="#FAFAFA"/>
<path d="M224.675 87.076C224.184 87.5757 223.805 88.175 223.565 88.8335C223.325 89.492 223.229 90.1942 223.284 90.893C223.406 92.2907 223.86 93.6391 224.609 94.8255" fill="#263238"/>
<path d="M236.682 108.575L237.43 91.344L230.516 86.108L224.235 89.177C224.235 89.177 224.026 97.064 224.235 100.485C224.444 103.906 227.893 104.269 227.893 104.269C227.893 104.269 227.794 106.155 227.684 108.119C227.623 109.299 228.027 110.456 228.81 111.341C229.592 112.226 230.691 112.77 231.869 112.854C233.061 112.938 234.237 112.544 235.138 111.76C236.04 110.976 236.593 109.866 236.676 108.674C236.676 108.641 236.682 108.608 236.682 108.575Z" fill="#FFBE9D"/>
<path d="M225.357 94.93C225.357 95.017 225.383 95.1021 225.431 95.1744C225.48 95.2468 225.548 95.3032 225.629 95.3365C225.709 95.3698 225.798 95.3785 225.883 95.3615C225.968 95.3446 226.047 95.3027 226.108 95.2411C226.17 95.1796 226.212 95.1012 226.229 95.0158C226.246 94.9305 226.237 94.842 226.204 94.7616C226.17 94.6812 226.114 94.6125 226.042 94.5641C225.969 94.5158 225.884 94.49 225.797 94.49C225.739 94.49 225.682 94.5014 225.629 94.5235C225.575 94.5456 225.527 94.578 225.486 94.6189C225.445 94.6597 225.413 94.7082 225.391 94.7616C225.368 94.815 225.357 94.8722 225.357 94.93Z" fill="#263238"/>
<path d="M224.499 94.4515C224.554 94.5065 224.879 94.2315 225.346 94.204C225.814 94.1765 226.171 94.4075 226.221 94.347C226.27 94.2865 226.188 94.215 226.034 94.105C225.825 93.9692 225.578 93.9054 225.33 93.9235C225.082 93.9351 224.845 94.0301 224.659 94.193C224.516 94.314 224.472 94.424 224.499 94.4515Z" fill="#263238"/>
<path d="M230.45 94.93C230.45 95.0452 230.496 95.1557 230.577 95.2372C230.659 95.3187 230.769 95.3645 230.885 95.3645C230.972 95.3656 231.057 95.3408 231.13 95.2934C231.203 95.2459 231.26 95.1779 231.294 95.0979C231.329 95.018 231.339 94.9296 231.323 94.844C231.307 94.7585 231.266 94.6796 231.205 94.6173C231.144 94.555 231.066 94.5121 230.981 94.4941C230.896 94.476 230.808 94.4836 230.727 94.5159C230.646 94.5482 230.577 94.6037 230.527 94.6755C230.478 94.7472 230.451 94.832 230.45 94.919V94.93Z" fill="#263238"/>
<path d="M229.724 94.4515C229.779 94.5065 230.104 94.2315 230.571 94.204C231.039 94.1765 231.396 94.4075 231.446 94.347C231.495 94.2865 231.413 94.215 231.259 94.105C231.049 93.9713 230.802 93.9077 230.554 93.9235C230.306 93.9393 230.069 94.0337 229.878 94.193C229.741 94.314 229.697 94.424 229.724 94.4515Z" fill="#263238"/>
<path d="M229.576 98.879C228.856 99.2424 228.09 99.5052 227.299 99.66C227.473 99.8962 227.721 100.068 228.004 100.149C228.286 100.229 228.588 100.214 228.861 100.105C228.985 100.078 229.102 100.027 229.206 99.9536C229.31 99.8806 229.399 99.7878 229.467 99.6804C229.535 99.573 229.581 99.4532 229.603 99.328C229.624 99.2027 229.621 99.0744 229.592 98.9505L229.576 98.879Z" fill="#FAFAFA"/>
<path d="M227.893 104.269C229.518 104.202 231.09 103.671 232.425 102.74C232.425 102.74 231.396 105.253 227.97 105.11L227.893 104.269Z" fill="#EB996E"/>
<path d="M228.019 98.45C227.767 98.3887 227.508 98.3573 227.249 98.3565C227.128 98.3565 227.013 98.3565 226.985 98.2465C226.97 98.1139 226.995 97.9799 227.057 97.8615C227.156 97.5535 227.266 97.229 227.376 96.888C227.601 96.1895 227.794 95.5625 227.926 95.1005C228.018 94.8569 228.075 94.6013 228.096 94.3415C227.97 94.5677 227.87 94.8076 227.799 95.0565C227.634 95.5075 227.42 96.1565 227.194 96.8275C227.09 97.174 226.985 97.4985 226.886 97.812C226.819 97.9663 226.804 98.1378 226.842 98.3015C226.859 98.3438 226.885 98.3815 226.92 98.4112C226.954 98.4409 226.996 98.4618 227.04 98.472C227.107 98.483 227.176 98.483 227.244 98.472C227.502 98.5004 227.763 98.493 228.019 98.45Z" fill="#263238"/>
<path d="M236.923 97.471C236.87 96.9013 236.933 96.3266 237.11 95.7825C237.199 95.5108 237.36 95.2685 237.576 95.0815C237.792 94.8945 238.055 94.7698 238.337 94.721C238.663 94.7037 238.984 94.8058 239.24 95.0083C239.497 95.2108 239.67 95.4998 239.729 95.821C239.769 96.1492 239.71 96.482 239.559 96.7763C239.408 97.0705 239.172 97.3125 238.882 97.471C238.588 97.6212 238.265 97.7037 237.936 97.7122C237.606 97.7208 237.279 97.6553 236.978 97.5205" fill="#FFBE9D"/>
<path d="M237.925 96.9705C237.925 96.932 238.106 97.02 238.348 96.943C238.499 96.891 238.629 96.793 238.721 96.6626C238.813 96.5323 238.861 96.3764 238.86 96.217C238.875 96.1367 238.871 96.0541 238.851 95.9751C238.83 95.8962 238.791 95.8228 238.739 95.7605C238.632 95.6794 238.498 95.6403 238.365 95.6505C238.112 95.6505 237.93 95.7385 237.914 95.7C237.897 95.6615 238.029 95.5405 238.337 95.4525C238.431 95.4305 238.529 95.4289 238.624 95.4478C238.719 95.4668 238.809 95.5059 238.887 95.5625C238.977 95.6487 239.045 95.7549 239.086 95.8725C239.127 95.99 239.14 96.1156 239.124 96.239C239.109 96.4732 239.021 96.6968 238.871 96.877C238.74 97.024 238.56 97.1179 238.365 97.141C238.051 97.174 237.892 96.9925 237.925 96.9705Z" fill="#EB996E"/>
<path d="M224.285 87.4115C222.767 89.298 224.791 90.486 225.797 91.2615C226.573 91.8665 228.861 93.4615 230.868 92.708C230.159 91.7565 229.35 91.3385 229.037 90.431C229.856 91.586 230.72 92.4605 232.128 92.631C231.847 91.8115 231.451 90.145 231.754 90.079C232.128 93.335 235.18 96.074 237.281 95.029C237.674 94.0048 237.82 92.9022 237.708 91.8109C237.595 90.7196 237.226 89.6703 236.632 88.748C236.022 87.8361 235.23 87.0607 234.305 86.4709C233.38 85.881 232.343 85.4897 231.259 85.3215C230.014 85.1322 228.743 85.2215 227.537 85.5829C226.331 85.9443 225.22 86.5689 224.285 87.4115Z" fill="#263238"/>
<path d="M238.7 97.7845C238.7 97.7515 238.959 97.999 238.854 98.4665C238.821 98.6013 238.759 98.727 238.671 98.8346C238.584 98.9421 238.473 99.0287 238.348 99.088C238.192 99.1594 238.02 99.1932 237.848 99.1865C237.677 99.1798 237.509 99.1329 237.358 99.0495C237.211 98.9603 237.085 98.8395 236.99 98.6959C236.895 98.5523 236.833 98.3894 236.808 98.219C236.774 97.9448 236.845 97.6679 237.006 97.4435C237.281 97.0695 237.589 97.031 237.589 97.0585C237.426 97.2003 237.287 97.3674 237.177 97.5535C237.071 97.7445 237.034 97.9657 237.072 98.1805C237.093 98.3074 237.14 98.4284 237.211 98.5356C237.283 98.6427 237.376 98.7335 237.485 98.802C237.596 98.8642 237.72 98.901 237.847 98.9095C237.975 98.9181 238.103 98.8983 238.222 98.8515C238.319 98.8112 238.408 98.7506 238.481 98.6739C238.554 98.5971 238.61 98.5058 238.645 98.406C238.704 98.2045 238.723 97.9932 238.7 97.7845Z" fill="#8EDFEB"/>
<path d="M214.924 126.12L220.083 125.048L221.65 133.727C220.325 138.175 219.224 142.687 218.35 147.246L230.45 154.797L232.315 151.255L235.301 154.093L248.177 147.246C246.587 138.996 242.572 136.84 242.572 135.498C242.572 131.648 242.022 135.388 245.251 122.633C248.479 109.879 236.698 108.576 236.698 108.576C236.698 108.576 236.962 110.357 227.59 108.658C224.158 108.036 210.458 115.23 210.458 115.23L214.924 126.12Z" fill="#5064BF"/>
<path d="M227.574 108.658C227.574 108.658 227.464 118.096 229.713 117.458C231.963 116.82 236.495 112.788 236.682 108.553L227.574 108.658Z" fill="#FFBE9D"/>
<path d="M228.146 125.196C228.119 124.078 228.183 122.96 228.338 121.852C228.403 120.74 228.565 119.636 228.822 118.552C228.85 119.673 228.783 120.793 228.624 121.902C228.558 123.012 228.398 124.114 228.146 125.196Z" fill="#263238"/>
<path d="M229.581 124.432C229.416 123.549 229.344 122.651 229.367 121.754C229.297 120.857 229.321 119.956 229.438 119.064C229.603 119.949 229.675 120.848 229.653 121.748C229.728 122.643 229.704 123.543 229.581 124.432Z" fill="#263238"/>
<path d="M227.563 126.121C227.486 126.121 227.431 125.879 227.563 125.609C227.695 125.34 227.909 125.219 227.959 125.279C228.008 125.34 227.92 125.516 227.827 125.725C227.733 125.934 227.645 126.126 227.563 126.121Z" fill="#263238"/>
<path d="M227.871 126.121C227.794 126.121 227.766 125.923 227.805 125.708C227.843 125.494 227.948 125.34 228.025 125.356C228.102 125.373 228.129 125.554 228.091 125.769C228.052 125.983 227.948 126.137 227.871 126.121Z" fill="#263238"/>
<path d="M228.162 126.126C228.085 126.126 228.003 125.967 227.981 125.752C227.959 125.538 228.008 125.362 228.091 125.356C228.173 125.351 228.25 125.516 228.267 125.725C228.283 125.934 228.25 126.115 228.162 126.126Z" fill="#263238"/>
<path d="M228.641 126.274C228.558 126.274 228.498 125.999 228.355 125.724C228.212 125.449 228.047 125.207 228.102 125.141C228.157 125.075 228.448 125.24 228.619 125.603C228.789 125.966 228.718 126.28 228.641 126.274Z" fill="#263238"/>
<path d="M229.636 125.279C229.565 125.306 229.416 125.07 229.416 124.729C229.416 124.388 229.565 124.179 229.636 124.179C229.708 124.179 229.702 124.437 229.702 124.729C229.702 125.02 229.713 125.251 229.636 125.279Z" fill="#263238"/>
<path d="M229.933 125.125C229.856 125.125 229.774 124.949 229.752 124.718C229.73 124.487 229.752 124.289 229.856 124.284C229.961 124.278 230.016 124.46 230.038 124.691C230.06 124.922 230.01 125.12 229.933 125.125Z" fill="#263238"/>
<path d="M230.401 125.048C230.34 125.097 230.17 124.982 230.021 124.789C229.873 124.597 229.801 124.404 229.867 124.36C229.933 124.316 230.098 124.426 230.247 124.613C230.395 124.8 230.45 124.998 230.401 125.048Z" fill="#263238"/>
<path d="M230.555 124.894C230.483 124.927 230.346 124.784 230.17 124.63C229.994 124.476 229.84 124.361 229.867 124.284C229.895 124.207 230.142 124.218 230.362 124.416C230.582 124.614 230.626 124.85 230.555 124.894Z" fill="#263238"/>
<path d="M226.886 109.698C226.886 109.665 227.051 109.582 227.244 109.758C227.323 109.851 227.362 109.971 227.352 110.093C227.343 110.214 227.286 110.327 227.194 110.407C227.149 110.448 227.096 110.479 227.038 110.498C226.981 110.518 226.92 110.525 226.859 110.521C226.798 110.516 226.739 110.499 226.685 110.471C226.631 110.443 226.584 110.404 226.545 110.357C226.518 110.33 226.496 110.298 226.479 110.264C226.453 110.191 226.445 110.113 226.456 110.037C226.466 109.96 226.495 109.887 226.54 109.824C226.699 109.615 226.892 109.665 226.881 109.698C226.812 109.764 226.756 109.842 226.716 109.929C226.661 110.077 226.716 110.275 226.941 110.248C227.167 110.22 227.183 110.028 227.095 109.89C227.007 109.753 226.892 109.742 226.886 109.698Z" fill="#263238"/>
<path d="M227.106 111.474C227.057 111.534 226.903 111.474 226.754 111.397C226.606 111.32 226.523 111.155 226.567 111.089C226.611 111.023 226.771 111.056 226.919 111.166C227.068 111.276 227.15 111.408 227.106 111.474Z" fill="#263238"/>
<path d="M227.249 111.848C227.315 111.898 227.249 112.09 227.029 112.173C226.809 112.255 226.628 112.173 226.644 112.09C226.661 112.008 226.787 111.964 226.925 111.909C227.062 111.854 227.189 111.799 227.249 111.848Z" fill="#263238"/>
<path d="M227.26 112.778C227.321 112.827 227.26 112.97 227.178 113.097C227.095 113.223 226.936 113.289 226.875 113.234C226.815 113.179 226.848 113.042 226.958 112.915C227.068 112.789 227.194 112.75 227.26 112.778Z" fill="#263238"/>
<path d="M227.024 113.784C227.024 113.751 227.244 113.674 227.502 113.911C227.575 113.98 227.627 114.068 227.653 114.165C227.679 114.262 227.678 114.364 227.651 114.461C227.613 114.588 227.537 114.7 227.432 114.781C227.328 114.862 227.2 114.908 227.068 114.912C226.937 114.902 226.814 114.851 226.715 114.766C226.616 114.68 226.547 114.566 226.518 114.439C226.493 114.332 226.505 114.221 226.549 114.122C226.594 114.023 226.67 113.941 226.765 113.889C227.084 113.713 227.315 113.888 227.26 113.916C227.124 113.93 226.994 113.977 226.881 114.054C226.832 114.089 226.795 114.139 226.777 114.196C226.758 114.253 226.758 114.315 226.776 114.373C226.799 114.441 226.841 114.501 226.898 114.545C226.955 114.589 227.023 114.615 227.095 114.62C227.145 114.617 227.193 114.605 227.238 114.583C227.283 114.561 227.323 114.531 227.355 114.493C227.388 114.456 227.413 114.412 227.429 114.365C227.445 114.318 227.451 114.268 227.447 114.219C227.442 114.143 227.415 114.071 227.37 114.009C227.205 113.85 227.018 113.85 227.024 113.784Z" fill="#263238"/>
<path d="M227.64 115.385C227.678 115.456 227.557 115.588 227.425 115.737C227.293 115.885 227.183 116.023 227.106 115.995C227.029 115.968 227.04 115.748 227.211 115.55C227.381 115.352 227.607 115.313 227.64 115.385Z" fill="#263238"/>
<path d="M227.948 116.38C228.019 116.407 228.008 116.628 227.838 116.826C227.667 117.024 227.447 117.062 227.409 116.996C227.37 116.93 227.491 116.787 227.623 116.639C227.755 116.49 227.871 116.352 227.948 116.38Z" fill="#263238"/>
<path d="M228.113 117.992C228.036 117.992 227.953 117.816 227.937 117.579C227.92 117.343 227.937 117.156 228.041 117.145C228.146 117.134 228.201 117.321 228.217 117.557C228.234 117.794 228.195 117.986 228.113 117.992Z" fill="#263238"/>
<path d="M230.786 118.25C230.747 118.316 230.593 118.305 230.445 118.25C230.296 118.195 230.208 118.041 230.247 117.97C230.285 117.898 230.439 117.915 230.588 117.97C230.736 118.025 230.824 118.151 230.786 118.25Z" fill="#263238"/>
<path d="M231.715 117.15C231.77 117.205 231.676 117.387 231.512 117.557C231.347 117.728 231.16 117.821 231.105 117.766C231.05 117.711 231.138 117.53 231.308 117.359C231.479 117.188 231.654 117.1 231.715 117.15Z" fill="#263238"/>
<path d="M232.474 116.534C232.474 116.49 232.617 116.468 232.826 116.474H232.854L232.892 116.506C232.941 116.556 232.977 116.616 232.997 116.682C233.017 116.748 233.021 116.818 233.008 116.886C232.992 116.973 232.949 117.052 232.884 117.111C232.82 117.171 232.738 117.208 232.65 117.216C232.557 117.224 232.463 117.203 232.383 117.154C232.303 117.106 232.24 117.033 232.205 116.947C232.176 116.878 232.169 116.802 232.184 116.729C232.2 116.656 232.238 116.59 232.293 116.539C232.474 116.374 232.645 116.457 232.623 116.49C232.601 116.523 232.513 116.545 232.452 116.666C232.436 116.693 232.428 116.723 232.428 116.754C232.428 116.785 232.436 116.815 232.452 116.842C232.472 116.872 232.499 116.895 232.531 116.911C232.563 116.926 232.598 116.933 232.634 116.93C232.749 116.93 232.804 116.727 232.744 116.655L232.81 116.688C232.595 116.633 232.469 116.6 232.474 116.534Z" fill="#263238"/>
<path d="M233.261 116.386C233.184 116.386 233.151 116.182 233.195 115.973C233.239 115.764 233.338 115.605 233.415 115.616C233.492 115.627 233.519 115.819 233.475 116.028C233.431 116.237 233.338 116.402 233.261 116.386Z" fill="#263238"/>
<path d="M234.465 115.539C234.438 115.61 234.256 115.599 234.064 115.539C233.871 115.478 233.745 115.324 233.778 115.253C233.811 115.181 233.992 115.192 234.179 115.253C234.366 115.313 234.498 115.467 234.465 115.539Z" fill="#263238"/>
<path d="M234.603 114.494C234.636 114.494 234.63 114.593 234.696 114.664C234.762 114.736 234.845 114.752 234.905 114.664C234.966 114.576 234.905 114.51 234.817 114.477C234.752 114.46 234.684 114.46 234.619 114.477C234.586 114.477 234.619 114.323 234.806 114.285C234.864 114.274 234.924 114.278 234.98 114.297C235.036 114.317 235.086 114.35 235.125 114.395C235.176 114.453 235.206 114.527 235.21 114.604C235.215 114.682 235.195 114.759 235.153 114.824C235.114 114.891 235.054 114.944 234.983 114.976C234.912 115.008 234.833 115.016 234.757 115C234.699 114.986 234.647 114.958 234.604 114.917C234.562 114.876 234.531 114.825 234.515 114.769C234.46 114.56 234.575 114.466 234.603 114.494Z" fill="#263238"/>
<path d="M235.444 113.624C235.395 113.617 235.349 113.596 235.311 113.564C235.273 113.532 235.245 113.49 235.228 113.444C235.212 113.397 235.209 113.347 235.219 113.298C235.228 113.25 235.251 113.205 235.285 113.168C235.34 113.168 235.455 113.223 235.499 113.349C235.543 113.476 235.516 113.602 235.444 113.624Z" fill="#263238"/>
<path d="M236.231 112.855C236.192 112.921 236.038 112.91 235.89 112.822C235.741 112.734 235.653 112.613 235.697 112.547C235.741 112.481 235.884 112.492 236.033 112.574C236.181 112.657 236.269 112.783 236.231 112.855Z" fill="#263238"/>
<path d="M236.769 111.699C236.802 111.776 236.67 111.903 236.484 111.985C236.297 112.068 236.11 112.079 236.077 111.985C236.044 111.892 236.176 111.787 236.363 111.705C236.424 111.669 236.494 111.65 236.565 111.649C236.637 111.648 236.707 111.666 236.769 111.699Z" fill="#263238"/>
<path d="M237.017 110.319C237.017 110.292 237.122 110.187 237.309 110.286C237.363 110.316 237.409 110.36 237.442 110.413C237.474 110.466 237.493 110.526 237.496 110.589C237.495 110.669 237.471 110.749 237.425 110.815C237.379 110.882 237.314 110.933 237.239 110.962C237.163 110.992 237.08 110.997 237.002 110.979C236.923 110.96 236.852 110.918 236.797 110.858C236.757 110.81 236.73 110.752 236.72 110.69C236.709 110.628 236.715 110.565 236.737 110.506C236.808 110.314 236.962 110.303 236.968 110.341C236.973 110.38 236.924 110.44 236.935 110.545C236.946 110.649 237.012 110.743 237.133 110.699C237.254 110.655 237.254 110.545 237.182 110.451C237.111 110.358 237.05 110.358 237.017 110.319Z" fill="#263238"/>
<path d="M237.771 109.115C237.771 109.192 237.65 109.291 237.457 109.335C237.265 109.379 237.1 109.335 237.083 109.274C237.067 109.214 237.204 109.098 237.397 109.054C237.589 109.01 237.754 109.038 237.771 109.115Z" fill="#263238"/>
<path d="M237.001 108.713L237.303 108.482L237.001 108.713Z" fill="#263238"/>
<path d="M212.02 116.556C211.948 116.556 211.921 116.396 211.97 116.253C212.02 116.11 212.113 116.017 212.185 116.039C212.256 116.061 212.284 116.198 212.24 116.341C212.196 116.484 212.097 116.6 212.02 116.556Z" fill="#263238"/>
<path d="M212.68 117.354C212.68 117.321 212.779 117.216 212.977 117.304C213.045 117.334 213.103 117.384 213.143 117.446C213.184 117.509 213.206 117.581 213.206 117.656C213.206 117.731 213.184 117.804 213.143 117.866C213.103 117.929 213.045 117.978 212.977 118.008C212.903 118.048 212.82 118.064 212.737 118.054C212.654 118.044 212.576 118.009 212.515 117.953C212.469 117.909 212.435 117.854 212.416 117.794C212.397 117.733 212.393 117.669 212.405 117.607C212.443 117.392 212.603 117.359 212.614 117.392C212.625 117.425 212.581 117.502 212.614 117.612C212.647 117.722 212.724 117.821 212.861 117.755C212.999 117.689 212.971 117.568 212.861 117.475C212.751 117.381 212.696 117.392 212.68 117.354Z" fill="#263238"/>
<path d="M213.499 119.152C213.466 119.223 213.296 119.223 213.114 119.152C212.933 119.08 212.817 118.959 212.845 118.888C212.872 118.816 213.048 118.816 213.23 118.888C213.411 118.959 213.527 119.08 213.499 119.152Z" fill="#263238"/>
<path d="M213.703 120.252C213.675 120.329 213.543 120.351 213.4 120.307C213.257 120.263 213.164 120.164 213.186 120.087C213.208 120.01 213.345 119.988 213.488 120.038C213.631 120.087 213.725 120.181 213.703 120.252Z" fill="#263238"/>
<path d="M214.038 121C214.104 121.038 214.088 121.198 213.994 121.352C213.901 121.506 213.774 121.605 213.708 121.561C213.642 121.517 213.659 121.363 213.747 121.209C213.772 121.152 213.813 121.102 213.864 121.065C213.915 121.029 213.975 121.006 214.038 121Z" fill="#263238"/>
<path d="M214.236 121.765C214.198 121.765 214.33 121.561 214.61 121.638C214.691 121.66 214.764 121.702 214.825 121.759C214.885 121.817 214.931 121.889 214.957 121.968C214.988 122.079 214.976 122.198 214.923 122.3C214.87 122.402 214.78 122.48 214.671 122.518C214.572 122.558 214.464 122.568 214.359 122.548C214.255 122.527 214.158 122.477 214.082 122.403C214.021 122.332 213.987 122.241 213.987 122.147C213.987 122.053 214.021 121.962 214.082 121.891C214.127 121.846 214.189 121.821 214.253 121.821C214.316 121.821 214.378 121.846 214.423 121.891C214.484 121.963 214.456 122.018 214.423 122.018C214.408 122.019 214.392 122.017 214.378 122.011C214.363 122.006 214.351 121.996 214.341 121.985C214.33 121.978 214.318 121.974 214.306 121.973C214.294 121.972 214.281 121.973 214.27 121.977C214.258 121.982 214.247 121.988 214.239 121.997C214.23 122.006 214.224 122.017 214.22 122.029C214.206 122.063 214.204 122.1 214.213 122.135C214.222 122.171 214.241 122.203 214.269 122.227C214.311 122.256 214.36 122.275 214.411 122.281C214.462 122.286 214.513 122.279 214.561 122.26C214.786 122.177 214.693 121.924 214.528 121.842C214.363 121.759 214.264 121.798 214.236 121.765Z" fill="#263238"/>
<path d="M215.05 123.2C215.105 123.255 215.05 123.382 214.951 123.481C214.852 123.58 214.715 123.602 214.66 123.547C214.605 123.492 214.66 123.36 214.759 123.266C214.858 123.173 214.979 123.129 215.05 123.2Z" fill="#263238"/>
<path d="M215.347 124.146C215.408 124.201 215.347 124.338 215.254 124.454C215.16 124.569 215.006 124.625 214.946 124.57C214.885 124.514 214.946 124.377 215.045 124.261C215.144 124.146 215.292 124.091 215.347 124.146Z" fill="#263238"/>
<path d="M220.963 148.637C220.897 148.676 220.748 148.549 220.644 148.351C220.539 148.153 220.501 147.966 220.567 147.928C220.633 147.889 220.781 148.016 220.891 148.214C221.001 148.412 221.034 148.599 220.963 148.637Z" fill="#263238"/>
<path d="M221.441 148.638C221.37 148.671 221.238 148.539 221.15 148.341C221.062 148.143 221.051 147.961 221.15 147.928C221.249 147.895 221.353 148.027 221.441 148.225C221.529 148.423 221.513 148.605 221.441 148.638Z" fill="#263238"/>
<path d="M222.118 148.995V149.171C222.118 149.253 222.2 149.286 222.277 149.242C222.354 149.198 222.349 149.138 222.277 149.066C222.206 148.995 222.151 149.006 222.129 148.967C222.107 148.929 222.195 148.83 222.371 148.885C222.452 148.912 222.52 148.969 222.56 149.045C222.601 149.121 222.609 149.21 222.585 149.292C222.557 149.375 222.498 149.444 222.42 149.484C222.361 149.527 222.29 149.551 222.217 149.551C222.143 149.551 222.072 149.527 222.013 149.484C221.973 149.447 221.942 149.401 221.924 149.349C221.906 149.297 221.9 149.242 221.909 149.187C221.969 148.984 222.107 148.956 222.118 148.995Z" fill="#263238"/>
<path d="M223.811 149.353C223.861 149.413 223.757 149.573 223.581 149.705C223.405 149.837 223.229 149.892 223.179 149.826C223.13 149.76 223.234 149.606 223.41 149.474C223.586 149.342 223.767 149.287 223.811 149.353Z" fill="#263238"/>
<path d="M224.367 149.903C224.4 149.974 224.323 150.084 224.197 150.15C224.07 150.216 223.927 150.211 223.894 150.15C223.861 150.09 223.933 149.969 224.065 149.903C224.197 149.837 224.334 149.837 224.367 149.903Z" fill="#263238"/>
<path d="M225.148 150.777C225.066 150.777 224.989 150.672 224.961 150.518C224.934 150.364 224.989 150.232 225.066 150.221C225.143 150.21 225.225 150.326 225.247 150.48C225.269 150.634 225.225 150.766 225.148 150.777Z" fill="#263238"/>
<path d="M226.408 150.76C226.39 150.831 226.39 150.905 226.408 150.975C226.441 151.085 226.512 151.162 226.633 151.09C226.754 151.019 226.721 150.914 226.633 150.837C226.545 150.76 226.457 150.782 226.435 150.749C226.413 150.716 226.501 150.595 226.71 150.65C226.771 150.667 226.827 150.699 226.872 150.744C226.917 150.788 226.95 150.843 226.969 150.903C226.992 151.007 226.973 151.115 226.916 151.205C226.859 151.295 226.769 151.358 226.666 151.382C226.607 151.396 226.546 151.397 226.487 151.383C226.427 151.37 226.372 151.343 226.325 151.305C226.279 151.262 226.244 151.209 226.224 151.149C226.203 151.09 226.199 151.026 226.21 150.964C226.237 150.749 226.397 150.7 226.408 150.76Z" fill="#263238"/>
<path d="M227.904 151.338C227.959 151.398 227.876 151.552 227.722 151.684C227.568 151.816 227.403 151.877 227.354 151.816C227.304 151.756 227.381 151.602 227.535 151.47C227.689 151.338 227.854 151.277 227.904 151.338Z" fill="#263238"/>
<path d="M228.894 151.926C228.949 151.981 228.861 152.152 228.657 152.245C228.454 152.339 228.261 152.289 228.256 152.207C228.25 152.124 228.382 152.053 228.536 151.981C228.69 151.91 228.833 151.866 228.894 151.926Z" fill="#263238"/>
<path d="M229.642 152.999C229.565 153.027 229.466 152.938 229.422 152.806C229.378 152.674 229.422 152.548 229.477 152.526C229.532 152.504 229.653 152.587 229.697 152.719C229.741 152.851 229.713 152.977 229.642 152.999Z" fill="#263238"/>
<path d="M230.489 152.493C230.456 152.493 230.522 152.328 230.731 152.339C230.805 152.343 230.877 152.372 230.933 152.42C230.99 152.469 231.029 152.535 231.045 152.608C231.061 152.681 231.052 152.758 231.02 152.825C230.988 152.893 230.935 152.948 230.868 152.983C230.797 153.03 230.711 153.051 230.626 153.04C230.54 153.029 230.462 152.987 230.406 152.922C230.368 152.87 230.346 152.809 230.341 152.744C230.336 152.68 230.349 152.616 230.379 152.559C230.483 152.372 230.659 152.411 230.643 152.449C230.603 152.502 230.579 152.565 230.571 152.631C230.571 152.73 230.615 152.796 230.72 152.735C230.824 152.675 230.786 152.598 230.687 152.537C230.588 152.477 230.522 152.521 230.489 152.493Z" fill="#263238"/>
<path d="M231.281 151.723C231.215 151.767 231.099 151.723 231.022 151.607C230.945 151.492 230.94 151.371 231.022 151.327C231.105 151.283 231.204 151.327 231.281 151.443C231.358 151.558 231.347 151.679 231.281 151.723Z" fill="#263238"/>
<path d="M231.671 151.091C231.616 151.146 231.501 151.124 231.413 151.035C231.325 150.947 231.297 150.832 231.352 150.777C231.407 150.722 231.528 150.744 231.616 150.832C231.704 150.92 231.726 151.036 231.671 151.091Z" fill="#263238"/>
<path d="M232.1 149.881C232.062 149.881 232.144 149.732 232.315 149.793C232.365 149.811 232.409 149.843 232.442 149.886C232.474 149.929 232.493 149.981 232.496 150.035C232.489 150.12 232.449 150.199 232.384 150.254C232.319 150.31 232.235 150.338 232.15 150.332C232.1 150.329 232.052 150.315 232.009 150.29C231.966 150.265 231.929 150.23 231.902 150.189C231.878 150.146 231.865 150.097 231.865 150.048C231.865 149.999 231.878 149.951 231.902 149.908C231.968 149.765 232.089 149.76 232.1 149.793C232.106 149.847 232.106 149.903 232.1 149.958C232.101 149.973 232.104 149.989 232.111 150.003C232.117 150.017 232.127 150.03 232.139 150.04H232.249V149.98C232.249 149.98 232.144 149.908 232.1 149.881Z" fill="#263238"/>
<path d="M232.98 150.777C232.94 150.76 232.908 150.728 232.889 150.689C232.871 150.649 232.868 150.604 232.881 150.563C232.883 150.542 232.889 150.521 232.899 150.503C232.909 150.484 232.923 150.468 232.939 150.454C232.956 150.441 232.974 150.431 232.995 150.425C233.015 150.419 233.036 150.417 233.057 150.42C233.097 150.436 233.129 150.466 233.147 150.505C233.166 150.543 233.169 150.588 233.156 150.629C233.149 150.67 233.128 150.708 233.096 150.736C233.063 150.763 233.022 150.778 232.98 150.777Z" fill="#263238"/>
<path d="M233.382 151.25C233.351 151.219 233.329 151.182 233.318 151.14C233.306 151.099 233.306 151.055 233.316 151.014C233.316 150.97 233.329 150.927 233.355 150.892C233.381 150.856 233.417 150.829 233.459 150.816C233.536 150.816 233.629 150.909 233.602 151.063C233.574 151.217 233.442 151.3 233.382 151.25Z" fill="#263238"/>
<path d="M233.937 151.888C233.907 151.921 233.869 151.945 233.826 151.957C233.783 151.968 233.737 151.967 233.695 151.954C233.651 151.954 233.607 151.939 233.572 151.912C233.536 151.885 233.51 151.848 233.497 151.805C233.497 151.728 233.596 151.64 233.75 151.668C233.904 151.695 233.976 151.8 233.937 151.888Z" fill="#263238"/>
<path d="M234.388 152.427C234.361 152.4 234.432 152.289 234.603 152.317C234.655 152.328 234.704 152.352 234.745 152.387C234.787 152.421 234.819 152.465 234.839 152.515C234.863 152.599 234.853 152.689 234.81 152.765C234.768 152.841 234.697 152.898 234.614 152.922C234.557 152.938 234.497 152.939 234.44 152.924C234.383 152.91 234.331 152.88 234.289 152.839C234.257 152.793 234.24 152.739 234.24 152.683C234.24 152.627 234.257 152.572 234.289 152.526C234.377 152.361 234.531 152.405 234.515 152.443C234.487 152.488 234.474 152.54 234.476 152.592C234.476 152.663 234.476 152.663 234.509 152.663H234.564C234.619 152.663 234.603 152.63 234.608 152.614C234.603 152.581 234.585 152.552 234.559 152.531C234.476 152.46 234.41 152.46 234.388 152.427Z" fill="#263238"/>
<path d="M235.092 153.516C235.051 153.504 235.015 153.477 234.993 153.441C234.97 153.404 234.963 153.36 234.971 153.318C234.97 153.297 234.974 153.276 234.982 153.256C234.989 153.236 235.001 153.218 235.016 153.203C235.031 153.189 235.049 153.177 235.069 153.169C235.088 153.161 235.109 153.158 235.131 153.158C235.151 153.162 235.171 153.17 235.188 153.182C235.206 153.194 235.221 153.208 235.233 153.226C235.244 153.243 235.253 153.263 235.257 153.283C235.261 153.304 235.261 153.325 235.257 153.345C235.256 153.389 235.238 153.431 235.208 153.463C235.177 153.494 235.136 153.513 235.092 153.516Z" fill="#263238"/>
<path d="M236.159 152.95C236.159 153.027 236.005 153.065 235.851 153.027C235.697 152.988 235.587 152.9 235.604 152.823C235.62 152.746 235.763 152.713 235.917 152.746C236.071 152.779 236.176 152.9 236.159 152.95Z" fill="#263238"/>
<path d="M236.561 152.757C236.516 152.752 236.476 152.73 236.446 152.697C236.417 152.663 236.401 152.62 236.401 152.575C236.401 152.465 236.445 152.366 236.528 152.361C236.61 152.355 236.676 152.438 236.687 152.548C236.698 152.658 236.643 152.751 236.561 152.757Z" fill="#263238"/>
<path d="M237.309 152.163C237.232 152.163 237.166 152.075 237.166 151.965C237.166 151.855 237.232 151.767 237.309 151.767C237.386 151.767 237.452 151.855 237.452 151.965C237.452 152.075 237.391 152.163 237.309 152.163Z" fill="#263238"/>
<path d="M237.886 151.355C237.886 151.327 237.985 151.217 238.167 151.327C238.22 151.36 238.262 151.407 238.289 151.464C238.315 151.521 238.324 151.584 238.315 151.646C238.3 151.729 238.255 151.804 238.187 151.855C238.12 151.906 238.036 151.929 237.952 151.921C237.877 151.927 237.801 151.907 237.74 151.863C237.678 151.819 237.634 151.755 237.616 151.681C237.597 151.608 237.605 151.53 237.639 151.462C237.672 151.394 237.729 151.341 237.798 151.311C237.985 151.217 238.101 151.344 238.068 151.371C238.035 151.399 237.969 151.371 237.914 151.476C237.899 151.491 237.889 151.509 237.882 151.529C237.875 151.549 237.873 151.57 237.875 151.591C237.898 151.616 237.929 151.631 237.963 151.635C238.018 151.635 238.046 151.635 238.057 151.597C238.062 151.558 238.062 151.519 238.057 151.481C238.057 151.443 237.903 151.388 237.886 151.355Z" fill="#263238"/>
<path d="M239.377 150.892C239.316 150.953 239.212 150.936 239.107 150.925C239.003 150.914 238.893 150.881 238.86 150.81C238.827 150.738 238.948 150.606 239.151 150.639C239.355 150.672 239.432 150.843 239.377 150.892Z" fill="#263238"/>
<path d="M240.13 150.497C240.092 150.568 239.938 150.563 239.773 150.535C239.608 150.508 239.465 150.458 239.454 150.376C239.443 150.293 239.613 150.21 239.822 150.249C240.031 150.288 240.169 150.431 240.13 150.497Z" fill="#263238"/>
<path d="M240.559 150.15C240.482 150.15 240.427 150.045 240.433 149.935C240.438 149.825 240.515 149.743 240.598 149.754C240.68 149.765 240.73 149.853 240.719 149.963C240.719 150.008 240.703 150.052 240.674 150.086C240.645 150.121 240.604 150.143 240.559 150.15Z" fill="#263238"/>
<path d="M241.208 149.133C241.181 149.133 241.263 148.984 241.461 149.023C241.522 149.038 241.577 149.072 241.619 149.119C241.661 149.166 241.689 149.224 241.698 149.287C241.708 149.367 241.692 149.448 241.651 149.518C241.61 149.588 241.547 149.642 241.472 149.672C241.393 149.696 241.307 149.692 241.231 149.66C241.154 149.628 241.092 149.569 241.054 149.496C241.022 149.437 241.012 149.368 241.026 149.303C241.04 149.237 241.078 149.179 241.131 149.138C241.307 149.012 241.434 149.138 241.406 149.138C241.379 149.138 241.313 149.188 241.274 149.265C241.236 149.342 241.274 149.331 241.274 149.347C241.285 149.36 241.298 149.37 241.314 149.376C241.329 149.383 241.345 149.386 241.362 149.386C241.378 149.375 241.392 149.361 241.402 149.345C241.413 149.329 241.42 149.311 241.423 149.292C241.424 149.274 241.421 149.256 241.413 149.239C241.405 149.223 241.393 149.209 241.379 149.199C241.318 149.155 241.23 149.166 241.208 149.133Z" fill="#263238"/>
<path d="M242.149 149.105C242.107 149.087 242.073 149.054 242.053 149.012C242.034 148.971 242.031 148.923 242.044 148.879C242.044 148.856 242.049 148.833 242.058 148.812C242.067 148.79 242.081 148.771 242.098 148.755C242.115 148.739 242.135 148.727 242.157 148.719C242.179 148.711 242.202 148.707 242.226 148.709C242.303 148.709 242.347 148.824 242.325 148.934C242.303 149.044 242.226 149.121 242.149 149.105Z" fill="#263238"/>
<path d="M242.946 148.434C242.905 148.422 242.869 148.395 242.847 148.359C242.824 148.322 242.817 148.278 242.825 148.236C242.822 148.217 242.823 148.197 242.828 148.178C242.832 148.159 242.841 148.142 242.853 148.126C242.865 148.111 242.879 148.098 242.896 148.088C242.913 148.079 242.932 148.073 242.952 148.071C242.971 148.068 242.991 148.069 243.01 148.073C243.029 148.078 243.048 148.087 243.063 148.098C243.079 148.11 243.093 148.125 243.103 148.142C243.113 148.159 243.119 148.178 243.122 148.198C243.127 148.221 243.127 148.245 243.122 148.269C243.119 148.314 243.099 148.356 243.067 148.386C243.034 148.417 242.991 148.434 242.946 148.434Z" fill="#263238"/>
<path d="M244.068 147.785C244.024 147.851 243.887 147.84 243.744 147.785C243.601 147.73 243.474 147.702 243.463 147.62C243.452 147.537 243.612 147.461 243.81 147.505C244.008 147.549 244.112 147.719 244.068 147.785Z" fill="#263238"/>
<path d="M244.607 147.4C244.536 147.433 244.426 147.329 244.47 147.186C244.514 147.043 244.657 147.015 244.701 147.081C244.719 147.108 244.732 147.139 244.739 147.171C244.745 147.203 244.745 147.236 244.739 147.268C244.728 147.298 244.71 147.326 244.687 147.348C244.665 147.371 244.637 147.389 244.607 147.4Z" fill="#263238"/>
<path d="M245.256 146.767C245.215 146.756 245.179 146.729 245.157 146.692C245.134 146.656 245.127 146.612 245.135 146.569C245.135 146.548 245.139 146.527 245.148 146.507C245.156 146.487 245.168 146.47 245.184 146.455C245.199 146.44 245.217 146.428 245.237 146.421C245.257 146.413 245.279 146.409 245.3 146.41C245.341 146.42 245.376 146.446 245.399 146.482C245.421 146.518 245.429 146.561 245.421 146.602C245.418 146.645 245.4 146.686 245.37 146.716C245.339 146.747 245.299 146.765 245.256 146.767Z" fill="#263238"/>
<path d="M237.325 117.551L233.679 121.22L242.512 129.905C242.512 129.905 244.31 124.668 245.564 120.059C246.45 116.803 237.325 117.551 237.325 117.551Z" fill="#5064BF"/>
<path d="M235.901 121.55C235.824 121.55 235.741 121.39 235.719 121.181C235.697 120.972 235.747 120.791 235.824 120.785C235.901 120.78 235.983 120.939 236.005 121.154C236.027 121.368 235.978 121.55 235.901 121.55Z" fill="#263238"/>
<path d="M236.742 121.721C236.742 121.798 236.605 121.864 236.434 121.864C236.264 121.864 236.132 121.798 236.132 121.721C236.132 121.644 236.269 121.578 236.434 121.578C236.599 121.578 236.742 121.638 236.742 121.721Z" fill="#263238"/>
<path d="M236.973 122.942C236.902 122.898 236.907 122.771 236.907 122.634C236.907 122.496 236.907 122.375 236.973 122.331C237.039 122.287 237.193 122.408 237.193 122.634C237.193 122.859 237.05 122.991 236.973 122.942Z" fill="#263238"/>
<path d="M237.699 123.063C237.666 123.063 237.793 122.887 238.029 122.964C238.101 122.986 238.165 123.028 238.215 123.084C238.266 123.14 238.3 123.209 238.315 123.283C238.326 123.382 238.302 123.483 238.246 123.566C238.191 123.65 238.108 123.712 238.012 123.74C237.915 123.769 237.812 123.763 237.72 123.724C237.628 123.684 237.552 123.614 237.507 123.525C237.481 123.451 237.478 123.372 237.498 123.296C237.517 123.221 237.559 123.153 237.617 123.101C237.651 123.067 237.692 123.041 237.738 123.026C237.784 123.011 237.833 123.006 237.881 123.013C237.952 123.013 237.974 123.068 237.963 123.079C237.884 123.107 237.816 123.162 237.771 123.233C237.699 123.354 237.738 123.514 237.93 123.464C238.123 123.415 238.073 123.239 237.93 123.151C237.787 123.063 237.721 123.096 237.699 123.063Z" fill="#263238"/>
<path d="M238.651 124.547C238.579 124.547 238.552 124.399 238.59 124.273C238.629 124.146 238.728 124.064 238.805 124.086C238.882 124.108 238.909 124.234 238.865 124.361C238.821 124.487 238.728 124.569 238.651 124.547Z" fill="#263238"/>
<path d="M239.476 124.388C239.553 124.388 239.58 124.619 239.536 124.872C239.492 125.125 239.393 125.323 239.316 125.307C239.239 125.29 239.212 125.076 239.256 124.823C239.3 124.57 239.399 124.377 239.476 124.388Z" fill="#263238"/>
<path d="M240.35 125.4C240.35 125.477 240.213 125.559 240.02 125.581C239.828 125.603 239.674 125.554 239.663 125.477C239.652 125.4 239.8 125.317 239.993 125.295C240.185 125.273 240.35 125.306 240.35 125.4Z" fill="#263238"/>
<path d="M240.708 125.818C240.708 125.785 240.823 125.697 241.032 125.785C241.096 125.812 241.152 125.853 241.197 125.906C241.242 125.958 241.274 126.02 241.291 126.087C241.309 126.179 241.297 126.275 241.257 126.359C241.216 126.444 241.149 126.512 241.065 126.555C240.98 126.606 240.878 126.622 240.781 126.601C240.684 126.579 240.599 126.522 240.543 126.439C240.507 126.37 240.495 126.291 240.509 126.215C240.523 126.138 240.562 126.068 240.62 126.016C240.655 125.979 240.7 125.953 240.75 125.941C240.8 125.93 240.852 125.933 240.9 125.95C240.966 125.977 240.977 126.016 240.966 126.027C240.928 126.032 240.891 126.046 240.86 126.069C240.83 126.093 240.805 126.123 240.79 126.159C240.73 126.291 240.79 126.379 240.95 126.313C241.109 126.247 241.054 126.071 240.95 125.972C240.845 125.873 240.713 125.862 240.708 125.818Z" fill="#263238"/>
<path d="M241.632 127.76C241.555 127.76 241.489 127.551 241.489 127.298C241.489 127.045 241.555 126.841 241.632 126.841C241.709 126.841 241.775 127.045 241.775 127.298C241.775 127.551 241.714 127.76 241.632 127.76Z" fill="#263238"/>
<path d="M240.301 113.79C240.092 114.218 239.826 114.616 239.509 114.972C238.959 115.665 238.2 116.622 237.309 117.596C236.418 118.569 235.604 119.488 235.004 120.126C234.697 120.487 234.356 120.818 233.987 121.116C234.236 120.712 234.526 120.334 234.85 119.988C235.4 119.323 236.214 118.41 237.094 117.409L239.349 114.84C239.641 114.468 239.959 114.117 240.301 113.79Z" fill="#263238"/>
<path d="M246.477 146.702C246.477 146.779 246.312 146.806 246.147 146.768C245.982 146.729 245.867 146.63 245.883 146.553C245.9 146.476 246.054 146.449 246.213 146.487C246.373 146.526 246.494 146.625 246.477 146.702Z" fill="#263238"/>
<path d="M246.895 146.03C246.895 146.003 246.928 145.915 247.088 145.904C247.14 145.905 247.19 145.92 247.234 145.95C247.277 145.979 247.31 146.021 247.33 146.069C247.345 146.099 247.355 146.132 247.358 146.166C247.361 146.2 247.357 146.235 247.346 146.267C247.335 146.299 247.318 146.329 247.295 146.355C247.272 146.38 247.245 146.401 247.214 146.415H247.159C246.884 146.487 246.648 146.217 246.769 146.008C246.786 145.977 246.813 145.952 246.845 145.936C246.878 145.92 246.914 145.915 246.95 145.92C246.958 145.92 246.966 145.922 246.974 145.925C246.981 145.928 246.988 145.934 246.993 145.94C246.997 145.947 247.001 145.954 247.002 145.962C247.003 145.971 247.002 145.979 247 145.986C246.982 145.999 246.969 146.016 246.96 146.035C246.951 146.054 246.948 146.075 246.95 146.096C246.95 146.096 247.033 146.157 247.082 146.14C247.084 146.129 247.082 146.117 247.076 146.107C247.07 146.097 247.06 146.089 247.049 146.085C246.989 146.069 246.912 146.069 246.895 146.03Z" fill="#263238"/>
<path d="M200.085 126.533C199.771 125.493 195.828 123.359 196.422 122.782C197.192 122.023 200.437 125.191 200.728 125.438C201.02 125.686 201.377 125.262 201.102 125.053C200.706 124.751 196.603 121.495 197.357 120.747C197.775 120.329 198.457 121.17 198.457 121.17C198.457 121.17 202.076 124.509 202.422 124.14C202.769 123.772 200.706 121.737 199.964 121.104C199.221 120.472 199.227 119.861 199.766 119.762C200.129 119.691 202.45 121.583 203.165 122.232C203.88 122.881 205.832 124.685 205.574 122.996V122.919C205.277 121.269 205.574 119.889 205.959 119.559C206.04 119.478 206.144 119.424 206.257 119.405C206.37 119.386 206.486 119.403 206.589 119.453C206.692 119.504 206.777 119.585 206.831 119.686C206.886 119.786 206.908 119.902 206.894 120.015C206.91 120.097 206.91 120.181 206.894 120.263V120.384C206.877 120.96 206.916 121.537 207.009 122.105C207.085 122.617 207.247 123.111 207.488 123.568C207.768 124.118 208.038 124.536 208.258 124.905C210.892 126.357 218.477 130.19 226.072 130.773C227.447 130.878 234.405 121.88 234.405 121.88L241.23 128.584C240.306 130.163 239.982 130.526 235.345 136.867C227.783 147.213 203.995 130.08 203.995 130.08L203.775 129.97C201.968 129.089 200.212 128.104 198.517 127.022C196.471 125.587 196.592 125.4 196.796 125.18C197.258 124.602 200.404 127.6 200.085 126.533Z" fill="#FFBE9D"/>
</svg>
