<svg width="14" height="14" viewBox="0 0 14 14" fill="none" xmlns="http://www.w3.org/2000/svg">
<path d="M12.574 10.2601C12.574 10.6501 12.3567 11.4012 11.869 11.8138C11.7714 11.8889 11.6732 11.8465 11.7161 11.737C11.8583 11.3894 12.184 10.5852 12.0311 10.4001C11.9238 10.2596 11.4785 10.2698 11.0987 10.3025C10.9248 10.3245 10.773 10.3347 10.6545 10.3588C10.5456 10.368 10.523 10.2714 10.6325 10.1963C10.773 10.097 10.9248 10.0219 11.0992 9.96667C11.7161 9.78212 12.4297 9.89317 12.5316 10.0112C12.5509 10.0337 12.5745 10.097 12.5745 10.2596L12.574 10.2601ZM11.5434 10.9543C11.4017 11.0625 11.253 11.1611 11.0981 11.2494C9.95973 11.9334 8.48549 12.2918 7.20439 12.2918C5.14271 12.2918 3.29885 11.5316 1.89972 10.2596C1.78009 10.1619 1.87933 10.0203 2.01935 10.097C3.52685 10.9769 5.39271 11.509 7.32456 11.509C8.61607 11.5054 9.89573 11.2624 11.0987 10.7923C11.1856 10.7596 11.2832 10.7151 11.3685 10.6839C11.5654 10.5954 11.7387 10.8143 11.5434 10.9543ZM8.23335 5.037C8.23335 4.47852 8.25534 4.14967 8.07026 3.86748C7.9061 3.63519 7.62338 3.4957 7.22907 3.5177C6.80096 3.5413 6.3412 3.82188 6.22371 4.33636C6.20118 4.45438 6.13197 4.57026 5.98981 4.59548L4.68295 4.42917C4.58961 4.40771 4.44798 4.33636 4.49411 4.14967C4.77469 2.67328 6.03648 2.1588 7.22907 2.0896H7.50964C8.16414 2.0896 9.0048 2.27683 9.54289 2.7677C10.1958 3.37714 10.1266 4.1958 10.1266 5.08528V7.19202C10.1266 7.82399 10.3825 8.10403 10.6405 8.43342C10.7103 8.55091 10.7339 8.68932 10.6164 8.78481C10.2785 9.08627 9.93566 9.38209 9.58795 9.67214C9.4946 9.74349 9.32615 9.75101 9.2607 9.69629C8.84761 9.35026 8.74676 9.1582 8.49086 8.80681C8.04558 9.27408 7.67219 9.53212 7.22746 9.67214C6.9147 9.75152 6.59305 9.79047 6.27038 9.78802C5.14915 9.78802 4.26075 9.08899 4.26075 7.7065C4.26075 6.60726 4.84551 5.85995 5.70923 5.50641C6.57296 5.15234 7.82831 5.03968 8.23281 5.03753L8.23335 5.037ZM7.97691 7.82238C8.25588 7.35457 8.23281 6.97153 8.23281 6.1137C7.88357 6.1137 7.53218 6.13784 7.22907 6.20919C6.66845 6.37175 6.22371 6.72475 6.22371 7.47259C6.22371 8.05735 6.52789 8.45542 7.04184 8.45542C7.11265 8.45542 7.17488 8.44683 7.22907 8.43128C7.5885 8.33149 7.81275 8.15124 7.97691 7.82238Z" fill="white"/>
</svg>
