<svg width="14" height="14" viewBox="0 0 14 14" fill="none" xmlns="http://www.w3.org/2000/svg">
<g clip-path="url(#clip0_13_105)">
<path d="M7.00967 4.55795C6.53972 4.55795 5.81226 4.02362 5.04617 4.04293C4.03545 4.05581 3.10842 4.62876 2.58697 5.53648C1.53762 7.35835 2.31658 10.0493 3.34018 11.53C3.84232 12.251 4.43459 13.0622 5.21999 13.0364C5.9732 13.0042 6.25646 12.5471 7.17061 12.5471C8.07833 12.5471 8.33584 13.0364 9.13411 13.0171C9.94526 13.0042 10.4603 12.2832 10.956 11.5557C11.5289 10.7188 11.7671 9.90768 11.78 9.86262C11.7607 9.85618 10.2028 9.25747 10.1835 7.45491C10.1706 5.94849 11.4131 5.22747 11.471 5.19528C10.7629 4.15881 9.67488 4.04293 9.29505 4.01718C8.30365 3.93993 7.47318 4.55795 7.00967 4.55795ZM8.68347 3.03865C9.10192 2.53651 9.37875 1.8348 9.30149 1.13953C8.70279 1.16528 7.98176 1.53866 7.55044 2.04081C7.16417 2.48501 6.82941 3.19959 6.91954 3.88199C7.58263 3.93349 8.26502 3.54079 8.68347 3.03865Z" fill="white"/>
</g>
<defs>
<clipPath id="clip0_13_105">
<rect width="12.8754" height="12.8754" fill="white" transform="translate(0.773682 0.683472)"/>
</clipPath>
</defs>
</svg>
