<svg width="14" height="14" viewBox="0 0 14 14" fill="none" xmlns="http://www.w3.org/2000/svg">
<path d="M2.24384 1.91272H11.9004C12.0427 1.91272 12.1791 1.96924 12.2797 2.06985C12.3804 2.17046 12.4369 2.30691 12.4369 2.4492V11.0328C12.4369 11.1751 12.3804 11.3115 12.2797 11.4121C12.1791 11.5128 12.0427 11.5693 11.9004 11.5693H2.24384C2.10156 11.5693 1.96511 11.5128 1.8645 11.4121C1.76389 11.3115 1.70737 11.1751 1.70737 11.0328V2.4492C1.70737 2.30691 1.76389 2.17046 1.8645 2.06985C1.96511 1.96924 2.10156 1.91272 2.24384 1.91272ZM11.3639 6.741H2.78032V10.4963H11.3639V6.741ZM11.3639 4.5951V2.98567H2.78032V4.5951H11.3639Z" fill="#1A191E"/>
</svg>
