<svg width="14" height="14" viewBox="0 0 14 14" fill="none" xmlns="http://www.w3.org/2000/svg">
<path d="M2.41743 4.61076C2.86378 3.72196 3.54852 2.97479 4.39511 2.45278C5.2417 1.93076 6.21678 1.65447 7.21137 1.65479C8.65717 1.65479 9.87175 2.1859 10.8004 3.0523L9.26232 4.59092C8.70599 4.05927 7.99892 3.78835 7.21137 3.78835C5.81385 3.78835 4.63093 4.73255 4.20979 6.00024C4.1025 6.32212 4.04134 6.66547 4.04134 7.01954C4.04134 7.37361 4.1025 7.71696 4.20979 8.03884C4.63146 9.30707 5.81385 10.2507 7.21137 10.2507C7.93293 10.2507 8.5472 10.0603 9.02788 9.7384C9.30654 9.55492 9.54511 9.31685 9.72916 9.03856C9.91321 8.76028 10.0389 8.44756 10.0987 8.11931H7.21137V6.04423H12.2639C12.3272 6.39508 12.3615 6.76096 12.3615 7.14132C12.3615 8.77542 11.7768 10.1509 10.7618 11.0844C9.87444 11.9041 8.65986 12.3843 7.21137 12.3843C6.50678 12.3846 5.80905 12.246 5.15804 11.9765C4.50703 11.707 3.91551 11.3118 3.41729 10.8136C2.91907 10.3154 2.52392 9.72389 2.25441 9.07288C1.98491 8.42187 1.84634 7.72413 1.84662 7.01954C1.84662 6.15367 2.0537 5.33501 2.41743 4.61076Z" fill="white"/>
</svg>
