<svg width="13" height="14" viewBox="0 0 13 14" fill="none" xmlns="http://www.w3.org/2000/svg">
<path d="M11.3989 11.0328C11.3989 11.1751 11.3423 11.3115 11.2417 11.4122C11.1411 11.5128 11.0047 11.5693 10.8624 11.5693H2.27879C2.1365 11.5693 2.00005 11.5128 1.89944 11.4122C1.79883 11.3115 1.74231 11.1751 1.74231 11.0328V5.39445C1.74225 5.3127 1.76088 5.23202 1.79677 5.15856C1.83266 5.08511 1.88486 5.02083 1.94939 4.97064L6.24119 1.63269C6.33537 1.55943 6.45128 1.51965 6.57059 1.51965C6.6899 1.51965 6.80581 1.55943 6.89998 1.63269L11.1918 4.97064C11.2563 5.02083 11.3085 5.08511 11.3444 5.15856C11.3803 5.23202 11.3989 5.3127 11.3989 5.39445V11.0328ZM10.3259 10.4963V5.65625L6.57059 2.73568L2.81526 5.65625V10.4963H10.3259Z" fill="#5BB5A2"/>
</svg>
