<svg width="14" height="14" viewBox="0 0 14 14" fill="none" xmlns="http://www.w3.org/2000/svg">
<path d="M6.82142 12.1059C3.85847 12.1059 1.45667 9.70405 1.45667 6.7411C1.45667 3.77814 3.85847 1.37634 6.82142 1.37634C9.78437 1.37634 12.1862 3.77814 12.1862 6.7411C12.1862 9.70405 9.78437 12.1059 6.82142 12.1059ZM6.82142 11.0329C7.95968 11.0329 9.05131 10.5807 9.85618 9.77586C10.6611 8.97099 11.1132 7.87935 11.1132 6.7411C11.1132 5.60284 10.6611 4.5112 9.85618 3.70633C9.05131 2.90146 7.95968 2.44929 6.82142 2.44929C5.68316 2.44929 4.59152 2.90146 3.78666 3.70633C2.98179 4.5112 2.52962 5.60284 2.52962 6.7411C2.52962 7.87935 2.98179 8.97099 3.78666 9.77586C4.59152 10.5807 5.68316 11.0329 6.82142 11.0329ZM4.94375 7.81405H7.89437C7.96551 7.81405 8.03374 7.78579 8.08404 7.73548C8.13435 7.68518 8.16261 7.61695 8.16261 7.54581C8.16261 7.47467 8.13435 7.40644 8.08404 7.35614C8.03374 7.30583 7.96551 7.27757 7.89437 7.27757H5.74847C5.39276 7.27757 5.05163 7.13627 4.8001 6.88475C4.54858 6.63322 4.40728 6.29209 4.40728 5.93638C4.40728 5.58068 4.54858 5.23954 4.8001 4.98802C5.05163 4.7365 5.39276 4.5952 5.74847 4.59519H6.28494V3.52224H7.35789V4.59519H8.69908V5.66815H5.74847C5.67733 5.66815 5.6091 5.69641 5.55879 5.74671C5.50849 5.79701 5.48023 5.86524 5.48023 5.93638C5.48023 6.00752 5.50849 6.07575 5.55879 6.12606C5.6091 6.17636 5.67733 6.20462 5.74847 6.20462H7.89437C8.25007 6.20462 8.59121 6.34592 8.84273 6.59745C9.09425 6.84897 9.23556 7.1901 9.23556 7.54581C9.23556 7.90151 9.09425 8.24265 8.84273 8.49417C8.59121 8.74569 8.25007 8.887 7.89437 8.887H7.35789V9.95995H6.28494V8.887H4.94375V7.81405Z" fill="#1A191E"/>
</svg>
