<svg width="14" height="14" viewBox="0 0 14 14" fill="none" xmlns="http://www.w3.org/2000/svg">
<path d="M12.663 3.41279C12.2534 3.59395 11.8191 3.71293 11.3744 3.76579C11.8431 3.48545 12.194 3.04424 12.3615 2.52439C11.9216 2.78619 11.4393 2.96966 10.9366 3.06891C10.599 2.70763 10.1514 2.46804 9.66355 2.38736C9.17567 2.30669 8.67481 2.38946 8.23883 2.6228C7.80286 2.85615 7.45618 3.227 7.25271 3.6777C7.04924 4.12839 7.00037 4.63369 7.1137 5.11503C6.2216 5.07031 5.34888 4.83848 4.55219 4.43459C3.7555 4.0307 3.05265 3.46378 2.48929 2.77063C2.28987 3.11314 2.18508 3.5025 2.18564 3.89883C2.18564 4.67672 2.58156 5.36395 3.18349 5.76631C2.82727 5.75509 2.4789 5.65889 2.1674 5.48573V5.51363C2.16751 6.0317 2.34678 6.5338 2.67482 6.93478C3.00287 7.33577 3.45949 7.61096 3.96728 7.71371C3.6366 7.80332 3.28987 7.81653 2.95334 7.75234C3.0965 8.19827 3.37555 8.58827 3.75139 8.86773C4.12724 9.14719 4.58107 9.30211 5.04935 9.3108C4.58394 9.67631 4.05106 9.94651 3.48116 10.1059C2.91127 10.2654 2.31554 10.3109 1.72803 10.24C2.75361 10.8995 3.94748 11.2497 5.16683 11.2485C9.29394 11.2485 11.5509 7.82959 11.5509 4.86449C11.5509 4.76793 11.5482 4.67029 11.5439 4.57479C11.9832 4.25729 12.3624 3.86397 12.6635 3.41332L12.663 3.41279Z" fill="white"/>
</svg>
