<svg width="14" height="14" viewBox="0 0 14 14" fill="none" xmlns="http://www.w3.org/2000/svg">
<path d="M8.2613 8.50976V9.631C7.77575 9.45933 7.25609 9.40667 6.74597 9.47745C6.23585 9.54823 5.75016 9.74038 5.32969 10.0378C4.90922 10.3351 4.56624 10.7291 4.32956 11.1865C4.09288 11.6439 3.9694 12.1514 3.9695 12.6664L2.89655 12.6658C2.89638 12.0107 3.04618 11.3643 3.33447 10.776C3.62276 10.1878 4.04189 9.67334 4.55974 9.27211C5.07758 8.87088 5.68041 8.59352 6.32202 8.46129C6.96364 8.32905 7.627 8.34545 8.2613 8.50923V8.50976ZM7.18835 7.8381C5.40993 7.8381 3.9695 6.39766 3.9695 4.61924C3.9695 2.84083 5.40993 1.40039 7.18835 1.40039C8.96676 1.40039 10.4072 2.84083 10.4072 4.61924C10.4072 6.39766 8.96676 7.8381 7.18835 7.8381ZM7.18835 6.76514C8.37396 6.76514 9.33425 5.80485 9.33425 4.61924C9.33425 3.43363 8.37396 2.47334 7.18835 2.47334C6.00274 2.47334 5.04245 3.43363 5.04245 4.61924C5.04245 5.80485 6.00274 6.76514 7.18835 6.76514ZM10.4072 9.984V8.10633L13.0896 10.5205L10.4072 12.9346V11.0569H8.79778V9.984H10.4072Z" fill="#5BB5A2"/>
</svg>
