<svg width="14" height="14" viewBox="0 0 14 14" fill="none" xmlns="http://www.w3.org/2000/svg">
<g clip-path="url(#clip0_13_150)">
<path d="M11.6147 12.1058H10.5418V11.0329C10.5418 10.606 10.3722 10.1967 10.0704 9.89484C9.76854 9.59301 9.35917 9.42345 8.93233 9.42345H5.71347C5.28663 9.42345 4.87726 9.59301 4.57544 9.89484C4.27361 10.1967 4.10405 10.606 4.10405 11.0329V12.1058H3.0311V11.0329C3.0311 10.3215 3.3137 9.63919 3.81675 9.13615C4.31979 8.63311 5.00206 8.3505 5.71347 8.3505H8.93233C9.64374 8.3505 10.326 8.63311 10.8291 9.13615C11.3321 9.63919 11.6147 10.3215 11.6147 11.0329V12.1058ZM7.3229 7.27755C6.9002 7.27755 6.48163 7.19429 6.0911 7.03253C5.70057 6.87077 5.34573 6.63367 5.04683 6.33477C4.74793 6.03587 4.51083 5.68103 4.34907 5.2905C4.18731 4.89997 4.10405 4.4814 4.10405 4.0587C4.10405 3.63599 4.18731 3.21742 4.34907 2.82689C4.51083 2.43637 4.74793 2.08152 5.04683 1.78262C5.34573 1.48373 5.70057 1.24663 6.0911 1.08486C6.48163 0.923102 6.9002 0.839844 7.3229 0.839844C8.17659 0.839844 8.99532 1.17897 9.59897 1.78262C10.2026 2.38628 10.5418 3.205 10.5418 4.0587C10.5418 4.91239 10.2026 5.73112 9.59897 6.33477C8.99532 6.93842 8.17659 7.27755 7.3229 7.27755ZM7.3229 6.2046C7.89203 6.2046 8.43785 5.97851 8.84028 5.57608C9.24272 5.17364 9.4688 4.62782 9.4688 4.0587C9.4688 3.48957 9.24272 2.94375 8.84028 2.54131C8.43785 2.13888 7.89203 1.91279 7.3229 1.91279C6.75377 1.91279 6.20795 2.13888 5.80552 2.54131C5.40308 2.94375 5.177 3.48957 5.177 4.0587C5.177 4.62782 5.40308 5.17364 5.80552 5.57608C6.20795 5.97851 6.75377 6.2046 7.3229 6.2046Z" fill="#1A191E"/>
</g>
<defs>
<clipPath id="clip0_13_150">
<rect width="12.8754" height="12.8754" fill="white" transform="translate(0.885223 0.303345)"/>
</clipPath>
</defs>
</svg>
