<svg width="14" height="14" viewBox="0 0 14 14" fill="none" xmlns="http://www.w3.org/2000/svg">
<path d="M7.71723 8.50976V9.631C7.23168 9.45933 6.71203 9.40667 6.20191 9.47745C5.69179 9.54823 5.2061 9.74038 4.78563 10.0378C4.36515 10.3351 4.02217 10.7291 3.78549 11.1865C3.54881 11.6439 3.42533 12.1514 3.42543 12.6664L2.35248 12.6658C2.35231 12.0107 2.50211 11.3643 2.7904 10.776C3.07869 10.1878 3.49782 9.67334 4.01567 9.27211C4.53352 8.87088 5.13634 8.59352 5.77796 8.46129C6.41957 8.32905 7.08294 8.34545 7.71723 8.50923V8.50976ZM6.64428 7.8381C4.86587 7.8381 3.42543 6.39766 3.42543 4.61924C3.42543 2.84083 4.86587 1.40039 6.64428 1.40039C8.4227 1.40039 9.86313 2.84083 9.86313 4.61924C9.86313 6.39766 8.4227 7.8381 6.64428 7.8381ZM6.64428 6.76514C7.82989 6.76514 8.79018 5.80485 8.79018 4.61924C8.79018 3.43363 7.82989 2.47334 6.64428 2.47334C5.45867 2.47334 4.49838 3.43363 4.49838 4.61924C4.49838 5.80485 5.45867 6.76514 6.64428 6.76514ZM10.9361 9.984H12.5455V11.0569H10.9361V12.9346L8.25371 10.5205L10.9361 8.10633V9.984Z" fill="#5BB5A2"/>
</svg>
